<?xml version="1.0" standalone="no"?>
<!DOCTYPE svg PUBLIC "-//W3C//DTD SVG 20010904//EN"
 "http://www.w3.org/TR/2001/REC-SVG-20010904/DTD/svg10.dtd">
<svg version="1.0" xmlns="http://www.w3.org/2000/svg"
 width="1280.000000pt" height="1280.000000pt" viewBox="0 0 1280.000000 1280.000000"
 preserveAspectRatio="xMidYMid meet">
<metadata>
Created by potrace 1.11, written by Peter Selinger 2001-2013
</metadata>
<g transform="translate(0.000000,1280.000000) scale(0.100000,-0.100000)"
fill="#000000" stroke="none">
<path d="M6351 12474 c-28 -35 -26 -69 4 -99 30 -30 64 -32 99 -4 19 15 26 30
26 54 0 70 -87 103 -129 49z m69 -10 c0 -8 5 -12 11 -8 12 7 29 -12 29 -33 0
-19 -30 -43 -55 -43 -28 0 -56 35 -47 59 13 35 62 55 62 25z"/>
<path d="M6375 12439 c-4 -6 -5 -12 -2 -15 2 -3 7 2 10 11 7 17 1 20 -8 4z"/>
<path d="M6435 12430 c3 -5 8 -10 11 -10 2 0 4 5 4 10 0 6 -5 10 -11 10 -5 0
-7 -4 -4 -10z"/>
<path d="M5937 12448 c-13 -10 -20 -32 -24 -76 -6 -66 -14 -78 -53 -84 -22 -3
-25 -8 -25 -43 0 -38 2 -40 33 -43 l32 -3 0 -132 c1 -155 10 -204 45 -234 47
-41 141 -39 196 6 21 16 21 21 10 49 -16 37 -31 44 -69 30 -57 -22 -62 -12
-63 122 -1 66 -2 128 -3 138 -1 14 10 18 64 22 l65 5 0 45 0 45 -67 3 -67 3
-3 77 c-3 74 -4 77 -28 80 -14 2 -33 -3 -43 -10z m47 -34 c3 -9 6 -43 6 -77
l0 -62 67 0 c61 0 68 -2 68 -20 0 -18 -8 -21 -70 -25 l-70 -5 2 -60 c4 -159
15 -265 29 -276 13 -11 48 -8 85 6 20 8 36 -25 17 -36 -6 -4 -15 -6 -19 -3 -4
2 -9 -3 -13 -11 -9 -25 -96 -20 -123 8 -28 30 -34 66 -40 227 -5 143 -12 164
-53 153 -22 -6 -23 -3 -14 21 3 9 16 16 29 16 32 0 42 17 50 85 4 33 9 63 12
68 7 13 31 8 37 -9z"/>
<path d="M6058 12263 c6 -2 18 -2 25 0 6 3 1 5 -13 5 -14 0 -19 -2 -12 -5z"/>
<path d="M6337 12198 c-4 -57 -10 -165 -13 -242 -8 -156 -8 -156 63 -156 42 0
42 0 47 43 9 70 25 440 20 449 -3 4 -29 8 -58 8 l-53 0 -6 -102z m87 -80 c-4
-90 -9 -175 -10 -190 -1 -16 -2 -44 -3 -64 -1 -34 -3 -35 -33 -32 -31 3 -33 5
-32 43 4 143 9 213 14 210 3 -2 4 41 2 96 l-4 99 37 0 37 0 -8 -162z"/>
<path d="M6371 12254 c0 -11 3 -14 6 -6 3 7 2 16 -1 19 -3 4 -6 -2 -5 -13z"/>
<path d="M5448 12281 c-112 -36 -161 -140 -105 -222 23 -34 58 -52 169 -83 62
-18 76 -37 53 -72 -20 -31 -59 -40 -109 -25 -85 25 -84 25 -105 -10 -15 -25
-17 -36 -9 -47 22 -25 83 -43 151 -44 55 0 75 5 113 27 86 50 108 163 46 228
-24 26 -53 37 -169 67 -27 7 -44 17 -48 31 -15 46 51 70 135 48 46 -12 51 -11
65 7 25 34 18 59 -22 78 -44 21 -126 29 -165 17z m150 -40 c30 -15 31 -18 18
-36 -11 -16 -17 -17 -29 -7 -21 18 -122 19 -142 2 -14 -12 -18 -12 -26 1 -8
10 -9 9 -4 -7 3 -14 -1 -28 -10 -38 -10 -9 -12 -16 -5 -16 7 0 10 -11 7 -27
-2 -16 -2 -23 0 -16 3 8 13 6 36 -6 18 -10 58 -24 89 -31 34 -8 55 -17 51 -23
-4 -6 0 -8 9 -4 24 9 53 -18 66 -61 22 -72 -25 -140 -112 -163 -52 -14 -118
-7 -153 17 -25 16 -26 19 -9 22 15 3 16 6 5 12 -7 5 -11 12 -7 15 3 4 18 -1
31 -10 19 -12 43 -16 95 -13 39 2 68 6 66 9 -2 4 3 12 12 19 10 9 14 27 12 61
-2 26 -5 46 -8 44 -3 -2 -33 5 -65 16 -33 11 -69 21 -81 23 -30 6 -56 20 -78
45 -23 26 -27 98 -6 111 8 5 11 10 5 10 -5 0 3 11 18 26 15 14 32 22 39 18 6
-4 8 -3 4 4 -9 15 11 20 79 20 37 0 73 -7 93 -17z"/>
<path d="M5607 12009 c7 -7 15 -10 18 -7 3 3 -2 9 -12 12 -14 6 -15 5 -6 -5z"/>
<path d="M5616 11923 c-6 -14 -5 -15 5 -6 7 7 10 15 7 18 -3 3 -9 -2 -12 -12z"/>
<path d="M5596 11858 c3 -5 10 -6 15 -3 13 9 11 12 -6 12 -8 0 -12 -4 -9 -9z"/>
<path d="M6681 12103 c-12 -93 -27 -199 -33 -236 -5 -38 -6 -73 -2 -77 5 -5
30 -11 56 -15 36 -6 49 -4 53 6 2 8 14 86 25 173 11 87 21 160 22 161 43 29
59 35 91 35 51 0 74 -14 82 -49 3 -16 -3 -100 -15 -186 -12 -87 -17 -162 -13
-166 5 -5 31 -10 58 -11 l50 -3 23 165 c24 180 22 232 -11 281 -44 64 -142 88
-224 54 -44 -19 -43 -19 -43 4 0 22 -19 31 -64 31 l-33 0 -22 -167z m92 138
c4 -1 7 -14 7 -30 0 -17 5 -33 10 -36 6 -3 10 -2 10 3 0 9 54 35 96 47 38 10
107 -12 136 -44 50 -56 51 -84 11 -361 -8 -53 -10 -55 -38 -55 -36 0 -42 18
-27 89 21 99 31 224 22 257 -7 24 -6 35 3 42 9 6 8 7 -3 4 -8 -2 -27 2 -42 9
-40 21 -78 20 -129 -3 l-47 -21 -11 -73 c-6 -41 -15 -104 -21 -142 -5 -37 -10
-81 -10 -97 0 -28 -3 -30 -35 -30 -33 0 -35 2 -35 32 0 17 4 59 9 92 11 69 28
196 37 273 5 47 8 52 27 49 12 -3 25 -5 30 -5z"/>
<path d="M6848 12193 c7 -3 16 -2 19 1 4 3 -2 6 -13 5 -11 0 -14 -3 -6 -6z"/>
<path d="M7050 12091 c0 -6 4 -13 10 -16 6 -3 7 1 4 9 -7 18 -14 21 -14 7z"/>
<path d="M6991 11824 c0 -11 3 -14 6 -6 3 7 2 16 -1 19 -3 4 -6 -2 -5 -13z"/>
<path d="M4281 12207 c-22 -11 -23 -14 -16 -89 l6 -79 -30 -10 c-24 -9 -31
-17 -31 -38 0 -36 17 -51 57 -51 30 0 33 -3 43 -42 30 -116 63 -225 76 -251
40 -77 184 -67 240 18 16 24 16 27 -1 45 -27 30 -51 33 -83 10 -42 -31 -57
-19 -82 73 -12 45 -29 104 -36 131 -8 27 -12 52 -9 56 2 3 30 12 61 19 l56 13
-5 36 c-9 53 -18 57 -82 42 -30 -7 -58 -11 -60 -8 -3 3 -14 34 -24 69 -19 69
-34 79 -80 56z m46 -54 c-4 -22 -3 -32 2 -25 6 9 12 -1 20 -32 6 -24 14 -47
18 -49 5 -3 29 2 55 10 50 17 78 13 78 -11 0 -9 -16 -20 -42 -27 -37 -9 -44
-9 -55 7 -7 10 -13 13 -13 8 0 -6 5 -15 12 -22 9 -9 8 -12 -6 -12 -15 0 -16
-6 -11 -32 3 -18 10 -44 15 -58 5 -14 18 -61 30 -105 34 -131 36 -134 73 -125
18 4 42 13 54 20 18 12 24 12 38 0 14 -12 14 -15 -6 -37 -23 -23 -75 -43 -117
-43 -50 0 -98 90 -126 240 -2 8 -8 28 -14 43 -7 16 -12 34 -12 42 0 7 -3 20
-6 29 -5 14 -9 14 -34 1 -34 -18 -44 -19 -35 -5 3 6 1 10 -4 10 -25 0 -8 19
25 30 33 11 36 15 30 42 -4 21 -2 27 7 22 9 -6 9 -5 0 7 -14 18 -27 84 -18 98
3 6 16 11 27 11 18 0 20 -4 15 -37z"/>
<path d="M4295 12169 c-11 -16 -1 -19 13 -3 7 8 8 14 3 14 -5 0 -13 -5 -16
-11z"/>
<path d="M4371 11810 c0 -8 4 -24 9 -35 5 -13 9 -14 9 -5 0 8 -4 24 -9 35 -5
13 -9 14 -9 5z"/>
<path d="M4411 11794 c0 -11 3 -14 6 -6 3 7 2 16 -1 19 -3 4 -6 -2 -5 -13z"/>
<path d="M4569 11673 c-13 -16 -12 -17 4 -4 16 13 21 21 13 21 -2 0 -10 -8
-17 -17z"/>
<path d="M4884 12201 c-51 -13 -99 -48 -130 -93 -27 -40 -29 -50 -29 -133 0
-70 5 -100 21 -135 56 -121 178 -169 304 -121 101 38 149 94 114 132 -23 26
-49 24 -87 -5 -18 -14 -53 -30 -78 -37 -39 -10 -50 -10 -82 6 -36 17 -67 58
-67 87 0 9 45 22 142 40 94 18 147 33 154 43 26 35 -26 152 -85 191 -42 28
-123 39 -177 25z m66 -22 c-11 -8 -8 -9 13 -4 33 7 70 -2 62 -16 -3 -5 0 -6 7
-4 17 7 49 -27 77 -80 31 -58 28 -81 -11 -88 -18 -3 -87 -16 -153 -27 -66 -12
-123 -25 -128 -29 -10 -10 17 -72 47 -108 14 -17 24 -32 22 -34 -3 -2 25 -5
60 -7 52 -3 72 1 100 17 20 12 40 19 45 16 5 -4 9 1 9 9 0 24 20 30 38 11 16
-15 14 -19 -22 -50 -22 -18 -58 -38 -80 -45 -23 -6 -49 -14 -60 -17 -11 -3
-16 -1 -12 5 4 6 -2 8 -14 5 -33 -9 -88 6 -120 34 -68 57 -105 189 -79 279 21
73 113 138 199 143 13 1 13 0 0 -10z"/>
<path d="M4902 12133 c-51 -18 -89 -64 -93 -115 -2 -20 -1 -39 2 -42 2 -3 36
2 74 10 39 8 92 17 120 20 27 3 54 9 59 14 16 16 -29 84 -70 107 -45 26 -37
26 -92 6z m110 -53 c17 -17 28 -33 26 -36 -8 -7 -197 -42 -202 -37 -2 3 0 18
6 34 25 73 115 93 170 39z"/>
<path d="M4839 12123 c-13 -16 -12 -17 4 -4 16 13 21 21 13 21 -2 0 -10 -8
-17 -17z"/>
<path d="M4786 12093 c-6 -14 -5 -15 5 -6 7 7 10 15 7 18 -3 3 -9 -2 -12 -12z"/>
<path d="M5105 11799 c-4 -6 -14 -8 -24 -4 -13 5 -14 4 -3 -6 10 -11 15 -10
29 4 10 9 14 17 11 17 -4 0 -10 -5 -13 -11z"/>
<path d="M7416 12140 c-34 -11 -73 -45 -92 -82 -17 -32 -18 -111 -3 -140 9
-16 7 -24 -9 -41 -32 -35 -44 -66 -37 -96 5 -23 1 -29 -20 -39 -33 -15 -58
-74 -50 -114 22 -99 210 -178 329 -138 89 29 141 114 112 183 -17 42 -60 69
-153 97 -78 24 -109 41 -100 58 5 7 22 6 54 -4 63 -19 99 -18 149 7 48 23 79
65 89 121 6 32 11 37 39 40 28 3 31 6 31 37 0 34 -1 35 -60 51 -33 8 -80 26
-104 38 -48 26 -130 36 -175 22z m154 -38 c19 -8 42 -21 50 -28 8 -7 38 -16
65 -19 59 -8 57 -7 49 -29 -7 -18 -29 -22 -39 -6 -9 14 -44 -11 -38 -27 9 -22
-7 -84 -19 -77 -7 5 -8 2 -3 -5 9 -15 -34 -63 -51 -57 -7 3 -14 0 -16 -6 -6
-16 -88 -12 -131 6 -36 14 -39 14 -57 -4 -11 -11 -20 -26 -20 -33 0 -14 45
-58 52 -51 8 7 150 -44 177 -64 32 -24 46 -60 37 -97 -8 -31 -65 -87 -83 -81
-6 3 -13 1 -15 -3 -2 -5 -23 -12 -47 -16 -24 -4 -41 -3 -38 1 3 5 -12 9 -33 9
-40 1 -114 34 -149 67 -12 10 -24 30 -27 45 -8 31 8 79 24 75 7 -1 11 3 10 10
-2 6 11 16 28 21 31 9 31 10 16 36 -22 39 -10 74 33 94 37 18 44 31 21 40 -20
8 -39 73 -32 110 18 97 127 139 236 89z"/>
<path d="M7410 12100 c-8 -5 -10 -10 -5 -10 6 0 17 5 25 10 8 5 11 10 5 10 -5
0 -17 -5 -25 -10z"/>
<path d="M7515 12092 c5 -10 1 -13 -16 -11 -38 3 -77 -17 -94 -50 -40 -79 9
-151 102 -151 60 1 93 38 93 105 0 35 -5 42 -74 103 -11 9 -16 11 -11 4z m40
-67 c29 -28 31 -45 10 -84 -19 -38 -57 -47 -103 -24 -32 15 -37 23 -40 56 -4
52 19 77 70 77 28 0 46 -7 63 -25z"/>
<path d="M7580 12060 c0 -5 5 -10 11 -10 5 0 7 5 4 10 -3 6 -8 10 -11 10 -2 0
-4 -4 -4 -10z"/>
<path d="M7342 11990 c0 -14 2 -19 5 -12 2 6 2 18 0 25 -3 6 -5 1 -5 -13z"/>
<path d="M7368 11967 c-3 -19 -2 -25 4 -19 6 6 8 18 6 28 -3 14 -5 12 -10 -9z"/>
<path d="M7353 11738 c1 -8 -8 -12 -23 -11 -14 1 -20 0 -13 -3 7 -3 3 -13 -12
-28 -68 -68 71 -167 197 -140 51 11 80 53 59 86 -6 10 -9 24 -5 30 4 6 3 8 -2
5 -13 -8 -177 48 -182 62 -5 15 -23 14 -19 -1z m107 -66 c77 -28 95 -47 70
-77 -18 -22 -115 -19 -167 4 -49 23 -63 53 -37 82 22 25 43 23 134 -9z"/>
<path d="M7525 11710 c27 -12 43 -12 25 0 -8 5 -22 9 -30 9 -10 0 -8 -3 5 -9z"/>
<path d="M7611 11634 c0 -11 3 -14 6 -6 3 7 2 16 -1 19 -3 4 -6 -2 -5 -13z"/>
<path d="M8276 11893 c-2 -10 -7 -47 -10 -83 -3 -36 -13 -138 -22 -228 -9 -90
-13 -169 -10 -177 6 -18 72 -46 89 -39 6 3 57 56 112 119 55 62 102 111 103
110 2 -2 -1 -61 -7 -132 -7 -70 -13 -141 -14 -158 -2 -25 4 -32 36 -48 22 -10
45 -17 52 -15 15 3 335 366 335 380 0 11 -62 38 -89 38 -12 0 -54 -41 -116
-115 -54 -64 -100 -114 -102 -111 -2 2 3 69 11 149 9 81 13 153 10 160 -6 17
-47 37 -73 37 -11 0 -60 -47 -121 -115 -57 -64 -104 -114 -105 -113 -2 2 4 69
14 149 9 80 15 151 13 158 -4 12 -73 51 -91 51 -5 0 -12 -8 -15 -17z m84 -62
c0 -9 -7 -67 -16 -127 -8 -60 -17 -138 -19 -174 l-4 -65 19 23 c11 13 24 21
29 18 5 -3 8 0 7 8 0 7 45 65 102 129 98 112 103 116 128 105 25 -12 25 -13
20 -97 -7 -112 -24 -264 -31 -284 -10 -25 13 -29 26 -5 22 43 91 118 101 111
6 -3 8 -1 5 4 -10 17 52 82 72 76 12 -4 13 -3 3 5 -11 7 -6 18 22 48 28 30 38
36 45 26 4 -8 11 -13 15 -13 25 4 22 -5 -19 -54 -27 -31 -52 -52 -59 -48 -6 3
-8 3 -4 -2 8 -9 -9 -32 -89 -123 -42 -47 -59 -60 -66 -50 -6 10 -7 8 -3 -4 3
-10 -6 -29 -21 -47 -22 -25 -29 -28 -49 -19 -13 6 -25 17 -28 25 -6 15 19 305
30 348 9 36 -9 31 -47 -12 -18 -21 -37 -37 -41 -35 -4 1 -7 -2 -5 -7 2 -7 -24
-39 -139 -170 -31 -34 -33 -35 -59 -21 -15 8 -22 16 -16 18 6 2 11 8 11 13 0
6 -5 7 -11 3 -8 -5 -10 14 -5 67 4 41 11 128 17 194 5 66 12 135 15 153 l5 32
29 -15 c17 -9 30 -24 30 -34z"/>
<path d="M8824 11548 l-19 -23 23 19 c21 18 27 26 19 26 -2 0 -12 -10 -23 -22z"/>
<path d="M8395 11520 c-3 -5 -1 -10 4 -10 6 0 11 5 11 10 0 6 -2 10 -4 10 -3
0 -8 -4 -11 -10z"/>
<path d="M8765 11520 c3 -5 8 -10 11 -10 2 0 4 5 4 10 0 6 -5 10 -11 10 -5 0
-7 -4 -4 -10z"/>
<path d="M8325 11429 c-4 -6 -5 -12 -2 -15 2 -3 7 2 10 11 7 17 1 20 -8 4z"/>
<path d="M8581 11394 c0 -11 3 -14 6 -6 3 7 2 16 -1 19 -3 4 -6 -2 -5 -13z"/>
<path d="M3490 11769 c-90 -41 -133 -107 -133 -204 -1 -149 114 -278 247 -278
90 0 206 71 237 145 12 28 11 32 -10 49 -34 28 -50 24 -98 -26 -46 -48 -77
-65 -121 -65 -31 0 -87 36 -100 65 -9 20 0 26 127 81 l136 61 -1 37 c-3 76
-102 156 -194 156 -25 0 -65 -10 -90 -21z m185 -34 c39 -29 89 -101 81 -114
-3 -5 -45 -25 -93 -46 -49 -20 -106 -45 -129 -56 -23 -11 -47 -18 -55 -16 -8
2 -11 2 -7 0 4 -2 5 -10 2 -17 -7 -17 18 -62 48 -86 55 -43 149 -40 200 6 13
13 21 14 31 5 11 -8 18 -6 33 12 19 22 19 22 -2 4 -20 -16 -34 -14 -34 5 0 5
4 6 10 3 6 -4 7 1 3 11 -5 13 -2 15 18 9 18 -5 20 -4 9 4 -8 5 -11 13 -7 17 7
8 37 -14 37 -27 0 -21 -79 -94 -125 -115 -51 -24 -156 -35 -125 -13 12 8 10 9
-7 4 -50 -14 -134 64 -167 155 -14 39 -17 65 -12 108 7 61 30 107 48 96 7 -5
8 -3 3 5 -7 13 32 48 48 43 4 -1 7 2 7 8 0 15 61 30 107 26 27 -2 56 -14 78
-31z"/>
<path d="M3545 11717 c-16 -5 -41 -18 -54 -28 -13 -10 -27 -16 -32 -13 -5 3
-6 -2 -3 -10 3 -9 2 -16 -3 -16 -9 0 -15 -108 -7 -122 3 -4 33 7 69 23 36 17
72 32 80 33 8 1 21 8 27 14 7 7 19 12 28 12 8 0 23 7 33 14 15 12 16 15 2 26
-9 7 -14 19 -11 26 3 8 2 13 -2 12 -4 -1 -17 3 -29 10 -44 24 -68 29 -98 19z
m94 -51 l22 -23 -93 -41 c-89 -40 -93 -40 -96 -21 -6 38 8 69 41 89 45 28 98
26 126 -4z"/>
<path d="M3401 11634 c0 -11 3 -14 6 -6 3 7 2 16 -1 19 -3 4 -6 -2 -5 -13z"/>
<path d="M3401 11504 c0 -11 3 -14 6 -6 3 7 2 16 -1 19 -3 4 -6 -2 -5 -13z"/>
<path d="M3695 11371 c-7 -12 12 -24 25 -16 11 7 4 25 -10 25 -5 0 -11 -4 -15
-9z"/>
<path d="M9181 11664 c-28 -35 -26 -69 4 -99 30 -30 64 -32 99 -4 54 42 21
129 -49 129 -24 0 -39 -7 -54 -26z m87 -9 c30 -22 26 -63 -9 -80 -22 -12 -29
-12 -48 1 -19 13 -20 18 -9 32 10 12 10 14 1 8 -19 -11 -16 14 4 36 20 22 32
23 61 3z"/>
<path d="M3063 11569 c-17 -11 -38 -35 -48 -54 -17 -37 -25 -41 -42 -24 -15
15 -83 -18 -83 -40 0 -9 30 -68 65 -131 36 -63 85 -154 110 -202 25 -49 50
-88 56 -88 22 0 89 44 89 58 0 8 -31 72 -70 142 -38 70 -70 137 -70 148 0 41
20 72 59 91 53 27 56 36 36 82 -21 46 -50 51 -102 18z m87 -55 c0 -8 -7 -14
-15 -14 -50 0 -97 -69 -88 -129 4 -22 1 -37 -8 -43 -11 -8 -11 -9 2 -5 11 4
24 -11 45 -51 16 -32 31 -59 34 -62 3 -3 18 -29 34 -59 l29 -54 -23 -19 c-12
-10 -27 -18 -34 -18 -6 0 0 10 14 21 24 20 24 20 2 9 -20 -10 -26 -9 -38 7 -7
10 -14 21 -14 25 0 4 -16 34 -36 67 -21 35 -34 68 -30 76 3 9 2 14 -3 11 -12
-8 -53 63 -45 77 4 7 4 9 -1 5 -11 -10 -37 41 -28 55 3 5 2 7 -3 4 -6 -3 -15
3 -22 13 -10 16 -9 21 7 30 25 13 41 13 41 -1 0 -5 -4 -8 -8 -5 -4 2 -14 0
-22 -5 -11 -7 -8 -8 10 -5 18 2 31 -4 47 -23 l22 -26 1 33 c0 50 25 99 62 122
l33 20 18 -21 c9 -12 17 -27 17 -35z"/>
<path d="M3090 11540 c-8 -5 -10 -10 -5 -10 6 0 17 5 25 10 8 5 11 10 5 10 -5
0 -17 -5 -25 -10z"/>
<path d="M3115 11121 c-3 -5 -2 -12 3 -15 5 -3 9 1 9 9 0 17 -3 19 -12 6z"/>
<path d="M9059 11418 c-35 -62 -87 -156 -116 -208 -29 -52 -53 -99 -53 -105 0
-17 88 -61 99 -50 19 19 231 410 228 420 -3 10 -76 55 -89 55 -3 0 -34 -51
-69 -112z m109 64 c25 -19 26 -16 -40 -132 -14 -25 -34 -62 -45 -82 -11 -21
-22 -36 -25 -33 -2 2 -4 -5 -5 -16 -1 -10 -9 -26 -17 -34 -8 -8 -18 -25 -22
-38 -4 -12 -13 -32 -21 -43 -12 -19 -17 -21 -44 -11 -35 14 -35 13 29 124 25
45 51 79 56 76 5 -3 6 -1 2 5 -4 7 8 38 26 70 18 32 42 74 52 95 22 42 23 43
54 19z"/>
<path d="M9504 11390 c-40 -51 -60 -58 -96 -39 -18 10 -25 8 -40 -11 -24 -29
-23 -57 2 -70 11 -6 20 -14 20 -19 0 -5 -36 -66 -80 -136 -91 -145 -98 -175
-54 -232 34 -45 73 -63 134 -63 l51 0 -3 42 c-3 40 -5 43 -43 54 -22 6 -41 18
-43 26 -4 19 136 238 152 238 6 0 28 -11 48 -25 46 -31 62 -31 82 0 25 37 20
49 -33 84 l-50 32 41 65 42 66 -25 19 c-39 30 -62 24 -105 -31z m86 10 c0 -4
-16 -37 -35 -73 l-35 -67 42 -27 c24 -16 45 -31 46 -36 2 -4 8 -5 13 -1 5 3 4
-6 -3 -20 -11 -25 -12 -26 -37 -10 -51 33 -61 41 -56 45 2 3 -4 5 -15 6 -10 1
-24 -5 -31 -13 -9 -11 -14 -12 -19 -4 -5 8 -9 6 -13 -5 -4 -9 -3 -13 3 -10 20
12 9 -11 -54 -109 -35 -56 -65 -108 -67 -116 -5 -26 11 -59 32 -65 11 -4 16
-11 12 -18 -4 -7 1 -6 11 2 15 13 19 13 27 0 13 -20 6 -34 -20 -37 -17 -3 -21
0 -16 10 6 10 5 10 -5 1 -23 -22 -99 33 -114 83 -7 23 19 94 34 94 6 0 10 5
10 11 0 7 24 48 54 93 83 126 82 123 49 151 -37 33 -20 52 25 29 17 -8 36 -13
41 -10 5 4 11 2 13 -4 2 -6 9 0 17 12 13 21 13 22 -2 9 -12 -9 -17 -10 -17 -2
0 6 7 14 15 17 8 4 15 10 15 15 0 18 52 67 66 62 8 -3 14 -8 14 -13z"/>
<path d="M9509 11293 c-13 -16 -12 -17 4 -4 16 13 21 21 13 21 -2 0 -10 -8
-17 -17z"/>
<path d="M9360 11100 c-6 -11 -8 -20 -6 -20 3 0 10 9 16 20 6 11 8 20 6 20 -3
0 -10 -9 -16 -20z"/>
<path d="M9380 11090 c-6 -11 -8 -20 -6 -20 3 0 10 9 16 20 6 11 8 20 6 20 -3
0 -10 -9 -16 -20z"/>
<path d="M2541 11254 c-66 -33 -109 -88 -135 -171 -6 -18 -1 -25 24 -38 39
-20 63 -8 90 44 22 45 64 81 92 81 11 0 33 -13 49 -29 l29 -29 -73 -74 c-51
-51 -77 -85 -85 -113 -16 -55 -1 -105 44 -144 68 -60 169 -31 233 66 29 44 37
50 53 42 21 -11 78 16 78 38 0 19 -172 273 -206 305 -59 55 -114 61 -193 22z
m99 -16 c0 -10 3 -9 9 1 19 30 71 -21 167 -165 91 -136 109 -169 80 -145 -11
9 -16 9 -22 0 -4 -8 -3 -9 4 -5 7 4 12 2 12 -3 0 -19 -29 -12 -42 9 -18 28
-23 25 -36 -18 -17 -57 -73 -116 -123 -131 -29 -9 -44 -10 -47 -3 -2 6 -10 8
-17 5 -8 -3 -28 9 -45 25 -40 41 -41 91 -2 150 34 50 67 83 76 75 3 -4 6 2 6
11 0 12 5 16 16 12 8 -3 12 -2 9 4 -3 5 4 14 15 20 28 15 26 24 -16 70 -30 33
-43 40 -74 40 -48 0 -95 -37 -117 -91 -15 -40 -43 -53 -43 -21 0 14 -2 15 -10
2 -19 -30 -10 10 11 47 41 73 107 123 162 123 15 0 27 -6 27 -12z"/>
<path d="M2540 11210 c-9 -6 -10 -10 -3 -10 6 0 15 5 18 10 8 12 4 12 -15 0z"/>
<path d="M2730 11160 c0 -5 5 -10 11 -10 5 0 7 5 4 10 -3 6 -8 10 -11 10 -2 0
-4 -4 -4 -10z"/>
<path d="M2466 11133 c-6 -14 -5 -15 5 -6 7 7 10 15 7 18 -3 3 -9 -2 -12 -12z"/>
<path d="M2714 11045 c-12 -8 -25 -11 -29 -7 -5 4 -5 2 -2 -4 3 -6 -9 -26 -28
-44 -45 -43 -59 -78 -46 -113 6 -15 17 -30 26 -33 8 -3 13 -10 10 -14 -7 -11
55 4 85 21 14 7 29 12 33 11 5 -1 6 2 2 8 -3 5 0 19 8 31 11 15 16 17 21 7 3
-7 3 -1 0 15 -4 15 -2 27 4 27 10 0 11 31 2 40 -3 3 -16 20 -29 38 -25 36 -29
37 -57 17z m45 -46 c24 -39 13 -77 -31 -114 -46 -39 -98 -29 -98 18 0 15 94
127 107 127 2 0 12 -14 22 -31z"/>
<path d="M9953 11242 c-6 -4 -99 -122 -208 -262 -109 -140 -202 -261 -209
-269 -8 -10 -2 -21 29 -47 22 -19 45 -34 50 -34 6 0 57 61 114 135 l103 135
43 0 c32 0 52 -7 74 -26 56 -46 48 -64 -111 -268 -38 -47 -68 -90 -68 -95 0
-10 72 -61 86 -61 15 0 202 244 224 293 23 50 25 86 6 131 -18 44 -82 95 -129
103 -20 3 -40 9 -42 14 -3 4 24 46 60 93 36 46 65 90 65 98 -1 18 -73 68 -87
60z m-15 -167 c-43 -55 -78 -103 -78 -107 0 -5 18 -8 41 -8 45 0 112 -27 103
-41 -3 -5 1 -6 9 -3 22 8 57 -56 57 -105 0 -23 -6 -54 -14 -69 -21 -40 -77
-107 -87 -104 -5 1 -8 -4 -7 -10 2 -7 -3 -12 -10 -10 -8 1 -11 -2 -7 -8 6 -10
-65 -113 -87 -126 -4 -3 -20 4 -33 15 l-26 19 23 16 c12 9 19 16 15 16 -5 0 4
16 19 35 14 19 30 33 34 30 5 -3 12 0 16 6 5 8 3 9 -6 4 -8 -5 -11 -3 -8 6 3
8 11 13 17 11 7 -1 10 1 7 6 -5 8 13 35 57 86 16 17 18 18 13 3 -4 -11 -2 -16
5 -12 5 4 7 16 3 27 -3 11 -2 18 2 15 5 -3 10 14 12 38 2 34 -3 49 -23 74 -45
53 -141 68 -177 26 -11 -13 -26 -22 -31 -18 -6 3 -7 1 -3 -5 8 -13 -52 -94
-64 -87 -4 2 -7 -2 -7 -9 0 -19 -85 -128 -92 -118 -3 5 -14 11 -24 15 -21 8
-19 44 2 39 7 -1 10 2 6 7 -3 6 3 20 14 33 59 69 63 73 57 55 -4 -11 -2 -16 5
-12 6 4 8 14 5 22 -7 18 82 135 97 126 5 -3 7 -1 4 4 -4 6 16 39 44 74 28 35
55 72 60 82 6 10 14 15 19 12 5 -3 12 0 16 6 4 8 3 9 -4 5 -22 -13 -12 6 21
43 l32 37 26 -20 25 -21 -78 -100z"/>
<path d="M9930 11100 c-6 -11 -9 -20 -8 -20 2 0 11 9 21 20 9 11 13 20 7 20
-5 0 -14 -9 -20 -20z"/>
<path d="M9870 11025 c-7 -9 -8 -15 -2 -15 5 0 12 7 16 15 3 8 4 15 2 15 -2 0
-9 -7 -16 -15z"/>
<path d="M9745 10909 c-4 -6 -5 -12 -2 -15 2 -3 7 2 10 11 7 17 1 20 -8 4z"/>
<path d="M9710 10829 c0 -5 5 -7 10 -4 6 3 10 8 10 11 0 2 -4 4 -10 4 -5 0
-10 -5 -10 -11z"/>
<path d="M9636 10725 c-3 -8 -1 -15 4 -15 6 0 10 7 10 15 0 8 -2 15 -4 15 -2
0 -6 -7 -10 -15z"/>
<path d="M9610 10689 c0 -5 5 -7 10 -4 6 3 10 8 10 11 0 2 -4 4 -10 4 -5 0
-10 -5 -10 -11z"/>
<path d="M4630 11082 c0 -5 14 -7 30 -4 17 2 30 6 30 8 0 2 -13 4 -30 4 -16 0
-30 -4 -30 -8z"/>
<path d="M4863 11083 c9 -2 23 -2 30 0 6 3 -1 5 -18 5 -16 0 -22 -2 -12 -5z"/>
<path d="M7248 11083 c6 -2 18 -2 25 0 6 3 1 5 -13 5 -14 0 -19 -2 -12 -5z"/>
<path d="M4813 11063 c9 -2 23 -2 30 0 6 3 -1 5 -18 5 -16 0 -22 -2 -12 -5z"/>
<path d="M4973 11063 c9 -2 23 -2 30 0 6 3 -1 5 -18 5 -16 0 -22 -2 -12 -5z"/>
<path d="M7098 11063 c7 -3 16 -2 19 1 4 3 -2 6 -13 5 -11 0 -14 -3 -6 -6z"/>
<path d="M7185 11060 c-13 -5 -14 -9 -5 -9 8 0 24 4 35 9 13 5 14 9 5 9 -8 0
-24 -4 -35 -9z"/>
<path d="M7378 11063 c12 -2 32 -2 45 0 12 2 2 4 -23 4 -25 0 -35 -2 -22 -4z"/>
<path d="M4508 11053 c7 -3 16 -2 19 1 4 3 -2 6 -13 5 -11 0 -14 -3 -6 -6z"/>
<path d="M4608 11053 c6 -2 18 -2 25 0 6 3 1 5 -13 5 -14 0 -19 -2 -12 -5z"/>
<path d="M7618 11043 c7 -3 16 -2 19 1 4 3 -2 6 -13 5 -11 0 -14 -3 -6 -6z"/>
<path d="M4374 11005 c-10 -8 -14 -15 -8 -15 6 0 17 7 24 15 16 19 9 19 -16 0z"/>
<path d="M6918 11013 c7 -3 16 -2 19 1 4 3 -2 6 -13 5 -11 0 -14 -3 -6 -6z"/>
<path d="M6870 10999 c0 -5 5 -7 10 -4 6 3 10 8 10 11 0 2 -4 4 -10 4 -5 0
-10 -5 -10 -11z"/>
<path d="M2158 10975 c-16 -13 -28 -33 -28 -43 0 -10 25 -77 55 -147 31 -70
54 -130 51 -132 -2 -2 -58 30 -124 71 -66 42 -131 76 -144 76 -24 0 -68 -37
-68 -56 0 -5 25 -72 56 -148 30 -76 53 -140 52 -142 -2 -2 -58 33 -123 76 -66
44 -128 80 -138 80 -22 0 -87 -48 -87 -64 0 -6 19 -23 43 -37 23 -14 120 -74
215 -133 l172 -107 35 27 c19 14 35 35 35 46 0 10 -25 80 -56 155 -30 74 -54
137 -52 138 2 2 59 -32 128 -75 69 -44 134 -79 145 -79 11 0 33 11 49 25 35
31 39 17 -74 292 -59 145 -88 202 -99 202 -9 0 -28 -12 -43 -25z m62 -56 c18
-48 33 -86 56 -136 55 -125 94 -224 94 -236 0 -13 -32 -36 -50 -36 -8 -1 -26
8 -40 19 -14 11 -19 20 -12 20 6 0 12 5 12 10 0 6 -8 5 -19 -2 -16 -10 -23 -9
-38 3 -10 9 -40 28 -68 44 -27 16 -52 31 -55 34 -13 15 -92 62 -97 57 -6 -5 5
-38 32 -101 7 -16 30 -73 50 -125 20 -52 41 -103 45 -112 13 -23 -39 -66 -55
-46 -5 7 -16 14 -23 16 -11 2 -124 70 -277 167 -27 18 -58 36 -68 42 -16 8
-16 11 -3 22 11 9 20 10 36 1 11 -6 20 -7 19 -3 -4 23 4 23 35 -1 19 -14 37
-26 40 -26 3 0 26 -14 51 -32 32 -23 42 -34 32 -41 -8 -6 -6 -7 7 -3 22 8 89
-31 80 -46 -5 -7 -2 -8 5 -4 7 5 21 0 32 -10 31 -28 31 -11 -1 62 -17 38 -35
78 -40 89 -27 62 -70 179 -70 191 0 8 5 14 11 14 5 0 8 4 5 9 -3 5 1 12 10 15
23 9 170 -84 152 -96 -9 -7 -8 -8 5 -4 21 7 61 -17 49 -29 -4 -5 -2 -5 5 -2 6
4 35 -9 64 -28 49 -32 69 -41 69 -31 0 2 -17 42 -38 88 -114 247 -117 256 -97
278 25 28 36 21 55 -31z m-470 -339 c0 -5 -4 -10 -10 -10 -5 0 -10 5 -10 10 0
6 5 10 10 10 6 0 10 -4 10 -10z"/>
<path d="M2260 10758 c0 -9 5 -20 10 -23 13 -8 13 5 0 25 -8 13 -10 13 -10 -2z"/>
<path d="M1969 10743 c-13 -16 -12 -17 4 -4 16 13 21 21 13 21 -2 0 -10 -8
-17 -17z"/>
<path d="M1961 10685 c1 -19 18 -51 18 -35 0 8 -4 22 -9 30 -5 8 -9 11 -9 5z"/>
<path d="M2130 10636 c0 -2 7 -7 16 -10 8 -3 12 -2 9 4 -6 10 -25 14 -25 6z"/>
<path d="M2195 10600 c3 -5 11 -10 16 -10 6 0 7 5 4 10 -3 6 -11 10 -16 10 -6
0 -7 -4 -4 -10z"/>
<path d="M1960 10396 c0 -3 9 -10 19 -16 15 -7 22 -7 27 2 4 7 4 10 -1 6 -4
-4 -16 -3 -26 3 -11 5 -19 7 -19 5z"/>
<path d="M4306 10971 c-4 -5 3 -7 14 -4 23 6 26 13 6 13 -8 0 -17 -4 -20 -9z"/>
<path d="M6745 10940 c-3 -5 -1 -10 4 -10 6 0 11 5 11 10 0 6 -2 10 -4 10 -3
0 -8 -4 -11 -10z"/>
<path d="M5378 10933 c7 -3 16 -2 19 1 4 3 -2 6 -13 5 -11 0 -14 -3 -6 -6z"/>
<path d="M6690 10930 c-8 -5 -10 -10 -5 -10 6 0 17 5 25 10 8 5 11 10 5 10 -5
0 -17 -5 -25 -10z"/>
<path d="M4298 10913 c7 -3 16 -2 19 1 4 3 -2 6 -13 5 -11 0 -14 -3 -6 -6z"/>
<path d="M7874 10905 c8 -8 18 -15 22 -15 3 0 1 7 -6 15 -7 8 -17 15 -22 15
-5 0 -3 -7 6 -15z"/>
<path d="M5464 10896 c11 -9 24 -16 30 -16 12 0 7 5 -24 19 -24 11 -24 11 -6
-3z"/>
<path d="M6635 10900 c-3 -6 1 -7 9 -4 18 7 21 14 7 14 -6 0 -13 -4 -16 -10z"/>
<path d="M4135 10840 c-10 -11 -15 -23 -12 -27 4 -3 7 -1 7 5 0 7 5 12 11 12
6 0 8 -7 5 -17 -4 -10 -3 -14 1 -9 6 6 13 56 8 56 -1 0 -10 -9 -20 -20z"/>
<path d="M5540 10856 c0 -2 7 -7 16 -10 8 -3 12 -2 9 4 -6 10 -25 14 -25 6z"/>
<path d="M7955 10840 c10 -11 20 -20 23 -20 3 0 -3 9 -13 20 -10 11 -20 20
-23 20 -3 0 3 -9 13 -20z"/>
<path d="M5680 10777 c0 -3 12 -12 26 -22 15 -9 23 -12 20 -6 -7 11 -46 35
-46 28z"/>
<path d="M4898 10703 c7 -3 16 -2 19 1 4 3 -2 6 -13 5 -11 0 -14 -3 -6 -6z"/>
<path d="M7208 10703 c7 -3 16 -2 19 1 4 3 -2 6 -13 5 -11 0 -14 -3 -6 -6z"/>
<path d="M5805 10690 c3 -5 8 -10 11 -10 2 0 4 5 4 10 0 6 -5 10 -11 10 -5 0
-7 -4 -4 -10z"/>
<path d="M7110 10690 c-8 -5 -10 -10 -5 -10 6 0 17 5 25 10 8 5 11 10 5 10 -5
0 -17 -5 -25 -10z"/>
<path d="M8080 10692 c0 -6 12 -24 26 -39 l26 -28 -23 35 c-29 46 -29 45 -29
32z"/>
<path d="M4015 10680 c-3 -5 -1 -10 4 -10 6 0 11 5 11 10 0 6 -2 10 -4 10 -3
0 -8 -4 -11 -10z"/>
<path d="M4620 10680 c-20 -6 -21 -8 -5 -8 11 0 29 3 40 8 25 11 -1 11 -35 0z"/>
<path d="M7418 10683 c7 -3 16 -2 19 1 4 3 -2 6 -13 5 -11 0 -14 -3 -6 -6z"/>
<path d="M4958 10673 c7 -3 16 -2 19 1 4 3 -2 6 -13 5 -11 0 -14 -3 -6 -6z"/>
<path d="M5055 10670 c3 -5 11 -10 16 -10 6 0 7 5 4 10 -3 6 -11 10 -16 10 -6
0 -7 -4 -4 -10z"/>
<path d="M6275 10670 c3 -5 11 -10 16 -10 6 0 7 5 4 10 -3 6 -11 10 -16 10 -6
0 -7 -4 -4 -10z"/>
<path d="M7158 10673 c7 -3 16 -2 19 1 4 3 -2 6 -13 5 -11 0 -14 -3 -6 -6z"/>
<path d="M5003 10663 c9 -2 23 -2 30 0 6 3 -1 5 -18 5 -16 0 -22 -2 -12 -5z"/>
<path d="M6229 10653 c-13 -16 -12 -17 4 -4 16 13 21 21 13 21 -2 0 -10 -8
-17 -17z"/>
<path d="M7098 10663 c6 -2 18 -2 25 0 6 3 1 5 -13 5 -14 0 -19 -2 -12 -5z"/>
<path d="M7518 10663 c7 -3 16 -2 19 1 4 3 -2 6 -13 5 -11 0 -14 -3 -6 -6z"/>
<path d="M5845 10650 c-3 -6 1 -7 9 -4 18 7 21 14 7 14 -6 0 -13 -4 -16 -10z"/>
<path d="M5188 10633 c7 -3 16 -2 19 1 4 3 -2 6 -13 5 -11 0 -14 -3 -6 -6z"/>
<path d="M5148 10623 c7 -3 16 -2 19 1 4 3 -2 6 -13 5 -11 0 -14 -3 -6 -6z"/>
<path d="M5890 10620 c0 -5 5 -10 11 -10 5 0 7 5 4 10 -3 6 -8 10 -11 10 -2 0
-4 -4 -4 -10z"/>
<path d="M6800 10621 c0 -5 7 -12 16 -15 14 -5 15 -4 4 9 -14 17 -20 19 -20 6z"/>
<path d="M6856 10621 c-3 -4 6 -6 19 -3 14 2 25 6 25 8 0 8 -39 4 -44 -5z"/>
<path d="M7666 10615 c10 -8 23 -15 28 -15 6 0 1 7 -10 15 -10 8 -23 15 -28
15 -6 0 -1 -7 10 -15z"/>
<path d="M7715 10620 c3 -5 8 -10 11 -10 2 0 4 5 4 10 0 6 -5 10 -11 10 -5 0
-7 -4 -4 -10z"/>
<path d="M4425 10610 c-3 -6 1 -7 9 -4 18 7 21 14 7 14 -6 0 -13 -4 -16 -10z"/>
<path d="M5180 10616 c0 -2 7 -7 16 -10 8 -3 12 -2 9 4 -6 10 -25 14 -25 6z"/>
<path d="M5260 10610 c0 -5 5 -10 10 -10 6 0 10 5 10 10 0 6 -4 10 -10 10 -5
0 -10 -4 -10 -10z"/>
<path d="M5920 10612 c0 -13 50 -45 58 -38 3 3 1 6 -4 6 -6 0 -20 9 -32 20
-12 12 -22 17 -22 12z"/>
<path d="M8130 10611 c0 -6 4 -13 10 -16 6 -3 7 1 4 9 -7 18 -14 21 -14 7z"/>
<path d="M3960 10599 c0 -5 5 -7 10 -4 6 3 10 8 10 11 0 2 -4 4 -10 4 -5 0
-10 -5 -10 -11z"/>
<path d="M7717 10589 c7 -7 15 -10 18 -7 3 3 -2 9 -12 12 -14 6 -15 5 -6 -5z"/>
<path d="M5258 10583 c7 -3 16 -2 19 1 4 3 -2 6 -13 5 -11 0 -14 -3 -6 -6z"/>
<path d="M6121 10571 c-10 -7 -7 -9 12 -8 14 1 23 5 20 10 -6 9 -15 9 -32 -2z"/>
<path d="M8150 10570 c0 -5 5 -10 11 -10 5 0 7 5 4 10 -3 6 -8 10 -11 10 -2 0
-4 -4 -4 -10z"/>
<path d="M4335 10560 c-3 -5 -1 -10 4 -10 6 0 11 5 11 10 0 6 -2 10 -4 10 -3
0 -8 -4 -11 -10z"/>
<path d="M6703 10550 c-32 -13 -29 -22 4 -9 17 6 28 6 32 0 4 -6 12 -6 21 -1
9 6 10 10 3 10 -6 0 -17 2 -25 4 -7 3 -23 1 -35 -4z"/>
<path d="M3935 10540 c-3 -5 -1 -10 4 -10 6 0 11 5 11 10 0 6 -2 10 -4 10 -3
0 -8 -4 -11 -10z"/>
<path d="M6095 10540 c-3 -5 -1 -10 4 -10 6 0 11 5 11 10 0 6 -2 10 -4 10 -3
0 -8 -4 -11 -10z"/>
<path d="M4278 10519 c-10 -10 -14 -19 -10 -19 5 0 17 9 27 20 10 11 14 20 9
19 -5 0 -17 -9 -26 -20z"/>
<path d="M5375 10530 c3 -5 11 -10 16 -10 6 0 7 5 4 10 -3 6 -11 10 -16 10 -6
0 -7 -4 -4 -10z"/>
<path d="M8177 10519 c4 -13 8 -18 11 -10 2 7 -1 18 -6 23 -8 8 -9 4 -5 -13z"/>
<path d="M6710 10520 c-9 -6 -10 -10 -3 -10 6 0 15 5 18 10 8 12 4 12 -15 0z"/>
<path d="M6604 10464 c-18 -14 -18 -15 4 -4 12 6 22 13 22 15 0 8 -5 6 -26
-11z"/>
<path d="M7860 10477 c0 -2 15 -16 33 -33 l32 -29 -29 33 c-28 30 -36 37 -36
29z"/>
<path d="M8203 10456 c7 -14 13 -23 15 -21 7 6 -9 45 -18 45 -4 0 -3 -11 3
-24z"/>
<path d="M5572 10454 c10 -10 20 -16 22 -13 3 3 -5 11 -17 18 -21 13 -21 12
-5 -5z"/>
<path d="M10705 10454 c-16 -8 -39 -24 -51 -35 -26 -24 -36 -24 -52 1 -15 25
-34 25 -55 2 -20 -22 -21 -45 -4 -73 11 -19 1 -31 -125 -154 -76 -74 -138
-138 -138 -143 0 -12 64 -72 76 -72 6 0 72 59 147 131 l137 131 39 -43 c39
-43 40 -44 67 -29 53 29 53 45 4 95 l-45 46 28 25 c36 31 60 30 101 -1 39 -30
56 -31 86 -7 21 17 22 20 7 48 -41 80 -147 117 -222 78z m126 -25 c34 -15 48
-26 45 -36 -3 -8 -2 -11 4 -8 5 3 14 -3 19 -14 8 -14 7 -22 -3 -30 -11 -9 -21
-6 -44 14 -37 31 -82 33 -127 5 -46 -28 -51 -48 -20 -80 14 -14 22 -30 18 -34
-5 -4 -1 -6 7 -4 8 2 14 -3 13 -9 -2 -7 5 -13 14 -13 14 0 13 -3 -5 -16 -18
-12 -26 -13 -37 -4 -18 15 -20 34 -2 24 8 -5 8 -2 -2 9 -15 18 -26 23 -16 7 3
-5 2 -10 -4 -10 -14 0 -32 35 -23 45 4 4 -4 4 -18 0 -14 -4 -34 -17 -45 -29
-11 -12 -71 -71 -132 -130 l-112 -109 -24 23 -24 24 34 35 c28 29 36 33 45 21
8 -12 9 -11 4 4 -7 20 40 70 56 60 5 -3 7 0 6 8 -2 7 3 12 10 10 8 -1 11 2 8
6 -3 5 19 33 49 61 70 66 71 68 45 96 -19 21 -21 27 -10 40 7 9 16 12 19 8 3
-4 16 -16 27 -26 21 -18 23 -18 55 11 38 33 87 61 107 62 7 0 36 -10 63 -21z"/>
<path d="M10565 10230 c-3 -6 1 -7 9 -4 18 7 21 14 7 14 -6 0 -13 -4 -16 -10z"/>
<path d="M10439 10113 c-13 -16 -12 -17 4 -4 9 7 17 15 17 17 0 8 -8 3 -21
-13z"/>
<path d="M3886 10445 c-9 -26 -7 -32 5 -12 6 10 9 21 6 23 -2 3 -7 -2 -11 -11z"/>
<path d="M5510 10455 c0 -2 18 -14 40 -25 22 -11 40 -18 40 -15 0 2 -18 14
-40 25 -22 11 -40 18 -40 15z"/>
<path d="M6525 10450 c-3 -5 -2 -10 4 -10 5 0 13 5 16 10 3 6 2 10 -4 10 -5 0
-13 -4 -16 -10z"/>
<path d="M8180 10435 c0 -8 4 -15 10 -15 5 0 7 7 4 15 -4 8 -8 15 -10 15 -2 0
-4 -7 -4 -15z"/>
<path d="M1312 10417 c-31 -33 -28 -50 18 -108 22 -28 40 -54 40 -59 0 -4 -9
-18 -20 -32 -17 -23 -18 -27 -4 -46 18 -26 50 -28 76 -5 18 16 22 13 91 -53
148 -144 162 -154 211 -154 37 0 52 6 82 32 39 35 64 82 64 122 0 26 -16 36
-60 36 -24 0 -30 -6 -40 -35 -18 -56 -42 -46 -149 59 l-95 94 43 47 43 47 -28
29 c-15 16 -32 29 -38 29 -6 0 -29 -19 -53 -42 l-42 -42 -55 52 c-30 29 -57
52 -59 52 -2 0 -13 -10 -25 -23z m153 -103 c8 10 19 15 26 10 8 -4 10 -3 5 5
-7 11 39 61 57 61 12 0 8 -18 -5 -24 -7 -3 -2 -3 12 0 l25 6 -24 -25 c-13 -15
-28 -24 -34 -20 -6 3 -7 1 -4 -4 4 -6 -2 -18 -13 -28 -11 -10 -20 -22 -20 -27
0 -8 96 -104 140 -139 20 -17 22 -22 10 -31 -13 -8 -12 -9 1 -5 9 3 27 -4 38
-15 22 -20 81 -42 90 -33 2 3 -2 5 -9 5 -7 0 -1 9 14 21 14 11 26 29 26 40 0
16 4 19 23 13 30 -9 32 -11 17 -29 -7 -8 -9 -15 -6 -15 4 0 -1 -13 -11 -30 -9
-16 -21 -30 -26 -30 -4 0 -5 5 -1 12 4 7 3 8 -4 4 -6 -4 -8 -14 -5 -23 4 -11
3 -14 -5 -9 -7 4 -12 3 -12 -3 0 -17 -43 -23 -74 -11 -16 6 -61 41 -100 79
-39 37 -92 87 -117 110 l-47 42 -20 -28 c-17 -24 -22 -26 -36 -14 -9 8 -13 17
-9 20 4 3 14 18 22 33 12 23 11 29 -5 52 -11 14 -22 26 -26 26 -5 0 -8 5 -8
10 0 6 3 9 8 9 31 -5 45 14 18 24 -10 4 -13 1 -10 -7 7 -19 -23 -15 -42 5 -13
14 -13 22 -4 39 12 22 14 21 72 -36 55 -55 60 -58 73 -40z"/>
<path d="M1550 10136 c0 -2 8 -10 18 -17 15 -13 16 -12 3 4 -13 16 -21 21 -21
13z"/>
<path d="M4186 10424 c-5 -14 -4 -15 9 -4 17 14 19 20 6 20 -5 0 -12 -7 -15
-16z"/>
<path d="M3877 10399 c7 -7 15 -10 18 -7 3 3 -2 9 -12 12 -14 6 -15 5 -6 -5z"/>
<path d="M5668 10381 c-14 -17 -14 -20 -2 -25 9 -3 12 -1 9 4 -3 6 -2 10 3 10
5 0 9 7 9 15 0 19 1 19 -19 -4z"/>
<path d="M5735 10390 c3 -5 8 -10 11 -10 2 0 4 5 4 10 0 6 -5 10 -11 10 -5 0
-7 -4 -4 -10z"/>
<path d="M6425 10389 c-4 -6 -4 -13 -1 -16 3 -4 6 -1 6 5 0 6 8 13 18 15 15 4
15 5 0 6 -9 0 -20 -4 -23 -10z"/>
<path d="M6480 10390 c-8 -5 -12 -11 -10 -14 3 -2 14 2 24 10 22 15 10 19 -14
4z"/>
<path d="M3861 10364 c0 -11 3 -14 6 -6 3 7 2 16 -1 19 -3 4 -6 -2 -5 -13z"/>
<path d="M4136 10363 c-6 -14 -5 -15 5 -6 7 7 10 15 7 18 -3 3 -9 -2 -12 -12z"/>
<path d="M6423 10353 c-13 -8 -23 -21 -23 -27 0 -7 3 -8 8 0 4 5 18 18 32 27
13 9 20 17 15 16 -6 0 -20 -7 -32 -16z"/>
<path d="M3891 10344 c0 -11 3 -14 6 -6 3 7 2 16 -1 19 -3 4 -6 -2 -5 -13z"/>
<path d="M8246 10324 c-4 -9 -4 -19 -1 -22 3 -3 5 0 5 7 0 7 4 9 10 6 6 -3 7
1 4 9 -8 20 -10 20 -18 0z"/>
<path d="M5745 10300 c3 -5 8 -10 11 -10 2 0 4 5 4 10 0 6 -5 10 -11 10 -5 0
-7 -4 -4 -10z"/>
<path d="M6350 10300 c-8 -5 -10 -10 -5 -10 6 0 17 5 25 10 8 5 11 10 5 10 -5
0 -17 -5 -25 -10z"/>
<path d="M4087 10283 c3 -7 6 -13 8 -13 2 0 5 6 8 13 3 8 -1 14 -8 14 -7 0
-11 -6 -8 -14z"/>
<path d="M3831 10283 c-1 -6 -4 -20 -7 -30 -5 -17 -5 -17 6 0 6 10 9 23 6 30
-3 9 -5 9 -5 0z"/>
<path d="M8016 10277 c3 -10 9 -15 12 -12 3 3 0 11 -7 18 -10 9 -11 8 -5 -6z"/>
<path d="M6320 10271 c0 -5 7 -15 17 -22 15 -13 15 -12 4 9 -12 23 -21 28 -21
13z"/>
<path d="M8281 10234 c0 -11 3 -14 6 -6 3 7 2 16 -1 19 -3 4 -6 -2 -5 -13z"/>
<path d="M8045 10210 c9 -16 18 -30 21 -30 2 0 -2 14 -11 30 -9 17 -18 30 -21
30 -2 0 2 -13 11 -30z"/>
<path d="M3805 10184 c-3 -21 -2 -40 3 -43 5 -3 12 -15 15 -26 4 -19 5 -18 6
2 0 12 -4 25 -9 28 -6 4 -8 21 -4 41 3 19 4 34 1 34 -3 0 -8 -16 -12 -36z"/>
<path d="M5714 10198 l-19 -23 23 19 c21 18 27 26 19 26 -2 0 -12 -10 -23 -22z"/>
<path d="M6365 10210 c3 -5 11 -10 16 -10 6 0 7 5 4 10 -3 6 -11 10 -16 10 -6
0 -7 -4 -4 -10z"/>
<path d="M1033 10178 c-43 -46 -53 -70 -53 -123 0 -52 16 -89 54 -124 30 -28
32 -43 11 -61 -22 -18 -18 -35 12 -55 25 -17 28 -17 59 0 l33 18 140 -117 c78
-64 147 -116 155 -116 14 0 66 61 66 79 0 5 -65 64 -145 129 l-144 120 34 43
c41 52 42 59 12 87 -34 32 -49 28 -87 -23 -19 -25 -37 -45 -40 -45 -9 0 -35
30 -50 58 -10 20 -8 29 14 63 32 47 32 53 4 79 -29 27 -39 26 -75 -12z m42 -8
c-3 -6 1 -7 9 -4 21 8 20 -2 -4 -42 -23 -36 -25 -125 -4 -117 6 2 14 -3 17
-11 3 -8 20 -22 38 -31 17 -9 29 -13 26 -8 -3 5 12 28 33 52 33 37 42 42 55
31 13 -11 13 -15 -4 -39 -11 -14 -28 -36 -40 -47 -25 -27 -22 -31 89 -120 47
-37 94 -75 105 -85 11 -10 35 -30 52 -44 31 -25 32 -27 17 -51 -9 -13 -20 -24
-24 -24 -7 0 -120 89 -140 110 -3 3 -27 23 -55 45 -27 22 -58 49 -69 59 -27
27 -64 29 -71 5 -7 -20 -30 -26 -40 -9 -3 6 3 22 15 37 13 17 17 30 11 36 -5
5 -7 17 -4 26 4 13 3 13 -5 2 -8 -11 -14 -9 -35 10 -61 57 -63 142 -4 207 20
22 44 31 32 12z"/>
<path d="M1016 10093 c-6 -14 -5 -15 5 -6 7 7 10 15 7 18 -3 3 -9 -2 -12 -12z"/>
<path d="M1330 9736 c0 -2 8 -10 18 -17 15 -13 16 -12 3 4 -13 16 -21 21 -21
13z"/>
<path d="M1407 9669 c7 -7 15 -10 18 -7 3 3 -2 9 -12 12 -14 6 -15 5 -6 -5z"/>
<path d="M4000 10201 c0 -5 7 -14 15 -21 12 -10 15 -10 15 3 0 8 -7 17 -15 21
-8 3 -15 2 -15 -3z"/>
<path d="M5733 10185 l-22 -23 22 2 c15 1 23 8 23 23 1 13 1 23 0 22 0 0 -11
-11 -23 -24z"/>
<path d="M8292 10190 c0 -14 2 -19 5 -12 2 6 2 18 0 25 -3 6 -5 1 -5 -13z"/>
<path d="M6350 10170 c0 -5 5 -10 10 -10 6 0 10 5 10 10 0 6 -4 10 -10 10 -5
0 -10 -4 -10 -10z"/>
<path d="M5670 10159 c0 -5 5 -7 10 -4 6 3 10 8 10 11 0 2 -4 4 -10 4 -5 0
-10 -5 -10 -11z"/>
<path d="M4017 10133 c-4 -3 -7 -13 -7 -22 1 -13 3 -13 11 2 11 19 8 33 -4 20z"/>
<path d="M5635 10120 c-10 -11 -16 -22 -13 -25 3 -3 13 6 22 20 20 30 16 32
-9 5z"/>
<path d="M6450 10131 c0 -5 5 -13 10 -16 6 -3 10 -2 10 4 0 5 -4 13 -10 16 -5
3 -10 2 -10 -4z"/>
<path d="M8117 10119 c4 -13 8 -18 11 -10 2 7 -1 18 -6 23 -8 8 -9 4 -5 -13z"/>
<path d="M8151 10124 c0 -11 3 -14 6 -6 3 7 2 16 -1 19 -3 4 -6 -2 -5 -13z"/>
<path d="M3785 10085 c-3 -26 -4 -49 -2 -51 3 -3 8 16 12 41 3 26 4 49 2 51
-3 3 -8 -16 -12 -41z"/>
<path d="M5657 10104 c-10 -13 -13 -24 -8 -24 10 0 36 39 29 45 -2 2 -11 -8
-21 -21z"/>
<path d="M6409 10111 c-31 -20 -132 -93 -139 -101 -3 -3 -27 -21 -53 -40 -26
-19 -46 -39 -45 -46 2 -6 42 -54 90 -105 154 -167 167 -183 246 -281 75 -94
108 -121 121 -100 11 18 143 83 158 78 8 -3 12 -2 8 3 -3 5 30 12 72 16 43 3
84 7 92 8 16 2 -38 78 -190 263 -116 141 -158 179 -189 171 -22 -6 -35 7 -25
23 5 8 12 7 22 -2 15 -12 15 -11 3 9 -13 20 -15 20 -26 5 -7 -9 -14 -15 -16
-12 -52 67 -66 88 -61 94 3 3 13 0 22 -7 14 -11 14 -10 2 6 -8 10 -19 16 -25
14 -6 -3 -18 1 -26 8 -12 10 -20 9 -41 -4z m191 -145 c0 -3 -4 -8 -10 -11 -5
-3 -10 -1 -10 4 0 6 5 11 10 11 6 0 10 -2 10 -4z"/>
<path d="M8102 10085 c0 -11 3 -29 8 -40 11 -25 11 1 0 35 -6 20 -8 21 -8 5z"/>
<path d="M6522 10050 c7 -11 17 -20 22 -20 5 0 1 9 -9 20 -10 11 -20 20 -22
20 -2 0 2 -9 9 -20z"/>
<path d="M10810 9985 c-131 -106 -195 -174 -204 -216 -14 -72 47 -174 120
-201 28 -10 34 -17 30 -32 -6 -24 30 -86 50 -86 14 0 366 279 379 300 3 5 -11
28 -32 50 l-38 41 -137 -110 -137 -109 -36 11 c-42 13 -85 59 -85 91 0 30 22
52 158 161 61 49 112 96 112 104 0 19 -48 81 -63 80 -7 0 -59 -38 -117 -84z
m140 -12 c-13 -9 -48 -37 -78 -60 -29 -24 -58 -41 -64 -37 -6 4 -8 3 -5 -3 4
-6 -1 -17 -11 -25 -20 -17 -66 -22 -56 -6 4 7 2 8 -5 4 -17 -11 -2 -29 18 -21
9 3 1 -9 -17 -28 -29 -30 -33 -40 -31 -81 2 -26 9 -52 16 -57 7 -6 11 -15 8
-18 -2 -4 1 -8 8 -9 7 0 30 -7 52 -16 22 -8 48 -15 58 -16 14 0 82 44 107 70
30 31 170 138 173 132 6 -9 2 -39 -8 -69 -4 -12 -35 -43 -68 -69 -34 -26 -88
-70 -119 -97 -32 -27 -58 -46 -58 -42 0 3 -10 -6 -23 -20 -23 -28 -63 -26 -53
2 3 8 1 11 -4 8 -19 -11 -10 8 12 26 24 22 19 32 -20 37 -31 4 -112 49 -112
62 0 5 -7 16 -16 24 -8 9 -17 35 -19 59 -3 35 2 53 27 91 20 30 36 45 45 42 8
-3 12 -2 9 3 -5 8 38 46 169 148 l40 32 25 -25 25 -24 -25 -17z m199 -229 c-6
-8 -16 -14 -21 -14 -6 0 -5 6 2 15 6 8 8 20 4 27 -6 10 -3 9 9 -1 13 -10 15
-17 6 -27z"/>
<path d="M10899 9963 c-13 -17 -13 -17 6 -3 11 8 22 16 24 17 2 2 0 3 -6 3 -6
0 -17 -8 -24 -17z"/>
<path d="M10754 9885 c-10 -8 -14 -15 -8 -15 6 0 17 7 24 15 16 19 9 19 -16 0z"/>
<path d="M11036 9687 c3 -10 9 -15 12 -12 3 3 0 11 -7 18 -10 9 -11 8 -5 -6z"/>
<path d="M10885 9590 c-3 -6 1 -7 9 -4 18 7 21 14 7 14 -6 0 -13 -4 -16 -10z"/>
<path d="M10900 9569 c-22 -18 -22 -19 -3 -10 12 6 25 16 28 21 9 15 3 12 -25
-11z"/>
<path d="M10820 9510 c-9 -6 -10 -10 -3 -10 6 0 15 5 18 10 8 12 4 12 -15 0z"/>
<path d="M5570 10049 c0 -5 5 -7 10 -4 6 3 10 8 10 11 0 2 -4 4 -10 4 -5 0
-10 -5 -10 -11z"/>
<path d="M8321 10044 c0 -11 3 -14 6 -6 3 7 2 16 -1 19 -3 4 -6 -2 -5 -13z"/>
<path d="M8141 10034 c0 -11 3 -14 6 -6 3 7 2 16 -1 19 -3 4 -6 -2 -5 -13z"/>
<path d="M3976 10028 c-3 -7 -4 -20 -4 -28 0 -8 -3 -26 -7 -40 l-6 -25 12 25
c6 14 12 37 13 53 2 28 -2 36 -8 15z"/>
<path d="M5547 10023 c-4 -3 -7 -11 -7 -17 0 -6 5 -5 12 2 6 6 9 14 7 17 -3 3
-9 2 -12 -2z"/>
<path d="M3931 9994 c0 -11 3 -14 6 -6 3 7 2 16 -1 19 -3 4 -6 -2 -5 -13z"/>
<path d="M8332 9970 c0 -14 2 -19 5 -12 2 6 2 18 0 25 -3 6 -5 1 -5 -13z"/>
<path d="M5956 9964 c-11 -7 -17 -17 -13 -20 3 -4 14 1 23 10 21 22 15 28 -10
10z"/>
<path d="M6146 9957 c3 -10 9 -15 12 -12 3 3 0 11 -7 18 -10 9 -11 8 -5 -6z"/>
<path d="M3941 9934 c0 -11 3 -14 6 -6 3 7 2 16 -1 19 -3 4 -6 -2 -5 -13z"/>
<path d="M8343 9870 c0 -41 2 -58 4 -37 2 20 2 54 0 75 -2 20 -4 3 -4 -38z"/>
<path d="M5925 9920 c-3 -5 -12 -7 -20 -3 -8 3 -15 3 -15 0 0 -13 30 -14 40
-1 7 8 10 14 7 14 -3 0 -8 -4 -12 -10z"/>
<path d="M3946 9895 c-3 -9 -6 -26 -5 -38 1 -16 4 -12 10 12 10 34 6 55 -5 26z"/>
<path d="M5860 9900 c0 -5 5 -10 11 -10 8 0 8 -5 -1 -15 -15 -18 -5 -20 14 -3
11 10 11 15 0 25 -15 16 -24 17 -24 3z"/>
<path d="M5401 9859 c-18 -22 -30 -43 -27 -46 3 -3 8 2 12 11 5 13 9 14 20 5
10 -8 14 -8 14 0 0 6 -5 11 -12 11 -7 0 -6 6 4 18 8 9 18 23 22 30 14 24 -1
11 -33 -29z"/>
<path d="M8321 9854 c0 -11 3 -14 6 -6 3 7 2 16 -1 19 -3 4 -6 -2 -5 -13z"/>
<path d="M5829 9830 c-23 -17 -85 -90 -77 -90 2 0 27 25 56 55 58 59 61 65 21
35z"/>
<path d="M3932 9795 c0 -16 2 -22 5 -12 2 9 2 23 0 30 -3 6 -5 -1 -5 -18z"/>
<path d="M5338 9785 c-17 -22 -17 -22 14 -19 34 4 58 20 57 38 0 7 -2 6 -6 -1
-5 -15 -40 -17 -45 -4 -1 5 -11 -1 -20 -14z"/>
<path d="M8180 9785 c7 -9 15 -13 17 -11 7 7 -7 26 -19 26 -6 0 -6 -6 2 -15z"/>
<path d="M8350 9758 c0 -40 -10 -79 -19 -74 -3 2 -4 -17 -1 -42 l4 -47 7 45 6
45 1 -42 c1 -24 6 -43 10 -43 5 0 6 20 2 45 -4 25 -5 68 -2 95 2 28 2 50 -2
50 -3 0 -6 -15 -6 -32z"/>
<path d="M5704 9746 c-10 -8 -16 -17 -13 -20 3 -3 14 3 24 14 21 23 17 26 -11
6z"/>
<path d="M8177 9738 c2 -13 8 -32 13 -43 5 -11 11 -27 13 -35 3 -8 6 0 6 18 1
20 -3 31 -9 27 -6 -4 -10 7 -10 24 0 17 -4 31 -9 31 -5 0 -7 -10 -4 -22z"/>
<path d="M5300 9725 c0 -8 2 -15 4 -15 2 0 6 7 10 15 3 8 1 15 -4 15 -6 0 -10
-7 -10 -15z"/>
<path d="M8220 9711 c0 -17 4 -32 8 -35 4 -2 6 11 4 30 -5 42 -12 45 -12 5z"/>
<path d="M5709 9701 c-12 -17 -27 -27 -32 -24 -6 4 -7 1 -2 -6 5 -9 16 -4 38
18 16 18 27 34 24 37 -3 3 -15 -8 -28 -25z"/>
<path d="M3742 9700 c0 -14 2 -19 5 -12 2 6 2 18 0 25 -3 6 -5 1 -5 -13z"/>
<path d="M5258 9682 c-9 -15 -29 -41 -45 -57 -15 -16 -21 -25 -13 -20 29 16
60 49 60 64 0 13 2 13 9 2 6 -9 9 -5 9 13 0 14 -1 26 -2 26 -1 0 -9 -13 -18
-28z"/>
<path d="M5325 9700 c-3 -5 1 -10 9 -10 9 0 16 5 16 10 0 6 -4 10 -9 10 -6 0
-13 -4 -16 -10z"/>
<path d="M5630 9655 c-7 -9 -11 -17 -8 -20 2 -2 12 4 21 15 9 11 13 20 8 20
-5 0 -14 -7 -21 -15z"/>
<path d="M5650 9635 c-7 -9 -10 -18 -7 -21 3 -3 10 4 17 15 13 25 8 27 -10 6z"/>
<path d="M3742 9620 c0 -14 2 -19 5 -12 2 6 2 18 0 25 -3 6 -5 1 -5 -13z"/>
<path d="M5260 9625 c0 -8 4 -15 10 -15 5 0 7 7 4 15 -4 8 -8 15 -10 15 -2 0
-4 -7 -4 -15z"/>
<path d="M885 9608 c-48 -17 -92 -55 -121 -104 -59 -101 -52 -191 23 -274 136
-151 329 -141 417 21 43 78 42 157 -2 226 -70 110 -211 168 -317 131z m180
-43 c21 -11 57 -37 78 -58 32 -32 38 -44 33 -65 -5 -20 -4 -23 3 -12 15 22 23
6 29 -50 4 -40 -1 -60 -23 -105 -28 -58 -86 -112 -106 -99 -7 4 -9 3 -5 -4 16
-27 -100 -32 -160 -7 -54 22 -126 84 -120 102 3 8 2 11 -4 8 -19 -12 -43 64
-37 120 7 65 25 105 38 84 6 -10 8 -7 7 11 -2 16 2 24 10 22 8 -1 11 1 8 6 -7
11 31 47 64 61 37 16 139 8 185 -14z"/>
<path d="M897 9529 c-9 -5 -22 -7 -27 -4 -6 4 -9 3 -8 -2 2 -4 -9 -24 -24 -43
-51 -67 -46 -128 16 -191 19 -19 32 -38 29 -43 -4 -5 -1 -6 5 -2 7 4 21 1 33
-7 14 -11 17 -16 7 -19 -7 -3 3 -5 22 -5 74 0 119 -6 113 -16 -3 -6 -1 -7 6
-3 6 4 8 12 5 18 -4 6 2 8 17 3 19 -5 21 -4 9 4 -14 10 -7 15 13 12 5 -1 6 2
3 7 -3 4 3 21 13 36 13 19 20 24 23 14 3 -7 3 12 0 42 -2 30 -11 67 -18 81 -7
15 -10 30 -6 34 4 3 3 5 -3 4 -15 -5 -96 57 -87 66 4 5 1 5 -5 1 -7 -4 -21 -3
-30 2 -31 16 -87 22 -106 11z m92 -34 c52 -18 105 -60 127 -101 38 -69 -19
-160 -99 -158 -72 1 -187 95 -187 152 0 49 59 122 100 122 10 0 36 -7 59 -15z"/>
<path d="M1070 9502 c0 -12 19 -26 26 -19 2 2 -2 10 -11 17 -9 8 -15 8 -15 2z"/>
<path d="M837 9229 c7 -7 15 -10 18 -7 3 3 -2 9 -12 12 -14 6 -15 5 -6 -5z"/>
<path d="M8192 9595 c0 -16 2 -22 5 -12 2 9 2 23 0 30 -3 6 -5 -1 -5 -18z"/>
<path d="M8210 9582 c0 -22 4 -43 9 -46 10 -7 7 71 -3 81 -3 4 -6 -12 -6 -35z"/>
<path d="M5525 9589 c-11 -16 -1 -19 13 -3 7 8 8 14 3 14 -5 0 -13 -5 -16 -11z"/>
<path d="M5596 9592 c-2 -4 -1 -13 3 -20 4 -8 11 -5 19 8 10 16 10 20 -2 20
-8 0 -17 -4 -20 -8z"/>
<path d="M5162 9557 c-12 -13 -22 -27 -22 -33 1 -5 10 2 21 15 17 21 22 22 30
10 5 -7 9 -9 9 -4 0 29 -17 35 -38 12z"/>
<path d="M5550 9565 c-7 -9 -11 -18 -8 -20 3 -3 11 1 18 10 7 9 11 18 8 20 -3
3 -11 -1 -18 -10z"/>
<path d="M5571 9538 c-5 -13 -18 -32 -30 -42 -11 -11 -21 -23 -21 -28 0 -6 16
9 35 32 19 23 35 46 35 51 0 17 -10 9 -19 -13z"/>
<path d="M11141 9421 c-100 -65 -190 -126 -199 -134 -14 -15 -13 -20 11 -57
15 -22 32 -40 38 -40 6 0 75 41 152 90 105 67 146 89 161 84 37 -12 73 -43 86
-74 19 -46 -3 -70 -153 -167 -73 -47 -136 -89 -140 -93 -9 -8 33 -83 52 -94
11 -7 259 150 304 193 16 14 35 38 43 53 36 69 1 171 -75 219 -39 25 -45 34
-43 59 4 30 -23 80 -42 80 -6 0 -94 -54 -195 -119z m208 67 c12 -20 11 -24
-14 -44 l-27 -22 51 -17 c88 -29 143 -116 122 -192 -5 -15 -14 -27 -21 -25 -7
2 -10 -3 -7 -11 3 -8 -6 -24 -20 -37 -45 -39 -128 -87 -142 -82 -8 3 -11 0 -7
-6 8 -13 -23 -31 -42 -25 -7 3 -11 0 -10 -7 2 -7 -14 -23 -34 -36 l-37 -24
-16 22 c-8 13 -15 26 -15 29 0 11 140 102 156 102 8 0 12 3 9 6 -3 3 17 19 46
37 63 40 78 60 79 102 0 62 -35 105 -107 130 -29 10 -37 7 -93 -29 -34 -22
-66 -36 -72 -33 -6 4 -8 3 -5 -3 9 -14 -58 -54 -77 -47 -8 3 -17 1 -21 -5 -3
-7 0 -8 9 -5 28 11 17 -4 -20 -27 l-37 -22 -18 24 c-10 13 -19 26 -19 29 0 11
63 40 73 33 7 -3 9 -2 4 2 -9 11 194 146 211 140 7 -3 10 0 7 5 -5 8 58 57 75
59 3 1 11 -9 19 -21z"/>
<path d="M11085 9330 c-3 -6 1 -7 9 -4 18 7 21 14 7 14 -6 0 -13 -4 -16 -10z"/>
<path d="M11202 9031 c-11 -7 -11 -9 0 -14 9 -3 15 1 15 9 0 8 -1 14 -1 14 -1
0 -7 -4 -14 -9z"/>
<path d="M5529 9513 c-13 -16 -12 -17 4 -4 9 7 17 15 17 17 0 8 -8 3 -21 -13z"/>
<path d="M3861 9504 c0 -11 3 -14 6 -6 3 7 2 16 -1 19 -3 4 -6 -2 -5 -13z"/>
<path d="M8204 9385 c0 -77 -3 -150 -7 -162 -5 -15 -4 -23 2 -23 6 0 11 18 11
41 0 22 3 38 8 36 4 -3 7 32 8 77 0 47 -2 64 -5 41 -4 -32 -7 -22 -12 45 -5
71 -5 61 -5 -55z"/>
<path d="M8333 9480 c0 -25 2 -35 4 -22 2 12 2 32 0 45 -2 12 -4 2 -4 -23z"/>
<path d="M5098 9472 c-16 -26 -16 -28 1 -28 13 0 18 8 18 28 0 15 -1 28 -2 28
0 0 -8 -13 -17 -28z"/>
<path d="M8351 9474 c0 -16 4 -38 9 -49 6 -13 7 -5 3 25 -7 53 -13 66 -12 24z"/>
<path d="M6999 9472 c6 -12 16 -24 22 -28 8 -4 8 -1 0 14 -6 12 -16 24 -22 28
-8 4 -8 1 0 -14z"/>
<path d="M3888 9468 c-2 -7 -1 -47 2 -88 l7 -75 1 88 c2 83 -1 102 -10 75z"/>
<path d="M6758 9473 c6 -2 18 -2 25 0 6 3 1 5 -13 5 -14 0 -19 -2 -12 -5z"/>
<path d="M6966 9464 c-8 -22 -4 -25 11 -9 7 8 9 16 4 19 -5 3 -12 -1 -15 -10z"/>
<path d="M6680 9453 l-25 -15 25 6 c14 3 28 6 33 6 4 0 7 5 7 10 0 13 -9 11
-40 -7z"/>
<path d="M3747 9447 c-3 -8 -2 -38 3 -68 l8 -54 -1 68 c-1 37 -2 67 -3 67 -1
0 -4 -6 -7 -13z"/>
<path d="M3864 9363 c0 -46 4 -83 8 -83 10 0 9 47 -1 115 -7 45 -8 41 -7 -32z"/>
<path d="M5460 9431 c0 -6 5 -13 10 -16 6 -3 10 1 10 9 0 9 -4 16 -10 16 -5 0
-10 -4 -10 -9z"/>
<path d="M5834 9432 c-14 -8 -35 -78 -26 -86 3 -3 -4 -6 -15 -6 -12 0 -23 -5
-25 -11 -5 -16 -158 -2 -164 15 -3 7 -18 10 -38 8 -19 -2 -44 1 -56 8 -14 7
-25 8 -29 3 -3 -6 -19 -13 -36 -17 -56 -14 -4 -23 174 -31 124 -5 171 -4 167
4 -4 6 0 11 9 11 9 0 13 -5 10 -10 -3 -6 0 -12 7 -15 24 -8 744 -12 764 -4 14
6 9 8 -18 8 -29 1 -36 4 -32 16 4 8 14 15 23 15 13 0 13 2 2 9 -11 7 -9 11 8
20 12 7 19 16 16 21 -3 4 1 11 7 13 54 22 -162 37 -532 37 -113 0 -210 -4
-216 -8z m-235 -98 c2 -2 -34 -4 -80 -3 -57 1 -76 4 -59 9 23 7 129 2 139 -6z"/>
<path d="M5057 9413 c-4 -3 -7 -13 -7 -22 1 -13 3 -13 11 2 11 19 8 33 -4 20z"/>
<path d="M5490 9408 c0 -5 18 -8 40 -8 22 0 40 2 40 4 0 2 -18 6 -40 8 -22 2
-40 0 -40 -4z"/>
<path d="M5678 9413 c23 -2 61 -2 85 0 23 2 4 4 -43 4 -47 0 -66 -2 -42 -4z"/>
<path d="M6620 9410 c0 -5 5 -10 10 -10 6 0 10 5 10 10 0 6 -4 10 -10 10 -5 0
-10 -4 -10 -10z"/>
<path d="M7042 9380 c-1 -23 2 -40 8 -40 6 0 8 11 4 26 -5 19 -4 25 5 20 6 -4
9 -12 6 -17 -4 -5 1 -9 10 -9 13 0 12 5 -7 30 -12 17 -22 30 -22 30 -1 0 -2
-18 -4 -40z"/>
<path d="M5470 9390 c0 -5 12 -10 28 -9 24 0 25 1 7 9 -27 12 -35 12 -35 0z"/>
<path d="M5573 9389 c-40 -12 -43 -20 -5 -17 56 4 112 -2 112 -12 0 -5 -10
-10 -22 -11 -22 -1 -22 -1 2 -9 47 -15 97 -11 105 8 5 14 4 15 -6 5 -7 -7 -29
-13 -48 -12 -29 0 -32 2 -16 9 14 6 16 9 5 11 -8 1 5 5 30 9 39 6 32 7 -45 10
l-90 4 85 6 85 6 -80 1 c-44 1 -95 -3 -112 -8z"/>
<path d="M5026 9375 c-3 -8 -1 -15 4 -15 6 0 10 7 10 15 0 8 -2 15 -4 15 -2 0
-6 -7 -10 -15z"/>
<path d="M5080 9375 c0 -8 2 -15 4 -15 2 0 6 7 10 15 3 8 1 15 -4 15 -6 0 -10
-7 -10 -15z"/>
<path d="M5440 9381 c0 -5 7 -12 16 -15 14 -5 15 -4 4 9 -14 17 -20 19 -20 6z"/>
<path d="M6614 9383 c15 -4 16 -7 5 -14 -11 -7 -11 -9 4 -9 9 0 17 7 17 15 0
9 -9 15 -22 14 -20 -1 -20 -2 -4 -6z"/>
<path d="M8341 9377 c-1 -10 -4 -16 -8 -14 -5 3 -8 -15 -8 -39 0 -24 3 -44 7
-44 4 0 9 -24 11 -52 2 -29 3 -10 1 42 -2 61 0 86 6 70 6 -20 8 -21 8 -5 0 11
-3 29 -8 40 -8 18 -9 18 -9 2z"/>
<path d="M5780 9370 c0 -5 5 -10 11 -10 5 0 7 5 4 10 -3 6 -8 10 -11 10 -2 0
-4 -4 -4 -10z"/>
<path d="M3842 9340 c0 -14 2 -19 5 -12 2 6 2 18 0 25 -3 6 -5 1 -5 -13z"/>
<path d="M4880 9340 c-34 -7 -34 -7 -5 -8 17 0 44 4 60 8 27 7 27 8 5 8 -14
-1 -41 -4 -60 -8z"/>
<path d="M5368 9343 c6 -2 18 -2 25 0 6 3 1 5 -13 5 -14 0 -19 -2 -12 -5z"/>
<path d="M6625 9341 c15 -7 7 -10 -34 -10 -77 -1 -60 -7 42 -16 56 -4 87 -3
87 3 0 6 -17 8 -40 5 -31 -4 -40 -2 -38 8 2 7 -6 14 -17 16 l-20 3 20 -9z"/>
<path d="M7120 9330 c0 -13 5 -20 13 -17 6 2 12 10 12 17 0 7 -6 15 -12 18 -8
2 -13 -5 -13 -18z"/>
<path d="M4600 9304 c-136 -28 -346 -79 -457 -110 -13 -3 -23 -10 -23 -15 0
-5 -8 -9 -17 -9 -16 0 -16 -2 -3 -11 12 -8 9 -9 -12 -5 -16 4 -28 2 -28 -3 0
-6 -7 -8 -15 -5 -8 4 -15 1 -15 -5 0 -5 -22 -17 -49 -25 -27 -8 -59 -19 -70
-26 -12 -6 -21 -8 -21 -6 0 3 12 12 26 19 15 8 23 17 17 20 -5 3 -22 -1 -37
-9 -16 -7 -35 -14 -42 -14 -8 0 -14 -5 -14 -11 0 -6 9 -9 20 -6 11 3 20 2 20
-3 0 -11 -30 -21 -41 -14 -5 3 -9 -1 -9 -9 0 -16 -24 -30 -34 -20 -3 4 -6 11
-6 17 0 6 5 4 10 -4 8 -13 10 -13 10 2 0 9 -4 20 -10 23 -5 3 -10 15 -10 26 0
10 -4 19 -8 19 -4 0 -8 -12 -7 -27 0 -18 -5 -28 -15 -29 -52 -2 -362 -137
-545 -238 -125 -68 -146 -88 -107 -100 11 -4 25 -17 31 -30 7 -13 24 -30 37
-37 13 -7 24 -15 24 -19 0 -6 -24 -20 -64 -39 -5 -2 -6 3 -3 12 3 9 -1 21 -9
28 -8 6 -12 14 -9 17 3 3 14 -3 25 -13 27 -25 35 -14 9 13 -16 18 -24 20 -40
12 -11 -6 -17 -16 -13 -21 5 -9 -78 -8 -121 1 -5 1 -16 2 -24 1 -11 -1 -11 -4
-1 -16 7 -9 8 -15 2 -15 -6 0 -23 -13 -38 -29 -15 -17 -31 -28 -36 -25 -4 3
-8 -7 -8 -23 0 -41 -10 -50 -63 -55 -39 -5 -45 -3 -36 8 6 8 21 11 38 8 32 -7
56 16 48 46 -4 17 1 22 23 22 3 0 16 14 30 32 l25 31 -32 -20 c-54 -34 -161
-126 -232 -198 -93 -96 -93 -97 -84 -97 4 -1 -4 -11 -18 -23 -14 -12 -39 -40
-56 -62 -27 -35 -29 -42 -16 -54 8 -7 17 -10 21 -6 3 3 1 10 -6 14 -15 9 39
82 69 93 10 4 19 16 19 26 0 10 8 26 18 35 16 15 17 13 20 -30 3 -53 -10 -73
-49 -73 -29 0 -45 -24 -34 -53 4 -8 2 -18 -3 -21 -5 -3 -8 12 -7 34 2 34 0 38
-12 28 -9 -7 -12 -21 -8 -35 6 -27 -17 -42 -38 -24 -11 8 -22 -5 -50 -60 -21
-39 -34 -75 -31 -81 4 -6 2 -8 -3 -5 -15 9 -54 -102 -69 -193 -1 -8 -7 -44
-14 -80 -12 -68 -5 -176 12 -197 6 -7 7 -20 4 -29 -10 -26 49 -214 67 -214 5
0 6 4 2 9 -3 5 -1 12 5 16 5 3 10 -2 10 -12 1 -17 1 -17 11 0 14 23 77 23 96
0 14 -17 14 -17 9 0 -5 17 1 18 95 15 91 -3 100 -1 95 15 -2 10 0 14 7 10 7
-4 8 0 3 13 -29 69 -12 54 31 -28 8 -16 18 -28 23 -28 5 0 7 -7 3 -15 -3 -10
-1 -15 7 -13 7 2 21 -14 32 -34 11 -21 27 -38 36 -38 11 0 13 3 6 8 -19 13
-90 116 -126 182 -148 274 -129 569 53 829 24 35 49 70 54 78 6 8 35 39 64 69
57 56 60 79 10 72 -20 -2 -24 -8 -22 -34 2 -19 -4 -37 -12 -44 -10 -9 -15 -9
-15 -1 0 15 -45 14 -58 -1 -5 -7 -12 -22 -15 -33 -4 -16 -5 -16 -6 5 -1 36 10
48 49 52 30 3 36 7 40 33 4 26 10 30 42 33 22 2 36 8 34 15 -1 7 -1 9 1 5 7
-13 23 -9 23 5 0 7 9 18 20 25 26 16 26 8 -1 -19 -27 -27 -17 -36 15 -12 16
11 23 24 20 35 -5 18 29 43 45 33 5 -3 16 2 24 10 9 8 18 15 22 15 3 0 16 9
28 20 12 12 33 24 47 27 13 3 54 25 90 48 116 75 438 235 474 235 9 0 15 -19
20 -57 13 -114 108 -545 126 -573 8 -12 12 -12 18 -2 6 8 15 -6 27 -43 13 -36
22 -50 27 -42 5 7 6 -1 2 -18 -4 -16 -8 -32 -10 -33 -1 -2 -10 24 -20 59 -10
35 -19 58 -21 52 -6 -18 49 -197 64 -209 16 -13 46 -84 39 -91 -3 -3 -8 6 -12
21 -3 14 -10 26 -14 26 -7 0 48 -177 69 -218 4 -9 15 -39 23 -65 15 -45 15
-51 -7 -110 -12 -34 -25 -69 -28 -77 -40 -112 -49 -142 -44 -147 4 -3 11 5 16
18 9 23 10 23 10 2 1 -12 7 -28 14 -35 8 -7 12 -19 9 -26 -3 -11 0 -11 16 -1
14 9 25 10 34 3 7 -6 51 -7 103 -4 87 5 90 6 87 28 -2 13 2 30 9 38 9 11 10
17 2 22 -7 5 -2 12 14 19 22 11 24 10 17 -5 -4 -9 -8 -30 -9 -47 -2 -25 -1
-25 2 -3 2 14 11 32 20 40 15 12 16 10 8 -12 -5 -14 -8 -44 -8 -67 1 -46 -11
-57 -22 -20 -3 13 -8 17 -11 10 -3 -7 3 -24 13 -37 20 -28 36 -34 27 -11 -4 8
-2 15 4 15 14 0 23 -44 17 -77 -4 -22 -3 -24 3 -8 9 19 9 19 21 -2 11 -22 10
-22 -31 -17 -49 6 -148 32 -163 43 -5 4 -29 13 -52 21 -31 9 -40 16 -33 25 7
8 3 11 -13 11 -12 -1 -21 4 -20 11 2 8 -4 10 -14 6 -9 -4 -21 0 -27 9 -19 26
-53 39 -63 25 -24 -31 -185 -629 -176 -653 4 -10 35 -26 148 -74 11 -5 43 -16
70 -26 28 -10 53 -23 57 -28 4 -6 8 -77 8 -158 l0 -147 345 -3 345 -3 2 110
c2 153 2 150 -52 245 -98 172 -280 528 -280 549 0 4 -9 16 -20 26 -11 10 -20
22 -20 27 0 4 -14 37 -30 72 l-30 63 19 59 c10 32 28 83 40 112 23 58 26 76
11 67 -18 -11 -10 6 13 28 29 28 81 160 72 186 -3 12 0 21 9 24 11 4 13 1 10
-11 -5 -15 -4 -15 5 -1 5 8 8 36 7 62 -2 26 1 44 5 41 5 -3 9 4 9 15 0 10 -3
21 -7 24 -5 2 -2 2 4 1 7 -2 17 5 22 14 19 31 11 -4 -10 -47 -11 -23 -19 -47
-17 -53 2 -5 19 23 37 64 40 85 123 263 154 328 12 25 28 51 35 59 7 7 11 20
8 28 -3 8 -2 11 3 8 5 -3 13 5 16 17 4 13 17 34 29 48 11 14 26 35 33 46 7 12
35 63 63 114 28 51 92 157 143 237 51 80 100 158 109 174 10 16 47 70 83 120
36 50 71 105 79 123 13 31 12 32 -12 34 -30 2 -75 -44 -66 -70 4 -13 0 -15
-18 -11 -15 3 -19 2 -11 -4 16 -11 -44 -80 -65 -75 -26 6 -62 -8 -62 -23 0 -8
7 -15 15 -15 8 0 15 6 15 13 0 8 7 14 15 14 11 0 8 -9 -12 -29 -26 -27 -28
-28 -35 -8 -5 14 -16 20 -35 19 l-28 -1 28 -11 c15 -6 27 -17 27 -24 0 -10 -8
-9 -35 4 -19 9 -32 19 -30 23 3 4 -7 8 -21 8 -13 0 -32 6 -42 14 -9 9 -23 13
-30 11 -9 -3 -12 2 -9 19 2 12 2 18 0 11 -2 -6 -11 -14 -20 -17 -11 -5 -13 -2
-8 11 16 39 18 56 7 49 -7 -4 -12 -16 -12 -28 0 -16 -5 -19 -25 -16 -16 4 -31
-2 -44 -16 -23 -25 -163 -254 -233 -380 -28 -50 -63 -114 -79 -142 -15 -28
-26 -54 -22 -57 3 -3 -7 -27 -22 -52 -14 -26 -24 -53 -21 -61 3 -8 2 -12 -4
-9 -8 5 -107 -187 -124 -242 -4 -13 -12 -23 -17 -23 -5 0 -9 -6 -9 -14 0 -8
-22 -67 -50 -131 -27 -64 -50 -124 -49 -133 0 -14 2 -13 9 3 5 13 9 14 9 5 0
-8 -4 -24 -9 -35 -7 -17 -9 -17 -9 -2 -1 19 -41 25 -41 6 0 -12 -29 -38 -42
-39 -5 0 -8 5 -8 10 0 6 7 10 15 10 8 0 19 9 25 21 12 22 0 94 -25 154 -7 17
-26 76 -41 132 -16 56 -32 99 -36 97 -4 -3 -7 3 -6 13 3 19 -13 114 -43 258
-46 227 -81 456 -70 466 10 11 369 117 486 144 177 41 226 52 290 65 87 17 95
20 95 36 0 8 7 14 15 14 8 0 15 5 15 11 0 6 -6 9 -14 6 -9 -4 -16 3 -19 19 -3
15 0 24 9 24 18 0 27 -17 12 -23 -8 -4 -7 -6 3 -6 9 -1 30 6 45 14 20 10 23
15 12 15 -10 0 -18 5 -18 10 0 7 -14 8 -37 4 -33 -5 -36 -5 -20 7 33 26 -50
20 -223 -17z m275 -3 c3 -5 1 -12 -5 -16 -5 -3 -10 1 -10 9 0 18 6 21 15 7z
m485 -41 c0 -5 -7 -10 -15 -10 -7 0 -18 -8 -24 -17 -5 -10 -13 -15 -17 -10 -4
4 1 16 11 27 19 21 45 27 45 10z m-2400 -666 c0 -3 -6 -12 -14 -19 -17 -18
-29 -8 -13 11 12 14 27 18 27 8z m29 -43 c16 -11 6 -31 -16 -31 -12 0 -13 3
-4 14 9 11 9 15 -1 19 -7 3 -8 6 -3 6 6 0 16 -3 24 -8z m-149 -21 c0 -5 -10
-10 -22 -9 -22 0 -22 1 -3 9 11 5 21 9 23 9 1 1 2 -3 2 -9z m1825 -26 c16 -7
25 -13 18 -14 -6 0 -20 -3 -30 -6 -15 -5 -15 -4 -3 5 12 9 9 11 -17 12 -63 3
-71 4 -79 11 -8 9 -24 1 -24 -13 0 -5 24 -10 53 -11 45 -1 47 -2 13 -5 -22 -3
-50 -2 -63 2 -19 4 -22 9 -13 24 8 17 18 19 62 14 29 -3 66 -12 83 -19z m90
-44 c3 -5 -3 -10 -14 -10 -12 0 -21 5 -21 10 0 6 6 10 14 10 8 0 18 -4 21 -10z
m55 -25 c0 -8 -4 -15 -9 -15 -5 0 -14 7 -21 15 -10 13 -9 15 9 15 12 0 21 -6
21 -15z m-2094 -13 c0 -11 -8 -19 -19 -19 -18 -2 -18 -1 -2 18 22 23 21 23 21
1z m224 14 c0 -3 -4 -8 -10 -11 -5 -3 -10 -1 -10 4 0 6 5 11 10 11 6 0 10 -2
10 -4z m1820 -16 c8 -5 12 -11 9 -14 -7 -8 -49 5 -49 15 0 12 21 11 40 -1z
m-302 -41 c-6 -16 -12 -28 -14 -26 -5 5 13 57 20 57 3 0 0 -14 -6 -31z m362
21 c0 -5 -2 -10 -4 -10 -3 0 -8 5 -11 10 -3 6 -1 10 4 10 6 0 11 -4 11 -10z
m-1962 -42 c-9 -7 -18 -22 -21 -33 -3 -13 -5 -8 -6 13 -1 27 3 32 21 32 19 0
20 -1 6 -12z m1182 -16 c0 -15 -2 -15 -10 -2 -13 20 -13 33 0 25 6 -3 10 -14
10 -23z m434 2 c3 -8 2 -12 -4 -9 -6 3 -10 10 -10 16 0 14 7 11 14 -7z m-450
-20 c3 -9 6 -25 7 -37 0 -21 1 -21 9 -2 10 23 13 5 4 -19 -11 -28 -24 -17 -24
20 0 21 -4 33 -10 29 -13 -8 -32 4 -25 16 10 14 32 11 39 -7z m436 0 c0 -2 -9
-4 -21 -4 -11 0 -18 4 -14 10 5 8 35 3 35 -6z m-1642 -29 c-3 -3 -9 2 -12 12
-6 14 -5 15 5 6 7 -7 10 -15 7 -18z m1165 -40 c4 -25 3 -34 -3 -25 -12 21 -24
99 -12 80 5 -8 12 -33 15 -55z m786 48 c0 -11 -3 -13 -6 -5 -9 23 -23 12 -18
-15 3 -16 2 -22 -1 -15 -3 6 -9 10 -13 7 -5 -2 -6 7 -3 20 5 29 42 36 41 8z
m-759 -28 c0 -8 -4 -15 -10 -15 -5 0 -10 7 -10 15 0 8 5 15 10 15 6 0 10 -7
10 -15z m371 -71 c-12 -26 -23 -45 -26 -43 -2 3 5 26 17 52 12 26 23 45 26 43
2 -3 -6 -26 -17 -52z m352 26 c-3 -11 -7 -20 -9 -20 -2 0 -4 9 -4 20 0 11 4
20 9 20 5 0 7 -9 4 -20z m-1958 -7 c-9 -8 -22 -28 -30 -44 -19 -36 -21 -36
-20 -2 0 14 6 28 13 31 6 2 12 9 12 16 0 6 9 12 20 13 18 2 19 0 5 -14z m1272
-25 c-3 -8 -6 -5 -6 6 -1 11 2 17 5 13 3 -3 4 -12 1 -19z m344 -25 c-12 -20
-14 -14 -5 12 4 9 9 14 11 11 3 -2 0 -13 -6 -23z m269 6 c0 -5 -4 -9 -10 -9
-5 0 -10 7 -10 16 0 8 5 12 10 9 6 -3 10 -10 10 -16z m-9 -42 c-10 -9 -11 -8
-5 6 3 10 9 15 12 12 3 -3 0 -11 -7 -18z m28 -10 c-7 -15 -16 -24 -20 -21 -5
3 -1 16 7 30 21 31 29 25 13 -9z m-574 -39 c3 -7 -1 -4 -9 6 -9 11 -16 29 -15
40 1 17 2 16 9 -6 4 -14 11 -32 15 -40z m-1635 23 c-10 -20 -30 -37 -30 -26 0
11 25 45 33 45 4 0 3 -9 -3 -19z m1527 -3 c-3 -8 -6 -5 -6 6 -1 11 2 17 5 13
3 -3 4 -12 1 -19z m-1525 -48 c-2 -16 -8 -30 -13 -30 -5 0 -6 7 -4 15 3 8 7
22 10 30 8 25 12 17 7 -15z m2183 20 c3 -5 1 -10 -4 -10 -6 0 -11 5 -11 10 0
6 2 10 4 10 3 0 8 -4 11 -10z m-2219 -36 c-4 -9 -9 -15 -11 -12 -3 3 -3 13 1
22 4 9 9 15 11 12 3 -3 3 -13 -1 -22z m1686 -14 c4 0 8 -8 8 -17 0 -16 -2 -16
-11 -3 -8 11 -12 12 -16 3 -2 -7 -11 -13 -18 -13 -7 0 -16 -6 -18 -12 -3 -7
-6 -2 -6 11 -1 16 3 21 13 18 19 -8 28 3 15 19 -6 7 -7 19 -3 25 5 9 10 6 17
-9 6 -12 14 -22 19 -22z m194 -2 c1 -24 -1 -36 -4 -28 -3 8 -9 18 -15 21 -7 5
7 49 16 49 1 0 3 -19 3 -42z m-1636 12 c0 -5 -4 -10 -10 -10 -5 0 -10 5 -10
10 0 6 5 10 10 10 6 0 10 -4 10 -10z m-233 -36 c-3 -3 -12 -4 -19 -1 -8 3 -5
6 6 6 11 1 17 -2 13 -5z m1851 -35 c-3 -20 -5 -19 -9 9 -3 20 -2 29 4 23 5 -5
7 -19 5 -32z m-1639 -24 c0 -5 -4 -3 -9 5 -5 8 -9 22 -9 30 0 16 17 -16 18
-35z m-259 -15 c0 -13 -2 -13 -9 -1 -8 12 -11 9 -17 -12 -3 -16 -9 -26 -11
-23 -3 2 1 21 8 40 13 35 29 32 29 -4z m1677 18 c-3 -8 -6 -5 -6 6 -1 11 2 17
5 13 3 -3 4 -12 1 -19z m2 -46 c-1 -15 -2 -15 -6 1 -2 9 -9 14 -15 11 -7 -4
-8 -2 -4 5 10 15 26 4 25 -17z m-1695 -36 c-3 -15 -8 -25 -11 -23 -2 3 -1 17
3 31 3 15 8 25 11 23 2 -3 1 -17 -3 -31z m-27 -18 c-3 -7 -5 -2 -5 12 0 14 2
19 5 13 2 -7 2 -19 0 -25z m40 -10 c-3 -8 -6 -5 -6 6 -1 11 2 17 5 13 3 -3 4
-12 1 -19z m-40 -50 c-3 -7 -5 -2 -5 12 0 14 2 19 5 13 2 -7 2 -19 0 -25z
m1763 22 c0 -5 -7 -7 -15 -4 -8 4 -15 8 -15 10 0 2 7 4 15 4 8 0 15 -4 15 -10z
m410 -19 c0 -6 -4 -13 -10 -16 -5 -3 -10 1 -10 9 0 9 5 16 10 16 6 0 10 -4 10
-9z m-409 -34 c-10 -9 -11 -8 -5 6 3 10 9 15 12 12 3 -3 0 -11 -7 -18z m379
-28 c-10 -23 -10 -23 -5 4 4 21 2 27 -6 21 -8 -5 -9 -3 -4 5 13 22 26 -4 15
-30z m-340 -19 c0 -5 -7 -7 -15 -4 -8 4 -15 8 -15 10 0 2 7 4 15 4 8 0 15 -4
15 -10z m330 -25 c0 -8 -4 -15 -10 -15 -5 0 -7 7 -4 15 4 8 8 15 10 15 2 0 4
-7 4 -15z m-342 -26 c-3 -8 -7 -3 -11 10 -4 17 -3 21 5 13 5 -5 8 -16 6 -23z
m-1497 -66 c-4 -7 -7 11 -8 40 -1 51 -1 51 7 12 4 -22 5 -46 1 -52z m1472 -5
c-3 -18 -10 -39 -16 -46 -5 -7 -7 -16 -3 -19 4 -4 11 -1 15 6 6 10 10 10 16 2
4 -7 -4 -23 -18 -37 -39 -39 -43 -11 -12 79 20 55 27 61 18 15z m34 0 c-3 -7
-5 -2 -5 12 0 14 2 19 5 13 2 -7 2 -19 0 -25z m-1777 2 c0 -5 -4 -10 -10 -10
-5 0 -10 5 -10 10 0 6 5 10 10 10 6 0 10 -4 10 -10z m2049 -35 c0 -5 -4 -3 -9
5 -5 8 -9 22 -9 30 0 16 17 -16 18 -35z m-292 13 c-3 -8 -6 -5 -6 6 -1 11 2
17 5 13 3 -3 4 -12 1 -19z m-1427 -122 c0 -17 -28 28 -33 54 -3 14 -5 6 -4
-17 3 -44 -7 -57 -18 -24 -3 10 -1 30 4 44 7 17 7 28 1 32 -6 4 -10 -3 -10
-14 0 -18 -6 -21 -42 -19 -41 1 -41 2 -8 5 30 3 38 10 48 36 l13 32 24 -59
c14 -33 25 -64 25 -70z m-321 62 c1 8 25 12 86 12 78 0 85 -2 85 -20 0 -17 -8
-19 -82 -22 l-83 -3 1 -67 c1 -38 0 -68 -1 -68 -2 0 -10 23 -19 51 -12 36 -14
54 -6 63 5 7 8 28 5 47 -4 26 -3 30 4 14 5 -11 10 -14 10 -7z m-29 -25 c0 -32
-5 -28 -14 10 -4 19 -3 26 4 22 5 -3 10 -18 10 -32z m1978 15 c-2 -13 -6 -22
-10 -20 -5 1 -44 2 -88 2 -73 0 -80 2 -80 20 0 19 7 20 91 20 88 0 90 -1 87
-22z m62 10 c0 -9 4 -8 10 2 12 18 12 2 0 -25 -5 -11 -9 -14 -9 -7 -1 6 -8 12
-16 12 -16 0 -20 12 -8 23 10 11 23 8 23 -5z m-323 -110 c-3 -8 -6 -5 -6 6 -1
11 2 17 5 13 3 -3 4 -12 1 -19z m273 -269 c0 -25 232 -474 332 -642 62 -106
68 -121 41 -113 -10 3 -47 10 -83 16 -81 14 -416 97 -449 110 -21 10 -23 15
-16 58 11 78 73 339 113 474 28 98 40 124 49 116 7 -6 13 -14 13 -19z"/>
<path d="M7220 9333 c14 -3 37 -14 53 -25 15 -11 34 -17 42 -14 9 3 18 -7 26
-32 21 -66 44 -89 96 -97 73 -11 237 -50 395 -96 224 -65 241 -68 255 -53 9 9
9 14 1 16 -21 7 0 40 22 34 11 -3 29 -9 40 -12 14 -4 20 -1 20 11 0 15 10 17
80 13 64 -2 79 0 75 10 -3 8 -5 18 -5 23 0 5 -21 9 -47 9 -41 0 -50 4 -60 25
-9 21 -8 27 6 38 12 9 15 21 10 47 l-6 35 -2 -37 c-1 -27 -6 -38 -16 -38 -18
0 -21 -46 -2 -53 6 -2 9 -7 5 -11 -9 -11 -42 -14 -53 -6 -18 13 -146 52 -152
46 -3 -3 -13 -1 -20 6 -8 6 -33 12 -56 13 -28 0 -41 5 -39 13 1 6 -5 12 -14
12 -9 0 -28 7 -42 15 -28 16 -224 62 -404 95 -77 14 -114 17 -132 10 -17 -6
-26 -6 -26 0 0 6 -17 9 -37 9 -28 -1 -31 -3 -13 -6z m90 -17 c0 -11 -19 -15
-25 -6 -3 5 1 10 9 10 9 0 16 -2 16 -4z m800 -196 c0 -5 -7 -7 -15 -4 -8 4
-15 1 -15 -7 0 -7 -3 -10 -6 -6 -9 9 5 27 22 27 8 0 14 -4 14 -10z m40 -16 c0
-2 -7 -4 -15 -4 -8 0 -15 4 -15 10 0 5 7 7 15 4 8 -4 15 -8 15 -10z m-74 -49
c-1 -36 -16 -51 -16 -16 0 18 9 51 14 51 2 0 2 -16 2 -35z"/>
<path d="M4905 9320 c-4 -6 5 -10 19 -10 14 0 26 5 26 10 0 6 -9 10 -19 10
-11 0 -23 -4 -26 -10z"/>
<path d="M5360 9300 c0 -12 17 -12 45 0 17 7 15 9 -12 9 -18 1 -33 -3 -33 -9z"/>
<path d="M5508 9303 c23 -2 61 -2 85 0 23 2 4 4 -43 4 -47 0 -66 -2 -42 -4z"/>
<path d="M7235 9300 c-4 -6 3 -10 14 -10 25 0 27 6 6 13 -8 4 -17 2 -20 -3z"/>
<path d="M4938 9293 c7 -3 16 -2 19 1 4 3 -2 6 -13 5 -11 0 -14 -3 -6 -6z"/>
<path d="M4903 9273 c9 -2 15 -9 12 -14 -4 -5 1 -9 9 -9 9 0 16 -5 16 -11 0
-6 -7 -8 -17 -4 -16 5 -16 4 -3 -7 8 -7 20 -20 26 -28 10 -12 12 -10 11 15 -2
32 -32 65 -57 64 -10 -1 -10 -3 3 -6z"/>
<path d="M6770 9271 c0 -5 7 -11 14 -14 10 -4 13 -1 9 9 -6 15 -23 19 -23 5z"/>
<path d="M7255 9270 c26 -11 35 -12 35 -2 0 4 -12 8 -27 9 -24 1 -25 1 -8 -7z"/>
<path d="M7310 9265 c0 -8 2 -15 4 -15 2 0 6 7 10 15 3 8 1 15 -4 15 -6 0 -10
-7 -10 -15z"/>
<path d="M6740 9263 c0 -7 4 -13 8 -13 4 0 16 -15 27 -32 10 -18 38 -59 61
-91 34 -47 42 -54 40 -34 0 14 -4 23 -8 21 -3 -2 -19 16 -35 41 -15 25 -31 45
-35 45 -3 0 -4 10 -2 23 2 12 2 17 -2 10 -4 -8 -13 -3 -29 15 -14 15 -25 21
-25 15z"/>
<path d="M7230 9249 c0 -5 6 -9 14 -9 8 0 17 -8 19 -17 4 -14 5 -14 6 3 1 14
-6 24 -19 27 -11 3 -20 1 -20 -4z"/>
<path d="M8323 9215 c0 -27 2 -38 4 -22 2 15 2 37 0 50 -2 12 -4 0 -4 -28z"/>
<path d="M4868 9233 c7 -3 16 -2 19 1 4 3 -2 6 -13 5 -11 0 -14 -3 -6 -6z"/>
<path d="M7295 9230 c-6 -10 -5 -11 15 -14 5 0 15 -7 22 -13 17 -18 29 -16 22
2 -4 8 -12 15 -20 15 -8 0 -14 5 -14 10 0 6 -4 10 -9 10 -6 0 -13 -4 -16 -10z"/>
<path d="M4896 9185 c-12 -18 -13 -25 -4 -25 7 0 18 11 25 25 15 32 0 32 -21
0z"/>
<path d="M6827 9194 c-3 -4 0 -13 8 -21 8 -8 19 -22 24 -31 5 -9 13 -13 17 -9
5 5 4 11 -2 15 -6 4 -17 17 -25 29 -9 13 -19 20 -22 17z"/>
<path d="M6860 9191 c0 -5 5 -13 10 -16 6 -3 10 -2 10 4 0 5 -4 13 -10 16 -5
3 -10 2 -10 -4z"/>
<path d="M5215 9180 c-3 -5 -2 -10 4 -10 5 0 13 5 16 10 3 6 2 10 -4 10 -5 0
-13 -4 -16 -10z"/>
<path d="M7200 9181 c0 -6 5 -13 10 -16 6 -3 10 -11 10 -16 0 -6 -4 -7 -10 -4
-6 3 -7 -1 -4 -9 5 -14 -7 -16 -86 -16 -66 0 -95 -4 -106 -14 -8 -8 -14 -17
-14 -20 0 -3 45 -6 99 -6 70 0 101 -4 105 -12 3 -7 3 -1 0 15 -8 36 9 35 23
-3 9 -23 18 -30 37 -30 21 0 31 -9 48 -45 12 -25 25 -45 30 -45 4 0 6 -6 3
-12 -2 -7 -6 -30 -8 -52 -7 -51 -18 -60 -40 -30 -14 19 -15 24 -4 24 32 0 35
55 6 108 -17 30 -20 32 -15 10 7 -33 -17 -61 -45 -53 -15 5 -19 1 -19 -16 0
-18 3 -20 12 -11 18 18 28 15 28 -8 0 -11 4 -20 10 -20 6 0 9 -3 8 -7 -1 -5 4
-25 11 -46 13 -38 13 -39 -25 -80 -55 -58 -77 -76 -91 -77 -7 0 -13 -4 -13
-10 0 -5 -4 -10 -10 -10 -5 0 -10 7 -10 15 0 8 -7 15 -17 15 -15 0 -15 -1 0
-18 10 -10 17 -27 17 -37 0 -10 20 -53 45 -96 25 -43 92 -173 150 -289 58
-115 110 -210 115 -210 6 0 10 -5 10 -11 0 -10 26 -71 69 -159 21 -42 22 -37
5 19 -5 16 -4 22 4 17 16 -10 25 -65 13 -80 -9 -11 -3 -33 24 -94 19 -44 35
-85 35 -91 0 -5 8 -16 18 -23 10 -7 22 -31 27 -53 7 -28 18 -44 38 -53 15 -7
27 -17 27 -23 0 -5 -11 -2 -24 7 -24 15 -25 15 -20 -10 2 -15 13 -49 24 -76
23 -58 23 -59 -68 -250 -125 -264 -142 -301 -142 -311 0 -5 -9 -28 -21 -50
-11 -23 -16 -39 -11 -36 4 4 17 24 27 47 10 22 22 40 27 40 5 0 27 -9 49 -20
22 -12 43 -19 48 -16 9 6 151 290 151 304 0 5 6 15 13 21 11 9 19 -6 40 -77
46 -153 127 -497 127 -542 0 -4 -9 -10 -20 -13 -24 -6 -23 -20 10 -103 10 -26
23 -141 24 -214 1 -50 3 -55 23 -52 27 4 30 -16 39 -233 10 -254 -23 -559 -81
-739 -31 -97 -31 -104 -2 -100 17 3 46 -20 132 -106 l110 -110 42 46 c22 26
43 59 46 73 3 14 16 67 30 116 81 293 104 707 61 1111 l-6 61 63 23 c35 13 97
39 137 57 39 18 75 33 78 33 14 0 249 122 256 133 4 6 5 21 3 32 -2 11 -4 23
-4 28 -1 4 -72 7 -159 7 l-158 0 -17 69 c-10 39 -24 72 -30 75 -7 2 -4 5 6 5
9 1 17 5 17 10 0 13 -57 -2 -120 -32 -71 -33 -133 -58 -135 -55 -1 2 -12 50
-24 108 -41 193 -96 393 -162 593 -16 49 -29 94 -29 100 -1 29 -60 75 -60 47
0 -5 5 -10 10 -10 6 0 10 -4 10 -10 0 -18 -19 -10 -25 11 -4 11 -9 18 -12 16
-2 -3 1 -15 7 -27 6 -12 9 -24 6 -27 -3 -3 -10 6 -15 21 -11 26 -31 36 -31 14
0 -9 -3 -9 -12 0 -14 14 -48 16 -48 3 0 -5 10 -12 23 -16 19 -6 19 -8 5 -12
-10 -2 -25 2 -33 10 -12 13 -12 17 3 30 13 12 22 13 36 5 13 -7 20 -7 25 1 4
5 21 11 39 13 25 2 31 6 27 18 -4 8 -9 27 -12 42 -4 20 -10 25 -28 23 -15 -1
-26 5 -33 19 -5 12 -15 33 -22 47 -6 14 -10 37 -7 50 3 19 5 17 6 -8 1 -37 18
-45 23 -10 2 16 11 23 31 25 20 3 27 9 27 26 0 12 4 26 9 32 5 5 16 34 26 64
10 30 22 60 26 66 5 6 10 29 12 52 1 22 5 38 8 36 4 -2 16 33 28 79 13 45 27
90 32 99 11 22 11 28 1 28 -5 0 -14 -10 -20 -22 -7 -15 -11 -18 -11 -7 -1 8 5
21 11 27 10 10 10 15 -2 22 -20 13 -4 13 19 1 12 -7 18 -6 18 2 1 12 47 192
58 229 4 10 2 18 -3 18 -5 0 -12 -19 -16 -42 -4 -24 -11 -56 -16 -73 -5 -16
-13 -46 -17 -65 -8 -30 -9 -25 -9 32 1 37 4 62 7 56 7 -11 13 2 24 61 5 23 4
31 -4 27 -8 -5 -8 0 1 19 6 14 22 28 35 31 16 4 23 13 23 29 0 47 -13 85 -31
90 -10 3 -16 12 -13 19 3 7 -2 16 -11 20 -13 4 -15 1 -10 -13 4 -14 0 -23 -13
-30 -22 -12 -32 -5 -31 18 0 12 2 11 8 -4 7 -18 9 0 12 102 1 27 19 20 19 -6
0 -10 7 -24 15 -31 12 -10 16 -8 25 15 19 50 13 63 -28 67 -41 3 -41 4 -46
-79 0 -12 -4 -25 -8 -29 -13 -13 -9 -53 8 -79 9 -13 14 -30 11 -37 -2 -8 -10
-1 -18 16 l-13 28 -13 -48 c-7 -27 -13 -63 -13 -81 0 -17 -4 -35 -10 -38 -13
-8 -13 -25 0 -25 14 0 49 78 50 108 0 40 15 23 15 -18 1 -22 -2 -34 -7 -27 -5
8 -10 1 -14 -20 -6 -31 -41 -73 -51 -63 -3 3 -18 -44 -33 -105 -16 -60 -31
-119 -36 -130 -4 -12 -3 -17 2 -12 5 5 15 25 21 45 l13 37 -5 -38 c-2 -21 -15
-51 -30 -69 -23 -27 -26 -38 -21 -72 3 -23 2 -33 -2 -23 -6 13 -14 -1 -30 -55
-42 -134 -53 -152 -68 -106 -20 65 -36 91 -45 77 -7 -10 -8 -5 -3 14 3 15 2
33 -4 40 -5 6 -25 48 -43 92 -18 44 -38 87 -45 95 -7 8 -15 32 -19 52 -13 68
-341 688 -365 688 -4 0 -11 -6 -14 -12 -3 -7 -4 -3 -3 8 1 12 -30 72 -71 138
-72 113 -82 126 -82 107z m54 -81 c11 -24 12 -30 1 -30 -7 0 -15 8 -18 18 -2
9 -8 26 -13 36 -12 31 12 10 30 -24z m44 -150 c-14 -22 -24 -19 -15 5 4 8 11
15 17 15 6 0 6 -7 -2 -20z m919 -182 c-3 -8 -6 -5 -6 6 -1 11 2 17 5 13 3 -3
4 -12 1 -19z m-90 -237 c-6 -22 -12 -39 -14 -37 -7 7 10 86 17 81 4 -2 3 -23
-3 -44z m53 -91 c0 -20 -37 -47 -48 -34 -4 4 -1 9 6 11 6 3 12 11 12 18 0 11
8 18 28 24 1 1 2 -8 2 -19z m-97 -200 c8 0 9 -3 1 -8 -5 -4 -15 -23 -20 -42
-10 -33 -10 -32 -8 20 4 91 7 109 11 68 2 -21 10 -38 16 -38z m-350 -20 c3
-11 2 -20 -3 -20 -8 0 -20 24 -20 41 0 17 17 1 23 -21z m-28 -18 c8 -20 -4
-30 -15 -12 -7 12 -13 11 -33 -8 -13 -12 -29 -22 -36 -22 -8 0 1 13 19 28 36
32 56 36 65 14z m399 -9 c-10 -40 -14 -41 -14 -5 0 18 5 32 10 32 6 0 8 -11 4
-27z m-346 -15 c-3 -7 -15 -14 -29 -15 -14 -1 -17 0 -6 3 9 3 17 10 17 15 0 5
5 9 11 9 6 0 9 -6 7 -12z m9 -40 c-3 -8 -6 -5 -6 6 -1 11 2 17 5 13 3 -3 4
-12 1 -19z m-197 -18 c0 -5 -5 -10 -11 -10 -5 0 -7 5 -4 10 3 6 8 10 11 10 2
0 4 -4 4 -10z m220 -30 c12 -23 12 -24 -3 -11 -14 11 -17 11 -17 1 0 -8 -2
-11 -5 -9 -2 3 -2 15 2 27 6 26 6 26 23 -8z m-268 -12 c-7 -7 -12 -8 -12 -2 0
14 12 26 19 19 2 -3 -1 -11 -7 -17z m575 -25 c-13 -30 -16 -26 -10 16 4 21 8
28 13 20 5 -6 3 -23 -3 -36z m-584 -13 c3 -11 1 -18 -4 -14 -5 3 -9 12 -9 20
0 20 7 17 13 -6z m300 -20 c3 -11 1 -20 -4 -20 -5 0 -9 4 -9 9 0 5 -3 17 -7
27 -4 11 -3 15 4 11 6 -4 13 -16 16 -27z m174 -22 c-3 -8 -6 -5 -6 6 -1 11 2
17 5 13 3 -3 4 -12 1 -19z m-474 -23 c-3 -9 -8 -14 -10 -11 -3 3 -2 9 2 15 9
16 15 13 8 -4z m480 -84 c-3 -12 -9 -21 -14 -21 -13 0 -11 14 3 28 9 9 7 16
-6 31 -10 11 -15 25 -11 32 11 16 35 -44 28 -70z m-134 12 c-1 -33 -2 -35 -8
-13 -4 14 -6 31 -3 38 8 22 12 13 11 -25z m-262 -5 c-3 -8 -6 -5 -6 6 -1 11 2
17 5 13 3 -3 4 -12 1 -19z m360 -10 c-3 -7 -5 -2 -5 12 0 14 2 19 5 13 2 -7 2
-19 0 -25z m88 3 c-3 -12 -11 -19 -16 -16 -5 4 -3 14 3 25 15 24 22 19 13 -9z
m-468 -43 c-3 -7 -5 -2 -5 12 0 14 2 19 5 13 2 -7 2 -19 0 -25z m440 -32 c-15
-31 -20 -27 -11 8 3 14 10 24 14 21 5 -3 3 -16 -3 -29z m-362 -46 c3 -5 1 -10
-4 -10 -6 0 -11 5 -11 10 0 6 2 10 4 10 3 0 8 -4 11 -10z m333 -17 c-10 -2
-26 -2 -35 0 -10 3 -2 5 17 5 19 0 27 -2 18 -5z m-325 -107 c-3 -4 -9 -2 -14
5 -13 22 -11 31 5 17 8 -7 12 -17 9 -22z m14 -57 c0 -21 -3 -26 -9 -16 -4 9
-5 22 -2 31 9 23 11 20 11 -15z m99 -99 c18 0 78 -30 72 -36 -5 -4 -105 29
-114 39 -3 3 -3 11 1 18 6 8 10 7 17 -5 5 -9 16 -16 24 -16z m27 23 c-7 -2
-21 -2 -30 0 -10 3 -4 5 12 5 17 0 24 -2 18 -5z m66 -12 c-7 -11 -19 -16 -31
-13 -33 8 -17 29 25 31 14 1 15 -2 6 -18z m54 -78 c-6 -15 -23 -17 -23 -4 0 5
-8 12 -17 14 -10 2 -4 4 13 3 21 -1 30 -5 27 -13z m45 -3 c-13 -21 -38 -27
-38 -10 0 9 28 29 43 30 4 0 2 -9 -5 -20z"/>
<path d="M8231 9154 c0 -11 3 -14 6 -6 3 7 2 16 -1 19 -3 4 -6 -2 -5 -13z"/>
<path d="M8332 9130 c0 -19 2 -27 5 -17 2 9 2 25 0 35 -3 9 -5 1 -5 -18z"/>
<path d="M3965 9130 c-13 -6 -15 -9 -5 -9 8 0 22 4 30 9 18 12 2 12 -25 0z"/>
<path d="M3800 9113 c0 -5 5 -15 10 -23 8 -12 10 -11 10 8 0 12 -4 22 -10 22
-5 0 -10 -3 -10 -7z"/>
<path d="M5020 9111 c0 -6 5 -13 10 -16 6 -3 10 1 10 9 0 9 -4 16 -10 16 -5 0
-10 -4 -10 -9z"/>
<path d="M5073 9113 c9 -2 25 -2 35 0 9 3 1 5 -18 5 -19 0 -27 -2 -17 -5z"/>
<path d="M545 9098 c-35 -19 -76 -62 -95 -98 -53 -103 -26 -196 68 -237 52
-22 91 -8 167 58 68 58 100 70 123 47 31 -31 -14 -126 -68 -143 -10 -3 -22
-15 -25 -26 -7 -22 12 -79 26 -79 47 0 129 74 159 142 38 88 16 174 -55 218
-64 39 -115 26 -206 -55 -75 -67 -102 -70 -107 -11 -3 34 1 43 42 81 47 43 54
62 36 96 -12 21 -35 24 -65 7z m11 -83 c-21 -19 -43 -32 -49 -28 -6 3 -7 1 -3
-5 4 -7 2 -28 -3 -48 -11 -42 -2 -67 30 -84 28 -16 53 -5 123 55 79 67 101 78
136 70 57 -13 100 -70 100 -135 0 -53 -38 -125 -67 -125 -11 0 -18 -7 -18 -20
0 -25 -44 -48 -62 -33 -20 16 -16 25 21 48 85 52 103 170 30 194 -28 9 -67 -7
-103 -41 -66 -63 -85 -75 -125 -80 -32 -4 -38 -2 -26 7 12 8 10 9 -10 5 -29
-7 -59 20 -79 72 -11 27 -10 40 3 80 9 26 27 61 40 77 21 25 26 27 46 16 17
-9 25 -9 34 0 8 8 6 9 -9 4 -18 -7 -19 -6 -5 12 11 15 11 16 0 7 -8 -7 -19
-13 -24 -13 -6 1 0 10 14 21 l24 21 10 -21 c8 -18 3 -27 -28 -56z m274 -315
c0 -5 -4 -10 -10 -10 -5 0 -10 5 -10 10 0 6 5 10 10 10 6 0 10 -4 10 -10z"/>
<path d="M6960 9079 c0 -7 8 -18 18 -25 20 -16 62 -18 62 -4 0 6 -13 10 -29
10 -32 0 -50 15 -29 23 8 3 6 6 -4 6 -10 1 -18 -4 -18 -10z"/>
<path d="M8323 9063 c-26 -9 -12 -18 30 -19 23 -1 35 1 27 4 -8 2 -22 8 -30
12 -8 4 -21 5 -27 3z"/>
<path d="M11709 8981 c-164 -88 -239 -136 -239 -154 0 -7 11 -25 24 -42 l24
-29 174 88 c96 49 185 96 198 106 21 16 22 20 11 48 -29 70 -32 69 -192 -17z
m160 -12 c-7 -4 -17 -5 -23 -2 -5 3 -6 1 -2 -5 4 -6 -17 -21 -51 -37 -32 -15
-66 -34 -75 -42 -9 -8 -22 -12 -30 -7 -7 4 -10 4 -6 -1 10 -10 -103 -67 -120
-60 -7 3 -10 0 -7 -5 3 -6 2 -10 -4 -10 -5 0 -17 -3 -27 -7 -13 -5 -16 -3 -11
10 3 8 1 18 -6 20 -18 6 85 68 105 63 10 -2 15 1 12 9 -3 7 7 17 23 24 15 6
69 33 118 60 l90 50 13 -26 c12 -21 12 -27 1 -34z"/>
<path d="M11630 8860 c-8 -5 -10 -10 -5 -10 6 0 17 5 25 10 8 5 11 10 5 10 -5
0 -17 -5 -25 -10z"/>
<path d="M6906 9030 c19 -37 75 -119 85 -126 13 -8 8 4 -23 48 -11 16 -16 32
-13 38 9 14 -4 50 -17 50 -6 0 -6 -6 2 -15 22 -26 2 -29 -21 -4 -11 13 -17 17
-13 9z"/>
<path d="M8118 9033 c7 -3 16 -2 19 1 4 3 -2 6 -13 5 -11 0 -14 -3 -6 -6z"/>
<path d="M8206 9019 c13 -15 19 -36 19 -70 0 -27 -3 -49 -7 -49 -5 0 -8 12 -8
26 0 14 -4 23 -10 19 -14 -9 -12 -34 4 -51 20 -19 25 -18 35 9 9 21 9 21 23
-10 l14 -32 10 34 c10 31 9 34 -13 40 -13 3 -28 3 -34 0 -6 -4 -7 9 -3 34 7
44 -6 71 -34 71 -12 0 -12 -4 4 -21z"/>
<path d="M8115 9011 c-19 -8 -19 -8 4 -20 12 -7 28 -10 36 -8 25 10 34 -13 18
-50 -8 -19 -12 -37 -10 -40 3 -2 10 12 17 31 6 20 16 36 21 36 13 0 11 26 -4
38 -18 16 -59 22 -82 13z m45 -11 c0 -5 -5 -10 -11 -10 -5 0 -7 5 -4 10 3 6 8
10 11 10 2 0 4 -4 4 -10z"/>
<path d="M8402 9008 c8 -24 73 -47 113 -41 l38 6 -44 23 c-24 13 -53 23 -64
23 -13 0 -6 -7 20 -19 22 -10 32 -19 23 -19 -22 -1 -68 20 -68 31 0 4 -5 8
-11 8 -6 0 -9 -6 -7 -12z"/>
<path d="M8435 8961 l20 -8 -20 -5 c-16 -5 -14 -6 8 -7 15 0 27 3 27 8 0 10
-25 21 -43 20 -7 0 -3 -4 8 -8z"/>
<path d="M6998 8933 c10 -16 22 -37 26 -47 5 -16 4 -17 -9 -6 -20 17 -19 7 3
-30 l19 -30 1 33 c0 17 -5 42 -11 55 -9 18 -8 25 3 32 8 5 11 12 7 17 -5 4
-13 1 -18 -7 -8 -11 -12 -12 -16 -2 -2 6 -9 12 -15 12 -5 0 -1 -12 10 -27z"/>
<path d="M7047 8938 c-3 -12 -4 -25 -1 -30 3 -4 39 -8 80 -8 l74 0 0 30 0 30
-74 0 c-67 0 -74 -2 -79 -22z"/>
<path d="M8307 8953 c-3 -3 1 -12 9 -20 8 -9 18 -13 21 -10 3 3 -1 13 -10 21
-8 8 -17 12 -20 9z"/>
<path d="M8338 8953 c7 -3 16 -2 19 1 4 3 -2 6 -13 5 -11 0 -14 -3 -6 -6z"/>
<path d="M8540 8954 c0 -11 62 -54 78 -54 7 0 12 5 12 10 0 6 -9 10 -20 10
-11 0 -20 6 -20 14 0 11 10 9 44 -7 28 -13 42 -25 39 -34 -7 -17 11 -17 26 0
8 11 -1 19 -47 40 -63 29 -82 33 -82 16 0 -8 -5 -8 -15 1 -8 7 -15 9 -15 4z"/>
<path d="M8345 8920 c-18 -19 -17 -20 2 -20 11 0 26 -7 33 -15 7 -8 18 -15 24
-15 7 0 34 -11 62 -24 83 -41 93 -42 92 -8 -1 24 -5 29 -22 25 -15 -3 -17 -2
-8 5 9 6 -5 8 -42 6 -31 -2 -56 1 -56 6 0 5 -7 6 -17 3 -10 -4 -14 -2 -10 4 4
6 -7 14 -26 18 -25 6 -28 9 -12 12 30 7 43 23 19 23 -12 0 -29 -9 -39 -20z
m161 -66 c22 -9 33 -19 26 -21 -7 -3 -27 5 -45 16 -39 25 -33 27 19 5z"/>
<path d="M8640 8900 c0 -5 -12 -10 -27 -11 -16 0 -22 -3 -15 -6 18 -7 62 5 62
17 0 6 -4 10 -10 10 -5 0 -10 -4 -10 -10z"/>
<path d="M8716 8891 c-3 -4 -1 -13 5 -21 6 -10 9 -11 9 -2 0 6 7 12 15 12 8 0
15 -9 15 -20 0 -11 7 -23 15 -27 27 -10 29 6 6 31 -24 25 -58 39 -65 27z"/>
<path d="M8297 8873 c-4 -3 -7 -20 -6 -37 l1 -31 8 35 c9 36 8 45 -3 33z"/>
<path d="M8805 8847 c3 -7 -1 -20 -10 -27 -13 -11 -20 -10 -45 9 -30 21 -30
21 -30 1 0 -11 6 -20 13 -20 8 0 8 -3 -2 -9 -8 -5 -29 -7 -48 -4 -40 7 -45
-12 -7 -29 22 -10 28 -10 39 6 8 10 18 15 24 11 6 -3 11 -1 11 4 0 6 14 11 31
11 16 0 28 4 25 8 -3 5 15 8 39 7 25 0 45 0 45 2 0 1 -17 10 -37 20 -21 9 -41
19 -46 21 -4 2 -5 -3 -2 -11z m-108 -63 c-3 -3 -12 -4 -19 -1 -8 3 -5 6 6 6
11 1 17 -2 13 -5z"/>
<path d="M8249 8843 c-6 -35 -5 -83 3 -83 14 0 23 33 10 38 -7 2 -12 8 -12 14
0 6 7 5 16 -3 11 -9 14 -22 10 -43 -3 -17 -8 -46 -10 -64 -2 -19 -7 -37 -11
-40 -4 -4 -5 7 -1 23 3 17 1 37 -5 45 -9 12 -10 12 -5 -4 4 -10 -1 -30 -10
-44 -15 -23 -15 -26 0 -34 9 -5 16 -19 16 -30 0 -27 7 -20 13 12 3 14 10 52
17 85 12 64 4 125 -18 133 -7 2 -13 0 -13 -5z"/>
<path d="M8845 8802 c-16 -2 -34 -8 -39 -13 -6 -5 -18 -9 -28 -9 -21 0 -25
-36 -5 -43 6 -3 33 -2 58 0 29 4 49 1 53 -6 4 -6 12 -11 17 -11 6 0 3 7 -5 16
-9 8 -16 25 -16 37 1 21 2 20 15 -4 16 -29 78 -48 67 -21 -4 12 -1 12 18 2 18
-10 20 -14 9 -21 -10 -6 -11 -9 -1 -9 6 0 12 -4 12 -10 0 -5 -7 -10 -16 -10
-8 0 -12 -5 -8 -11 4 -7 10 -7 16 -1 12 12 35 6 58 -14 12 -10 18 -10 33 0 16
13 15 15 -10 32 -37 25 -65 42 -83 50 -8 4 -27 16 -42 26 -16 11 -28 15 -28 9
0 -5 8 -14 17 -20 10 -5 15 -13 11 -17 -11 -10 -38 16 -38 37 0 11 -7 17 -17
16 -10 -1 -31 -3 -48 -5z m180 -82 c3 -5 2 -10 -4 -10 -5 0 -13 5 -16 10 -3 6
-2 10 4 10 5 0 13 -4 16 -10z m55 -35 c0 -12 -29 -3 -34 10 -4 13 -2 14 14 5
11 -6 20 -13 20 -15z"/>
<path d="M7060 8794 c1 -5 7 -20 15 -34 11 -20 14 -21 15 -7 0 11 4 15 12 11
8 -5 9 -2 5 10 -4 10 -7 20 -7 22 0 2 -4 4 -10 4 -5 0 -7 -8 -4 -17 5 -15 3
-15 -10 1 -9 11 -16 16 -16 10z"/>
<path d="M7116 8785 c4 -8 9 -13 13 -10 4 2 8 -2 8 -9 0 -8 -6 -12 -14 -9 -7
3 -13 -2 -13 -11 0 -9 -5 -16 -11 -16 -5 0 -8 -4 -4 -10 3 -5 13 -6 21 -3 9 3
19 1 23 -6 8 -13 71 4 71 20 0 18 -5 24 -16 21 -7 -1 -15 2 -19 8 -3 6 0 7 9
4 10 -4 16 -1 16 9 0 8 6 18 13 20 6 3 -14 6 -45 6 -47 1 -56 -2 -52 -14z"/>
<path d="M7230 8785 c-14 -16 -10 -18 14 -9 9 3 16 10 16 15 0 14 -16 11 -30
-6z"/>
<path d="M8584 8785 c118 -62 155 -82 182 -102 17 -13 36 -23 42 -23 7 0 12
-3 12 -7 0 -16 63 -44 74 -33 7 7 3 10 -13 10 -12 0 -19 4 -16 10 19 31 -26
74 -77 72 -16 0 -26 3 -24 7 3 4 -8 5 -25 3 -16 -2 -29 0 -29 6 0 6 -10 14
-22 18 -36 11 -70 36 -59 43 5 4 -8 7 -30 7 -38 1 -39 1 -15 -11z m253 -110
c8 -8 13 -19 11 -25 -2 -5 -14 2 -27 15 -25 27 -10 36 16 10z"/>
<path d="M11295 8775 c-32 -31 -33 -74 -2 -103 72 -67 172 34 102 103 -13 14
-36 25 -50 25 -14 0 -37 -11 -50 -25z m87 -22 c23 -21 23 -38 -2 -63 -24 -24
-43 -25 -64 -4 -49 48 15 113 66 67z"/>
<path d="M11366 8708 l-18 -33 21 25 c18 22 26 40 18 40 -1 0 -11 -15 -21 -32z"/>
<path d="M11310 8715 c0 -8 4 -15 10 -15 5 0 7 7 4 15 -4 8 -8 15 -10 15 -2 0
-4 -7 -4 -15z"/>
<path d="M3060 8719 c0 -5 -4 -7 -10 -4 -5 3 -10 2 -10 -3 0 -5 -12 -14 -26
-21 -15 -6 -24 -14 -22 -17 3 -2 18 1 32 8 23 10 29 9 37 -3 7 -11 9 -11 9 4
0 10 7 20 16 24 13 5 13 7 2 14 -18 12 -28 11 -28 -2z"/>
<path d="M8864 8698 c9 -12 16 -30 16 -39 0 -9 7 -20 16 -23 8 -3 13 -2 10 2
-2 4 9 8 25 9 19 1 32 -3 36 -12 6 -17 22 -11 19 8 -4 28 -41 57 -73 57 -17 0
-35 5 -38 10 -3 6 -11 10 -16 10 -6 0 -3 -10 5 -22z"/>
<path d="M3019 8663 c-13 -15 -12 -15 9 -4 23 12 28 21 13 21 -5 0 -15 -7 -22
-17z"/>
<path d="M9101 8662 c-13 -14 -13 -15 6 -10 11 3 27 1 34 -4 9 -6 -4 -8 -38
-4 -31 4 -54 2 -58 -4 -3 -5 -16 -10 -28 -11 -21 -1 -20 -2 3 -9 21 -7 19 -8
-14 -7 -21 1 -40 7 -43 14 -3 7 -9 13 -15 13 -5 0 -7 -4 -3 -9 3 -5 -5 -11
-17 -13 -22 -4 -22 -5 5 -18 15 -7 27 -18 27 -23 0 -5 -11 -2 -25 7 -27 18
-35 20 -35 8 0 -5 8 -13 19 -18 34 -16 94 -68 183 -156 49 -48 88 -81 88 -74
0 8 -7 17 -16 20 -14 5 -14 8 0 21 21 22 22 20 21 -30 -2 -37 1 -45 13 -40 8
3 21 -3 28 -12 13 -17 13 -17 14 2 1 20 1 20 15 1 8 -11 15 -25 15 -30 0 -6
-4 -5 -9 3 -5 7 -14 10 -21 6 -6 -4 -17 1 -25 11 -8 11 -14 15 -14 9 0 -15 26
-46 35 -43 5 2 20 -5 34 -15 18 -13 20 -17 8 -17 -9 0 -22 8 -27 18 -6 9 -10
13 -10 7 0 -5 8 -22 17 -37 43 -68 70 -118 76 -144 4 -15 18 -38 32 -51 13
-12 24 -30 25 -40 0 -16 1 -16 9 2 l9 20 0 -20 c0 -11 -3 -26 -8 -34 -7 -10
-11 -5 -16 18 -3 17 -10 31 -14 31 -5 0 -1 -28 7 -62 20 -80 21 -224 3 -308
-20 -89 -70 -206 -125 -290 -52 -78 -66 -108 -48 -96 7 4 12 14 12 22 0 9 5
12 12 8 6 -4 8 -3 5 3 -4 6 1 19 9 29 15 18 15 18 11 -4 -3 -13 -1 -20 5 -16
5 3 7 17 4 30 l-6 24 182 1 c101 1 193 0 206 -1 20 -1 22 3 22 49 0 39 4 51
15 51 11 0 15 -11 15 -36 0 -21 -4 -33 -10 -29 -6 3 -10 -4 -10 -17 l0 -22 16
22 c8 12 19 20 24 17 7 -4 19 21 25 50 1 6 7 28 13 50 11 41 28 179 25 205 -1
8 -5 42 -8 75 -4 33 -10 64 -15 69 -5 5 -6 15 -3 22 11 30 -64 218 -130 324
-23 36 -44 67 -47 70 -3 3 -19 23 -36 45 -16 22 -59 71 -96 109 -61 63 -68 68
-85 55 -17 -13 -17 -13 -4 4 14 17 11 22 -25 53 -21 18 -44 31 -51 29 -7 -2
-10 2 -7 8 2 7 -14 24 -35 37 -22 14 -41 28 -41 33 0 4 -6 7 -14 7 -8 0 -16 6
-19 13 -3 6 -18 19 -33 28 -26 15 -30 16 -43 1z m85 -52 c5 0 23 -11 39 -24
l30 -24 -27 1 c-14 1 -26 6 -25 11 3 11 -64 49 -72 41 -3 -4 3 -13 14 -22 20
-15 20 -15 0 -11 -26 4 -33 45 -8 50 10 3 23 -1 29 -9 6 -7 15 -13 20 -13z
m-1 -40 c3 -5 1 -10 -4 -10 -6 0 -11 5 -11 10 0 6 2 10 4 10 3 0 8 -4 11 -10z
m-153 -42 c-9 -9 -16 -8 -29 5 -11 11 -13 17 -5 17 7 0 12 -4 12 -10 0 -5 5
-10 11 -10 6 0 8 7 4 18 -5 14 -4 15 6 5 10 -10 10 -16 1 -25z m294 -27 l24
-19 -29 2 c-34 2 -46 10 -36 25 9 15 13 14 41 -8z m-211 -52 c13 -20 0 -16
-25 8 -23 23 -23 24 -3 14 12 -6 25 -16 28 -22z m282 -27 c0 -10 -8 -18 -18
-18 -13 0 -14 4 -5 18 6 10 14 18 18 18 4 0 6 -8 5 -18z m78 -65 c19 -23 19
-33 0 -17 -9 7 -19 10 -22 6 -4 -4 -1 -12 7 -17 13 -9 13 -10 0 -6 -9 2 -15
16 -15 33 -1 16 -4 36 -9 44 -4 8 0 6 8 -5 9 -11 23 -28 31 -38z m88 -109 c6
-3 -1 -5 -14 -5 -19 2 -24 8 -25 30 l-1 27 15 -22 c9 -13 20 -26 25 -30z
m-208 -38 c-3 -41 -11 -47 -19 -14 -6 22 3 42 20 44 1 0 1 -14 -1 -30z m-28
-29 c9 -24 8 -29 -3 -24 -8 3 -14 9 -14 13 0 5 -3 15 -6 24 -3 9 -2 16 3 16 5
0 14 -13 20 -29z m294 -13 c11 -21 11 -22 -4 -9 -10 7 -17 17 -17 22 0 15 9
10 21 -13z m33 -56 c13 -25 13 -28 -3 -28 -13 0 -18 8 -17 28 1 15 2 28 3 28
1 0 9 -13 17 -28z m-37 -4 c-3 -8 -6 -5 -6 6 -1 11 2 17 5 13 3 -3 4 -12 1
-19z m98 -126 c-5 -5 -35 61 -35 75 1 4 10 -10 20 -31 11 -22 18 -42 15 -44z
m18 -44 c6 -22 5 -22 -8 -4 -17 22 -20 40 -6 32 5 -3 11 -16 14 -28z m-32 0
c11 -21 11 -22 -4 -9 -10 7 -17 17 -17 22 0 15 9 10 21 -13z m-270 -126 c-7
-52 -8 -48 -8 43 0 79 2 91 8 57 5 -24 5 -69 0 -100z m-7 -124 c-3 -24 -7 -54
-10 -66 -3 -15 -1 -21 5 -17 7 4 8 0 4 -10 -5 -13 -7 -14 -14 -3 -7 10 -9 8
-9 -6 0 -11 -2 -17 -5 -14 -3 3 0 29 6 59 6 30 13 64 15 77 8 39 14 23 8 -20z
m353 -20 c-2 -13 -4 -5 -4 17 -1 22 1 32 4 23 2 -10 2 -28 0 -40z m-340 -40
c-3 -7 -5 -2 -5 12 0 14 2 19 5 13 2 -7 2 -19 0 -25z m343 -38 c0 -5 -2 -10
-4 -10 -3 0 -8 5 -11 10 -3 6 -1 10 4 10 6 0 11 -4 11 -10z m-343 -22 c-3 -8
-6 -5 -6 6 -1 11 2 17 5 13 3 -3 4 -12 1 -19z m-27 -34 c0 -8 6 -14 13 -13 6
1 47 1 90 0 69 -1 77 -3 77 -20 0 -17 -9 -20 -75 -23 -59 -2 -76 0 -80 12 -5
13 -7 13 -15 0 -8 -12 -10 -10 -10 8 0 13 -3 21 -7 19 -5 -3 -9 6 -9 19 -1 13
2 21 7 18 5 -3 9 -12 9 -20z m330 -34 c0 -17 -3 -19 -19 -10 -16 8 -24 4 -45
-20 -13 -17 -27 -30 -30 -30 -3 0 -6 18 -6 40 l0 40 50 0 c44 0 50 -3 50 -20z
m30 10 c0 -5 -5 -10 -11 -10 -5 0 -7 5 -4 10 3 6 8 10 11 10 2 0 4 -4 4 -10z
m-415 -62 c-2 -18 -3 -45 -4 -60 -1 -16 -5 -28 -10 -28 -5 0 -7 10 -5 23 l5
22 -12 -22 c-11 -21 -36 -34 -27 -15 16 36 52 112 54 112 1 0 0 -15 -1 -32z
m376 -51 c-13 -13 -15 1 -4 30 7 17 8 17 11 -1 2 -10 -1 -23 -7 -29z m-354
-29 c-3 -8 -6 -5 -6 6 -1 11 2 17 5 13 3 -3 4 -12 1 -19z m33 8 c0 -3 -4 -8
-10 -11 -5 -3 -10 -1 -10 4 0 6 5 11 10 11 6 0 10 -2 10 -4z"/>
<path d="M9290 8500 c0 -5 5 -10 10 -10 6 0 10 5 10 10 0 6 -4 10 -10 10 -5 0
-10 -4 -10 -10z"/>
<path d="M3060 8540 c-8 -5 -11 -12 -7 -16 4 -4 15 0 24 9 18 18 8 23 -17 7z"/>
<path d="M5965 8543 c-22 -3 -44 -8 -50 -13 -5 -4 -25 -11 -43 -15 -22 -5 -31
-10 -24 -17 6 -6 17 -5 29 3 11 7 28 9 37 6 34 -13 13 -23 -51 -23 -39 0 -58
3 -47 7 18 7 18 8 -2 8 -32 1 -58 -24 -59 -55 0 -22 -5 -30 -22 -32 -21 -3
-21 -5 -8 -48 17 -58 1 -57 -19 1 l-15 45 32 14 c27 12 28 15 10 15 -12 1 -25
-3 -28 -9 -7 -12 -25 -13 -25 -2 0 5 16 14 35 22 19 8 35 17 35 22 0 11 -18
10 -25 -2 -3 -5 -28 -16 -55 -24 -136 -40 -308 -210 -400 -395 -67 -132 -84
-214 -84 -381 1 -169 19 -252 84 -385 77 -158 187 -276 348 -374 89 -53 103
-52 167 10 30 29 55 58 55 64 0 6 -48 59 -107 118 l-106 106 27 52 c16 28 42
64 58 79 16 16 25 31 19 34 -5 3 -11 0 -14 -6 -2 -7 -7 -10 -11 -7 -10 9 16
60 28 56 6 -2 15 -20 20 -40 l10 -37 88 0 c62 0 88 -4 88 -12 0 -9 3 -9 12 0
17 17 28 15 28 -5 1 -16 2 -16 13 -3 30 36 103 56 91 25 -5 -11 -2 -13 11 -9
15 6 15 4 4 -14 -7 -12 -22 -23 -34 -24 -11 -2 -19 -8 -18 -14 1 -6 -9 -22
-22 -34 -14 -13 -25 -29 -25 -37 0 -7 -6 -13 -13 -13 -16 0 -67 -52 -67 -68 0
-7 -7 -12 -16 -12 -9 0 -14 -6 -11 -12 2 -7 9 -12 14 -11 6 1 44 -29 84 -68
140 -133 135 -126 120 -163 -27 -66 -27 -66 17 -66 59 0 174 26 250 57 199 79
370 237 462 426 42 87 79 211 67 223 -8 8 -107 -23 -156 -49 -18 -10 -35 -16
-38 -14 -8 9 29 37 48 37 10 0 19 4 19 9 0 17 -20 23 -35 11 -8 -6 -19 -9 -25
-5 -22 13 -8 21 39 21 39 0 48 -3 43 -15 -4 -12 -1 -11 18 2 14 9 35 17 48 17
21 0 23 3 17 33 -5 24 -4 28 4 17 6 -8 11 -24 12 -35 2 -39 18 51 19 110 2 62
-2 101 -14 170 -14 76 -16 84 -32 99 -14 15 -14 16 1 16 21 0 16 19 -36 127
-133 279 -425 469 -749 486 -47 2 -103 2 -125 0z m5 -112 c0 -4 -3 -10 -6 -13
-7 -8 -42 25 -37 35 5 9 43 -10 43 -22z m-30 -21 c0 -5 -5 -10 -11 -10 -5 0
-7 5 -4 10 3 6 8 10 11 10 2 0 4 -4 4 -10z m-180 -15 c0 -9 -6 -12 -16 -8 -13
5 -13 7 -2 14 17 11 18 11 18 -6z m270 -47 c0 -6 -7 -5 -15 2 -8 7 -15 17 -15
22 0 6 7 5 15 -2 8 -7 15 -17 15 -22z m-276 -43 c-5 -28 -9 -34 -15 -23 -5 9
-3 26 4 41 16 34 20 27 11 -18z m596 5 c0 -5 -2 -10 -4 -10 -3 0 -8 5 -11 10
-3 6 -1 10 4 10 6 0 11 -4 11 -10z m-290 -15 c7 -8 9 -22 6 -31 -5 -13 -9 -14
-21 -4 -16 13 -21 50 -6 50 5 0 14 -7 21 -15z m258 -22 c1 -20 -1 -24 -7 -14
-6 9 -16 11 -27 6 -18 -7 -18 -8 1 -15 16 -7 13 -8 -13 -7 l-34 2 33 28 c18
15 36 27 39 27 3 0 7 -12 8 -27z m-192 -58 c15 -27 41 -31 65 -9 10 9 22 15
25 12 3 -3 -11 -18 -30 -33 -30 -23 -39 -25 -52 -14 -16 13 -54 85 -54 102 0
10 27 -24 46 -58z m284 55 c0 -5 -4 -10 -9 -10 -6 0 -13 5 -16 10 -3 6 1 10 9
10 9 0 16 -4 16 -10z m-387 -20 c17 -20 16 -20 -128 -20 -80 0 -145 3 -145 8
0 4 56 6 125 4 108 -3 125 -1 125 12 0 20 2 20 23 -4z m370 -7 c-7 -2 -19 -2
-25 0 -7 3 -2 5 12 5 14 0 19 -2 13 -5z m-156 -55 c-3 -8 -6 -5 -6 6 -1 11 2
17 5 13 3 -3 4 -12 1 -19z m293 12 c0 -5 -4 -10 -10 -10 -5 0 -10 5 -10 10 0
6 5 10 10 10 6 0 10 -4 10 -10z m-440 -20 c8 -15 8 -20 -3 -20 -7 0 -13 9 -14
20 -1 11 0 20 2 20 2 0 9 -9 15 -20z m250 -3 c0 -8 -6 -14 -14 -14 -8 0 -12 6
-9 14 3 7 9 13 14 13 5 0 9 -6 9 -13z m155 3 c3 -5 1 -10 -4 -10 -6 0 -11 5
-11 10 0 6 2 10 4 10 3 0 8 -4 11 -10z m28 -15 c4 -8 2 -17 -3 -20 -6 -4 -10
3 -10 14 0 25 6 27 13 6z m-306 -1 c-3 -3 -12 -4 -19 -1 -8 3 -5 6 6 6 11 1
17 -2 13 -5z m291 -109 c0 -16 -2 -15 -8 5 -4 14 -8 36 -8 50 0 22 1 22 8 -5
4 -16 8 -39 8 -50z m-431 -357 c-1 -73 -3 -16 -3 127 0 143 2 203 3 133 2 -70
2 -187 0 -260z m433 276 c0 -2 -7 -4 -15 -4 -8 0 -15 4 -15 10 0 5 7 7 15 4 8
-4 15 -8 15 -10z m135 -18 c33 -12 37 -16 21 -22 -11 -4 -21 -2 -26 6 -4 7
-34 16 -66 20 -57 7 -57 7 -14 9 25 0 63 -6 85 -13z m-42 -23 c-7 -2 -21 -2
-30 0 -10 3 -4 5 12 5 17 0 24 -2 18 -5z m205 0 c-10 -2 -28 -2 -40 0 -13 2
-5 4 17 4 22 1 32 -1 23 -4z m97 -242 c3 -5 1 -12 -5 -16 -5 -3 -10 1 -10 9 0
18 6 21 15 7z m-550 -108 c-8 -8 -19 -11 -25 -8 -18 11 -11 23 14 23 22 0 23
-2 11 -15z m95 7 c0 -5 -2 -10 -4 -10 -3 0 -8 5 -11 10 -3 6 -1 10 4 10 6 0
11 -4 11 -10z m30 -30 c0 -5 -2 -10 -4 -10 -3 0 -8 5 -11 10 -3 6 -1 10 4 10
6 0 11 -4 11 -10z m-380 -45 c0 -12 -19 -12 -23 0 -4 9 -1 12 9 8 7 -3 14 -7
14 -8z m-36 -11 c9 -8 16 -17 16 -20 0 -2 -70 -4 -155 -4 -141 0 -155 2 -156
18 -1 9 -5 1 -9 -18 -5 -19 -6 -38 -4 -42 3 -4 -2 -5 -10 -2 -19 7 -19 4 -1
48 l15 36 144 0 c118 0 147 -3 160 -16z m201 -14 c-14 -14 -25 -31 -25 -37 0
-6 -8 -13 -19 -16 -15 -3 -21 4 -30 33 -6 20 -11 40 -11 43 0 3 25 5 55 5 l55
-1 -25 -27z m278 13 c19 -17 20 -17 14 0 -4 9 -2 17 3 17 14 0 21 -18 10 -25
-6 -4 -8 -16 -5 -28 6 -21 5 -21 -13 2 -11 14 -28 31 -38 38 -12 9 -13 13 -4
13 7 0 22 -8 33 -17z m143 3 c24 -25 17 -40 -11 -22 -26 17 -55 21 -55 7 0 -5
10 -12 23 -16 21 -7 21 -7 2 -12 -10 -3 -21 0 -23 6 -2 6 -12 11 -23 11 -22 0
-24 11 -7 28 17 17 76 15 94 -2z m-513 -32 c4 -4 -3 -15 -14 -25 -20 -17 -20
-20 -5 -34 23 -23 11 -35 -35 -35 -32 0 -39 3 -39 20 0 13 7 20 20 20 11 0 20
5 20 12 0 13 29 48 40 48 4 0 10 -3 13 -6z m15 -53 c3 -8 -1 -12 -9 -9 -7 2
-15 10 -17 17 -3 8 1 12 9 9 7 -2 15 -10 17 -17z m422 10 c0 -5 10 -11 23 -14
19 -3 19 -5 5 -11 -11 -5 -23 -1 -37 13 -16 16 -17 21 -6 21 8 0 15 -4 15 -9z
m80 -1 c-20 -13 -33 -13 -25 0 3 6 14 10 23 10 15 0 15 -2 2 -10z"/>
<path d="M6211 7484 c-21 -24 -5 -28 20 -5 16 14 18 21 8 21 -8 -1 -20 -8 -28
-16z"/>
<path d="M2970 8460 c0 -5 5 -10 10 -10 6 0 10 5 10 10 0 6 -4 10 -10 10 -5 0
-10 -4 -10 -10z"/>
<path d="M2617 8318 c-4 -10 -9 -25 -12 -33 -2 -8 -13 -15 -24 -15 -10 0 -21
-6 -24 -13 -4 -10 3 -12 24 -9 37 5 51 24 47 59 -3 22 -6 24 -11 11z"/>
<path d="M7960 7694 c-16 -42 -12 -61 15 -66 25 -5 34 5 15 17 -5 3 -10 17
-10 31 0 13 5 24 10 24 6 0 10 5 10 10 0 21 -31 9 -40 -16z m7 -36 c-3 -8 -6
-5 -6 6 -1 11 2 17 5 13 3 -3 4 -12 1 -19z"/>
<path d="M9691 7404 c0 -11 3 -14 6 -6 3 7 2 16 -1 19 -3 4 -6 -2 -5 -13z"/>
<path d="M2740 7338 c0 -15 5 -30 11 -33 16 -11 17 -2 3 30 l-13 30 -1 -27z"/>
<path d="M9706 7326 c-9 -19 -16 -39 -16 -45 0 -6 -5 -11 -11 -11 -5 0 -7 -5
-3 -12 4 -7 17 9 31 41 14 29 22 55 20 57 -2 3 -12 -11 -21 -30z"/>
<path d="M4326 7295 c4 -8 11 -15 16 -15 6 0 5 6 -2 15 -7 8 -14 15 -16 15 -2
0 -1 -7 2 -15z"/>
<path d="M5745 7290 c-3 -5 -1 -10 4 -10 6 0 11 5 11 10 0 6 -2 10 -4 10 -3 0
-8 -4 -11 -10z"/>
<path d="M2416 7265 c4 -8 8 -15 10 -15 2 0 4 7 4 15 0 8 -4 15 -10 15 -5 0
-7 -7 -4 -15z"/>
<path d="M2801 7270 c-1 -21 16 -46 26 -37 4 5 3 11 -3 15 -6 4 -14 14 -17 22
-5 13 -5 13 -6 0z"/>
<path d="M4275 7270 c4 -6 11 -8 16 -5 14 9 11 15 -7 15 -8 0 -12 -5 -9 -10z"/>
<path d="M9605 7269 c-11 -17 1 -21 15 -4 8 9 8 15 2 15 -6 0 -14 -5 -17 -11z"/>
<path d="M2440 7260 c0 -5 5 -10 10 -10 6 0 10 5 10 10 0 6 -4 10 -10 10 -5 0
-10 -4 -10 -10z"/>
<path d="M4368 7263 c6 -2 18 -2 25 0 6 3 1 5 -13 5 -14 0 -19 -2 -12 -5z"/>
<path d="M4310 7245 c7 -8 20 -15 29 -15 13 1 13 3 -3 15 -26 19 -42 19 -26 0z"/>
<path d="M9240 7244 c0 -8 5 -12 10 -9 6 3 10 10 10 16 0 5 -4 9 -10 9 -5 0
-10 -7 -10 -16z"/>
<path d="M9626 7245 c-3 -8 -1 -15 3 -15 5 0 11 7 15 15 3 8 1 15 -3 15 -5 0
-11 -7 -15 -15z"/>
<path d="M2451 7205 c12 -22 23 -41 24 -42 1 -2 10 4 21 13 18 15 18 15 -4 11
-19 -5 -22 -2 -18 16 3 12 3 16 0 9 -4 -8 -12 -6 -26 10 -17 20 -17 18 3 -17z"/>
<path d="M9173 7217 c-38 -44 -46 -57 -34 -57 6 0 16 12 21 26 7 16 16 24 24
21 8 -3 19 0 26 7 19 24 -16 26 -37 3z"/>
<path d="M9649 7213 c-8 -20 -12 -24 -18 -14 -7 11 -11 9 -20 -7 -11 -22 -5
-56 9 -47 15 9 59 95 49 95 -5 0 -14 -12 -20 -27z m-27 -45 c-7 -7 -12 -8 -12
-2 0 14 12 26 19 19 2 -3 -1 -11 -7 -17z"/>
<path d="M2878 7200 c12 -5 22 -15 22 -21 0 -12 21 -32 55 -50 11 -6 0 9 -25
35 -24 25 -51 46 -60 45 -9 0 -6 -4 8 -9z"/>
<path d="M2516 7155 c4 -8 10 -15 15 -15 4 0 6 7 3 15 -4 8 -10 15 -15 15 -4
0 -6 -7 -3 -15z"/>
<path d="M2881 7144 c0 -11 3 -14 6 -6 3 7 2 16 -1 19 -3 4 -6 -2 -5 -13z"/>
<path d="M9098 7138 c-10 -10 -14 -18 -9 -18 10 0 36 29 30 34 -2 1 -12 -6
-21 -16z"/>
<path d="M2497 7133 c4 -10 15 -27 25 -37 10 -11 18 -24 18 -30 0 -5 3 -6 6
-3 4 4 -6 25 -21 47 -30 43 -38 50 -28 23z"/>
<path d="M2905 7130 c-3 -5 -1 -10 4 -10 6 0 11 5 11 10 0 6 -2 10 -4 10 -3 0
-8 -4 -11 -10z"/>
<path d="M9595 7120 c-3 -5 -1 -10 4 -10 6 0 11 5 11 10 0 6 -2 10 -4 10 -3 0
-8 -4 -11 -10z"/>
<path d="M2980 7095 c6 -8 8 -20 4 -26 -5 -9 -2 -10 9 -6 10 4 20 0 26 -11 9
-15 10 -15 11 -1 0 8 -10 25 -23 37 -26 25 -46 30 -27 7z"/>
<path d="M9060 7095 c-8 -9 -8 -15 -2 -15 12 0 26 19 19 26 -2 2 -10 -2 -17
-11z"/>
<path d="M9550 7065 c-12 -19 -27 -32 -32 -29 -7 4 -8 2 -4 -4 4 -7 9 -12 10
-12 8 0 58 72 53 76 -3 3 -15 -11 -27 -31z"/>
<path d="M9011 7060 c-13 -11 -19 -20 -13 -20 10 0 42 27 42 36 0 7 -4 5 -29
-16z"/>
<path d="M3073 7019 c9 -5 17 -17 17 -26 0 -16 11 -31 63 -80 15 -15 114 -114
220 -220 106 -106 197 -193 204 -193 12 0 163 142 163 154 0 3 -19 15 -42 25
-178 77 -355 173 -488 266 -70 48 -135 85 -149 85 -3 0 2 -5 12 -11z"/>
<path d="M8953 7004 l-28 -25 33 22 c17 13 32 24 32 26 0 8 -11 1 -37 -23z"/>
<path d="M9470 7015 c-7 -9 -11 -17 -9 -20 3 -2 10 5 17 15 14 24 10 26 -8 5z"/>
<path d="M9490 6995 c-7 -9 -11 -18 -8 -20 3 -3 11 1 18 10 7 9 11 18 8 20 -3
3 -11 -1 -18 -10z"/>
<path d="M2677 6919 c12 -12 24 -21 27 -18 2 2 -8 13 -22 23 l-27 19 22 -24z"/>
<path d="M8840 6930 c-8 -5 -12 -11 -10 -14 3 -2 14 2 24 10 22 15 10 19 -14
4z"/>
<path d="M8780 6890 c-9 -6 -10 -10 -3 -10 6 0 15 5 18 10 8 12 4 12 -15 0z"/>
<path d="M9365 6869 c-11 -16 -1 -19 13 -3 7 8 8 14 3 14 -5 0 -13 -5 -16 -11z"/>
<path d="M5838 6858 c5 -5 16 -8 23 -6 8 3 3 7 -10 11 -17 4 -21 3 -13 -5z"/>
<path d="M5785 6850 c3 -5 11 -10 16 -10 6 0 7 5 4 10 -3 6 -11 10 -16 10 -6
0 -7 -4 -4 -10z"/>
<path d="M8709 6843 c-13 -17 -13 -17 6 -3 11 8 22 16 24 17 2 2 0 3 -6 3 -6
0 -17 -8 -24 -17z"/>
<path d="M8670 6820 c-9 -6 -10 -10 -3 -10 6 0 15 5 18 10 8 12 4 12 -15 0z"/>
<path d="M7566 6783 c-6 -14 -5 -15 5 -6 7 7 10 15 7 18 -3 3 -9 -2 -12 -12z"/>
<path d="M9239 6753 c-13 -16 -12 -17 4 -4 16 13 21 21 13 21 -2 0 -10 -8 -17
-17z"/>
<path d="M7526 6717 c3 -10 9 -15 12 -12 3 3 0 11 -7 18 -10 9 -11 8 -5 -6z"/>
<path d="M2910 6716 c0 -2 7 -7 16 -10 8 -3 12 -2 9 4 -6 10 -25 14 -25 6z"/>
<path d="M9159 6699 c-19 -16 -20 -18 -4 -10 34 17 51 31 39 31 -7 0 -22 -9
-35 -21z"/>
<path d="M3821 6614 c0 -11 3 -14 6 -6 3 7 2 16 -1 19 -3 4 -6 -2 -5 -13z"/>
<path d="M7470 6609 c0 -5 5 -7 10 -4 6 3 10 8 10 11 0 2 -4 4 -10 4 -5 0 -10
-5 -10 -11z"/>
<path d="M6525 6268 c-38 -4 -243 -10 -455 -12 l-385 -4 -3 -163 c-3 -165 0
-180 35 -186 82 -13 900 6 955 23 16 5 15 7 -2 37 -25 44 -50 144 -50 205 0
56 -10 113 -19 111 -3 -1 -37 -6 -76 -11z"/>
<path d="M5368 6263 c7 -3 16 -2 19 1 4 3 -2 6 -13 5 -11 0 -14 -3 -6 -6z"/>
<path d="M6768 5748 c-15 -23 -94 -118 -192 -233 -28 -33 -132 -141 -231 -241
l-180 -181 48 -47 c26 -25 51 -46 54 -46 8 0 265 261 338 342 132 147 275 324
275 341 0 11 -81 87 -93 87 -3 0 -11 -10 -19 -22z"/>
<path d="M7600 4645 c-14 -16 -3 -20 19 -6 8 5 9 11 3 15 -5 3 -15 -1 -22 -9z"/>
<path d="M7818 3733 c7 -3 16 -2 19 1 4 3 -2 6 -13 5 -11 0 -14 -3 -6 -6z"/>
<path d="M8366 3702 c-22 -27 -24 -32 -7 -17 20 17 47 55 39 55 -2 0 -16 -17
-32 -38z"/>
<path d="M7850 3726 c0 -2 9 -6 20 -9 11 -3 18 -1 14 4 -5 9 -34 13 -34 5z"/>
<path d="M4752 3600 c0 -14 2 -19 5 -12 2 6 2 18 0 25 -3 6 -5 1 -5 -13z"/>
<path d="M5238 3573 c7 -3 16 -2 19 1 4 3 -2 6 -13 5 -11 0 -14 -3 -6 -6z"/>
<path d="M5618 3573 c7 -3 16 -2 19 1 4 3 -2 6 -13 5 -11 0 -14 -3 -6 -6z"/>
<path d="M6808 3573 c7 -3 16 -2 19 1 4 3 -2 6 -13 5 -11 0 -14 -3 -6 -6z"/>
<path d="M7631 3564 c0 -11 3 -14 6 -6 3 7 2 16 -1 19 -3 4 -6 -2 -5 -13z"/>
<path d="M4016 3555 c10 -8 23 -15 28 -15 6 0 1 7 -10 15 -10 8 -23 15 -28 15
-6 0 -1 -7 10 -15z"/>
<path d="M5735 3560 c-3 -6 1 -7 9 -4 18 7 21 14 7 14 -6 0 -13 -4 -16 -10z"/>
<path d="M6185 3560 c-8 -13 5 -13 25 0 13 8 13 10 -2 10 -9 0 -20 -4 -23 -10z"/>
<path d="M7360 3561 c0 -5 12 -17 28 -26 l27 -18 -24 27 c-26 28 -31 31 -31
17z"/>
<path d="M7966 3553 c-6 -14 -5 -15 5 -6 7 7 10 15 7 18 -3 3 -9 -2 -12 -12z"/>
<path d="M4670 3549 c0 -5 5 -7 10 -4 6 3 10 8 10 11 0 2 -4 4 -10 4 -5 0 -10
-5 -10 -11z"/>
<path d="M5180 3550 c-8 -5 -12 -12 -9 -15 4 -3 12 1 19 10 14 17 11 19 -10 5z"/>
<path d="M3809 3533 c-13 -16 -12 -17 4 -4 16 13 21 21 13 21 -2 0 -10 -8 -17
-17z"/>
<path d="M5916 3532 c-3 -5 1 -9 9 -9 8 0 12 4 9 9 -3 4 -7 8 -9 8 -2 0 -6 -4
-9 -8z"/>
<path d="M6141 3531 c-8 -5 -9 -11 -3 -15 5 -3 12 1 16 9 6 17 6 18 -13 6z"/>
<path d="M7353 3525 c0 -8 4 -12 9 -9 5 3 6 10 3 15 -9 13 -12 11 -12 -6z"/>
<path d="M4490 3519 c0 -5 5 -7 10 -4 6 3 10 8 10 11 0 2 -4 4 -10 4 -5 0 -10
-5 -10 -11z"/>
<path d="M7757 3489 c7 -7 15 -10 18 -7 3 3 -2 9 -12 12 -14 6 -15 5 -6 -5z"/>
<path d="M7818 3483 c7 -3 16 -2 19 1 4 3 -2 6 -13 5 -11 0 -14 -3 -6 -6z"/>
<path d="M8205 3479 c-4 -6 -5 -12 -2 -15 2 -3 7 2 10 11 7 17 1 20 -8 4z"/>
<path d="M8515 3460 c10 -11 20 -20 23 -20 3 0 -3 9 -13 20 -10 11 -20 20 -23
20 -3 0 3 -9 13 -20z"/>
<path d="M6431 3454 c0 -11 3 -14 6 -6 3 7 2 16 -1 19 -3 4 -6 -2 -5 -13z"/>
<path d="M6896 3443 c-6 -14 -5 -15 5 -6 7 7 10 15 7 18 -3 3 -9 -2 -12 -12z"/>
<path d="M3800 3410 c6 -11 13 -20 16 -20 2 0 0 9 -6 20 -6 11 -13 20 -16 20
-2 0 0 -9 6 -20z"/>
<path d="M6911 3404 c0 -11 3 -14 6 -6 3 7 2 16 -1 19 -3 4 -6 -2 -5 -13z"/>
<path d="M3958 3373 c7 -3 16 -2 19 1 4 3 -2 6 -13 5 -11 0 -14 -3 -6 -6z"/>
<path d="M6268 3363 c7 -3 16 -2 19 1 4 3 -2 6 -13 5 -11 0 -14 -3 -6 -6z"/>
<path d="M3878 3353 c7 -3 16 -2 19 1 4 3 -2 6 -13 5 -11 0 -14 -3 -6 -6z"/>
<path d="M6660 3350 c8 -5 22 -9 30 -9 10 0 8 3 -5 9 -27 12 -43 12 -25 0z"/>
<path d="M4030 3336 c0 -2 7 -9 15 -16 9 -7 15 -8 15 -2 0 5 -7 12 -15 16 -8
3 -15 4 -15 2z"/>
<path d="M6135 3310 c-16 -16 -25 -30 -19 -29 8 0 60 59 52 59 -3 0 -17 -13
-33 -30z"/>
<path d="M3970 3326 c0 -2 7 -7 16 -10 8 -3 12 -2 9 4 -6 10 -25 14 -25 6z"/>
<path d="M7135 3320 c-3 -5 -1 -10 4 -10 6 0 11 5 11 10 0 6 -2 10 -4 10 -3 0
-8 -4 -11 -10z"/>
<path d="M4219 3303 c-13 -16 -12 -17 4 -4 16 13 21 21 13 21 -2 0 -10 -8 -17
-17z"/>
<path d="M7160 3299 c0 -5 5 -7 10 -4 6 3 10 8 10 11 0 2 -4 4 -10 4 -5 0 -10
-5 -10 -11z"/>
<path d="M6155 3291 c-3 -5 -1 -12 5 -16 5 -3 10 1 10 9 0 18 -6 21 -15 7z"/>
<path d="M7102 3245 c0 -16 2 -22 5 -12 2 9 2 23 0 30 -3 6 -5 -1 -5 -18z"/>
<path d="M8180 3251 c0 -5 5 -13 10 -16 6 -3 10 -2 10 4 0 5 -4 13 -10 16 -5
3 -10 2 -10 -4z"/>
<path d="M7340 3210 c-9 -6 -10 -10 -3 -10 6 0 15 5 18 10 8 12 4 12 -15 0z"/>
<path d="M7900 3210 c-9 -6 -10 -10 -3 -10 6 0 15 5 18 10 8 12 4 12 -15 0z"/>
<path d="M4015 3180 c-16 -17 -16 -20 -3 -15 9 4 19 13 22 21 7 19 2 18 -19
-6z"/>
<path d="M4415 3180 c-3 -5 -1 -10 4 -10 6 0 11 5 11 10 0 6 -2 10 -4 10 -3 0
-8 -4 -11 -10z"/>
<path d="M3958 3173 c7 -3 16 -2 19 1 4 3 -2 6 -13 5 -11 0 -14 -3 -6 -6z"/>
<path d="M4920 3169 c0 -5 5 -7 10 -4 6 3 10 8 10 11 0 2 -4 4 -10 4 -5 0 -10
-5 -10 -11z"/>
<path d="M6858 3173 c7 -3 16 -2 19 1 4 3 -2 6 -13 5 -11 0 -14 -3 -6 -6z"/>
<path d="M7310 3170 c-9 -6 -10 -10 -3 -10 6 0 15 5 18 10 8 12 4 12 -15 0z"/>
<path d="M7390 3171 c0 -6 4 -13 10 -16 6 -3 7 1 4 9 -7 18 -14 21 -14 7z"/>
<path d="M8305 3170 c3 -5 8 -10 11 -10 2 0 4 5 4 10 0 6 -5 10 -11 10 -5 0
-7 -4 -4 -10z"/>
<path d="M6150 3160 c0 -5 5 -10 11 -10 5 0 7 5 4 10 -3 6 -8 10 -11 10 -2 0
-4 -4 -4 -10z"/>
<path d="M6622 3150 c-12 -12 -22 -24 -22 -27 0 -4 11 4 25 17 23 22 29 30 22
30 -2 0 -13 -9 -25 -20z"/>
<path d="M7718 3158 c6 -6 18 -8 28 -6 14 3 12 5 -9 10 -19 3 -25 2 -19 -4z"/>
<path d="M3838 3153 c7 -3 16 -2 19 1 4 3 -2 6 -13 5 -11 0 -14 -3 -6 -6z"/>
<path d="M8278 3153 c7 -3 16 -2 19 1 4 3 -2 6 -13 5 -11 0 -14 -3 -6 -6z"/>
<path d="M6971 3124 c0 -11 3 -14 6 -6 3 7 2 16 -1 19 -3 4 -6 -2 -5 -13z"/>
<path d="M6920 3089 c0 -5 5 -7 10 -4 6 3 10 8 10 11 0 2 -4 4 -10 4 -5 0 -10
-5 -10 -11z"/>
<path d="M6899 3019 l-24 -20 28 17 c15 9 27 18 27 20 0 8 -8 4 -31 -17z"/>
<path d="M6828 2993 c7 -3 16 -2 19 1 4 3 -2 6 -13 5 -11 0 -14 -3 -6 -6z"/>
</g>
</svg>
