<?xml version="1.0" standalone="no"?>
<!DOCTYPE svg PUBLIC "-//W3C//DTD SVG 20010904//EN"
 "http://www.w3.org/TR/2001/REC-SVG-20010904/DTD/svg10.dtd">
<svg version="1.0" xmlns="http://www.w3.org/2000/svg"
 width="3780.000000pt" height="3780.000000pt" viewBox="0 0 3780.000000 3780.000000"
 preserveAspectRatio="xMidYMid meet">
<metadata>
Created by potrace 1.11, written by Peter Selinger 2001-2013
</metadata>
<g transform="translate(0.000000,3780.000000) scale(0.100000,-0.100000)"
fill="#000000" stroke="none">
<path d="M18852 36916 c-62 -20 -106 -58 -136 -118 -99 -198 107 -406 304
-308 137 69 172 241 73 351 -66 73 -158 101 -241 75z"/>
<path d="M17533 36775 c-53 -23 -61 -47 -85 -251 -12 -104 -25 -194 -30 -200
-5 -6 -36 -15 -71 -18 -95 -11 -135 -24 -142 -47 -4 -11 -7 -53 -6 -92 1 -110
37 -147 147 -147 l61 0 6 -107 c4 -58 7 -235 7 -392 0 -157 5 -315 11 -351 21
-136 93 -236 202 -286 73 -33 206 -44 301 -24 118 24 276 126 276 177 0 23
-87 160 -113 178 -32 23 -71 18 -134 -15 -68 -37 -112 -38 -150 -6 l-28 24 -6
399 c-4 219 -4 401 -2 406 2 4 80 7 172 7 220 0 215 -4 212 141 -1 57 -4 112
-7 122 -10 30 -49 37 -218 37 l-164 0 -4 211 c-4 206 -5 212 -27 230 -18 15
-39 19 -100 19 -42 -1 -90 -7 -108 -15z"/>
<path d="M18757 36327 c-14 -4 -28 -16 -32 -25 -4 -9 -23 -329 -43 -710 l-36
-692 22 -22 c19 -20 36 -23 154 -29 145 -8 173 -2 182 44 13 58 74 1382 65
1398 -5 10 -26 23 -47 28 -50 13 -234 19 -265 8z"/>
<path d="M16177 36289 c-250 -32 -430 -183 -468 -394 -24 -127 17 -262 107
-352 65 -64 162 -106 356 -153 92 -22 185 -47 208 -56 55 -22 80 -56 80 -109
0 -88 -80 -151 -206 -162 -80 -6 -152 10 -246 58 -104 52 -169 30 -224 -76
-47 -89 -48 -98 -20 -132 35 -41 148 -99 243 -124 109 -29 288 -29 394 -1 216
58 355 193 395 384 29 135 -1 263 -80 354 -70 79 -154 118 -381 174 -106 27
-206 55 -223 64 -62 32 -78 85 -42 143 29 49 91 76 185 81 71 4 92 1 172 -27
104 -36 160 -39 194 -12 13 10 40 51 59 90 32 68 34 74 19 99 -8 15 -47 45
-88 69 -122 69 -286 100 -434 82z"/>
<path d="M19796 36228 c-12 -18 -41 -214 -106 -704 -49 -373 -88 -686 -85
-695 12 -36 41 -47 168 -63 137 -18 161 -16 177 15 6 10 39 235 75 500 48 368
67 485 80 499 22 24 141 86 181 94 135 29 253 -15 295 -109 28 -61 24 -121
-36 -575 -30 -228 -55 -432 -55 -452 0 -64 11 -69 184 -92 119 -16 151 -11
165 26 19 53 125 895 125 993 -1 160 -44 274 -140 375 -153 160 -438 195 -662
81 -55 -28 -59 -27 -67 15 -13 71 -62 97 -206 110 -74 6 -77 6 -93 -18z"/>
<path d="M12673 36069 c-63 -20 -98 -50 -109 -96 -4 -12 6 -109 21 -213 15
-105 25 -193 22 -196 -2 -3 -40 -20 -83 -38 -45 -19 -86 -44 -97 -58 -19 -26
-19 -27 2 -98 36 -117 76 -139 197 -109 25 6 47 9 50 6 3 -2 52 -175 110 -383
58 -209 118 -407 134 -441 35 -77 93 -141 162 -179 50 -27 59 -29 168 -29 103
1 122 4 183 29 87 36 174 101 226 166 59 75 56 98 -21 171 -97 90 -140 99
-199 39 -58 -57 -80 -70 -125 -70 -36 0 -47 5 -60 26 -22 32 -226 766 -216
775 4 4 76 26 161 50 158 43 191 61 191 102 -1 46 -50 192 -71 210 -28 23 -30
22 -172 -17 -67 -19 -139 -39 -159 -44 l-37 -10 -15 46 c-8 26 -34 116 -57
200 -23 84 -48 160 -56 168 -20 19 -76 17 -150 -7z"/>
<path d="M14437 36040 c-133 -34 -221 -83 -318 -180 -94 -93 -143 -176 -176
-300 -27 -100 -24 -308 6 -425 46 -180 123 -318 232 -419 76 -71 141 -109 244
-143 69 -22 96 -26 205 -26 95 0 144 5 203 22 198 53 373 166 453 293 37 59
32 78 -36 142 -96 88 -135 88 -250 -5 -261 -210 -529 -179 -650 77 -36 75 -38
102 -7 109 12 2 193 36 402 75 209 39 395 75 412 81 18 6 42 22 54 37 19 24
21 36 16 97 -11 149 -93 321 -204 426 -116 111 -213 149 -388 155 -96 3 -135
0 -198 -16z m268 -294 c48 -21 119 -89 140 -136 10 -22 16 -43 13 -46 -4 -3
-133 -29 -288 -58 -218 -41 -283 -50 -287 -40 -8 22 27 125 58 171 32 46 94
87 162 108 56 18 160 18 202 1z"/>
<path d="M22005 35883 c-114 -16 -218 -65 -296 -139 -69 -67 -114 -152 -136
-259 -21 -105 -8 -201 41 -297 l34 -68 -48 -34 c-115 -83 -159 -226 -106 -347
5 -11 -6 -21 -45 -40 -66 -31 -128 -91 -159 -154 -21 -42 -25 -65 -25 -140 0
-79 4 -97 29 -150 18 -38 55 -85 97 -127 117 -115 324 -202 549 -229 336 -40
623 126 671 389 22 118 -12 213 -108 302 -80 73 -185 120 -408 185 -231 67
-301 107 -265 150 17 20 45 19 110 -6 66 -25 186 -48 255 -48 28 -1 82 6 120
14 213 45 358 201 388 418 l11 87 67 0 c89 0 119 23 143 111 20 70 15 103 -17
123 -12 8 -94 31 -182 51 -142 33 -167 42 -228 82 -78 52 -162 88 -250 107
-70 16 -196 26 -242 19z m229 -323 c111 -42 158 -135 126 -251 -35 -127 -154
-179 -301 -132 -113 37 -171 130 -149 238 32 153 155 208 324 145z m-285
-1074 c189 -59 250 -84 289 -119 43 -40 18 -113 -51 -149 -60 -32 -218 -32
-330 0 -223 64 -313 171 -224 268 30 33 100 67 122 60 6 -2 93 -29 194 -60z"/>
<path d="M24446 35151 c-17 -19 -27 -105 -89 -743 -61 -630 -68 -725 -56 -746
15 -24 165 -97 225 -108 59 -11 37 -33 494 480 139 156 186 202 188 187 2 -10
-13 -193 -33 -404 -43 -461 -44 -490 -18 -525 24 -32 194 -111 240 -111 30 -1
64 35 517 551 510 579 512 582 468 621 -10 9 -63 35 -117 58 -119 50 -158 49
-212 -3 -19 -18 -152 -172 -296 -341 -144 -169 -263 -304 -265 -299 -1 5 16
188 38 408 22 219 40 419 40 444 0 67 -26 102 -107 141 -88 43 -158 46 -198 9
-15 -14 -151 -164 -302 -335 -152 -170 -280 -312 -286 -314 -6 -2 -8 7 -5 25
3 16 27 212 54 435 l48 406 -20 39 c-17 34 -33 46 -118 88 -120 58 -163 67
-190 37z"/>
<path d="M10424 34810 c-257 -67 -456 -265 -510 -506 -24 -110 -15 -270 21
-384 91 -283 282 -500 505 -571 93 -30 245 -36 346 -15 157 34 353 149 463
273 53 59 131 202 131 240 0 26 -49 69 -115 99 -92 43 -126 30 -219 -90 -95
-121 -201 -188 -339 -211 -101 -17 -226 47 -309 157 -26 34 -48 68 -48 74 0 5
178 88 396 184 272 120 402 181 415 198 30 38 25 96 -17 182 -146 305 -424
448 -720 370z m261 -319 c56 -32 114 -96 99 -110 -11 -11 -511 -231 -524 -231
-16 0 -21 58 -11 114 13 73 41 124 89 168 108 97 239 119 347 59z"/>
<path d="M27220 34531 c-106 -34 -180 -127 -180 -226 0 -123 106 -228 229
-228 204 0 308 225 176 381 -50 60 -158 95 -225 73z"/>
<path d="M9155 34222 c-145 -50 -239 -145 -284 -284 -14 -42 -22 -46 -42 -22
-18 22 -64 44 -93 44 -26 0 -167 -68 -198 -96 -10 -10 -18 -29 -18 -43 0 -25
634 -1196 667 -1233 26 -29 60 -21 172 38 127 68 141 79 141 113 0 15 -55 128
-126 256 -69 127 -162 298 -207 380 l-82 150 1 90 c0 72 5 98 22 131 30 58 90
106 172 138 120 47 133 88 74 227 -55 130 -89 149 -199 111z"/>
<path d="M26927 34038 c-20 -16 -687 -1217 -687 -1239 0 -28 24 -47 131 -108
128 -72 148 -78 177 -54 30 25 682 1207 682 1236 0 32 -27 54 -146 121 -106
58 -129 65 -157 44z"/>
<path d="M28197 33782 c-25 -11 -68 -55 -133 -132 -53 -63 -109 -129 -125
-147 l-29 -32 -87 40 c-48 22 -96 39 -107 37 -26 -4 -93 -92 -106 -140 -15
-55 6 -99 69 -140 28 -18 51 -38 51 -45 0 -6 -89 -150 -198 -320 -227 -354
-239 -374 -259 -428 -36 -98 -33 -207 8 -287 47 -93 160 -183 283 -226 56 -20
92 -25 169 -26 96 -1 99 0 123 27 21 25 24 38 24 113 0 132 -22 158 -143 167
-75 5 -111 30 -115 80 -2 20 2 46 8 58 11 20 408 640 415 647 2 2 67 -38 145
-87 152 -98 182 -107 216 -68 42 47 104 155 104 180 0 34 -15 47 -172 147
-120 77 -127 83 -116 103 6 12 44 72 83 132 159 245 159 246 30 323 -67 40
-93 44 -138 24z"/>
<path d="M7610 33291 c-175 -56 -353 -208 -437 -376 -56 -110 -86 -230 -65
-262 16 -26 124 -73 167 -73 70 0 103 30 161 148 55 112 103 169 179 213 80
46 158 38 224 -24 36 -34 91 -105 91 -117 0 -4 -43 -42 -95 -84 -171 -140
-304 -301 -357 -434 -17 -45 -22 -77 -23 -152 0 -88 3 -101 32 -160 58 -118
151 -194 272 -226 211 -53 479 109 597 362 l33 71 51 -25 c45 -22 55 -24 89
-14 20 7 65 30 99 51 60 40 82 72 69 105 -12 30 -512 774 -554 824 -60 70
-158 139 -241 168 -84 30 -209 32 -292 5z m539 -815 c47 -71 48 -82 22 -159
-61 -176 -243 -299 -335 -226 -56 44 -69 104 -37 175 37 81 271 305 297 283 7
-5 31 -38 53 -73z"/>
<path d="M29367 33198 c-43 -44 -1212 -1559 -1221 -1583 -7 -17 -5 -30 8 -50
25 -38 213 -175 241 -175 29 0 33 4 370 440 146 190 276 349 288 353 32 13
188 1 231 -17 161 -67 215 -190 144 -325 -18 -34 -154 -218 -303 -409 -235
-302 -270 -351 -270 -382 0 -32 8 -41 103 -117 121 -97 143 -105 178 -72 35
33 542 690 588 762 150 235 129 477 -56 653 -109 103 -261 173 -375 174 -18 0
-33 5 -33 10 0 6 90 127 200 268 170 218 200 262 198 287 -2 22 -19 43 -72 87
-89 75 -154 118 -178 118 -10 0 -29 -10 -41 -22z"/>
<path d="M13805 32789 c-234 -21 -523 -89 -730 -171 -115 -45 -330 -156 -437
-225 -378 -243 -714 -608 -954 -1036 -351 -625 -556 -1376 -641 -2347 -22
-259 -26 -1182 -5 -1460 18 -246 40 -476 57 -610 18 -139 18 -150 2 -150 -6 0
-127 115 -267 255 -140 140 -259 255 -265 255 -6 0 -339 -329 -740 -731 -556
-557 -745 -741 -795 -771 -184 -114 -475 -320 -680 -481 -228 -180 -576 -514
-747 -717 -575 -684 -842 -1412 -784 -2135 38 -471 183 -890 462 -1333 389
-619 1063 -1228 1929 -1743 512 -305 1235 -646 1795 -849 50 -18 94 -36 98
-40 4 -4 -1 -90 -12 -191 -82 -749 -94 -1491 -35 -2134 121 -1332 544 -2368
1219 -2986 316 -289 698 -496 1108 -600 588 -149 1238 -105 1967 133 755 247
1612 737 2419 1385 57 46 107 83 112 83 4 0 73 -51 151 -113 1072 -845 2112
-1365 3048 -1526 417 -71 853 -66 1217 15 716 159 1318 613 1730 1304 92 155
214 403 283 575 l52 130 606 608 607 608 -333 330 -333 331 89 176 c103 203
193 421 252 613 22 73 46 137 53 141 7 4 220 8 475 8 l462 0 0 913 0 912 83
44 c236 126 683 413 906 582 803 607 1331 1264 1566 1950 51 150 96 327 122
484 25 155 25 561 0 725 -124 796 -569 1512 -1362 2191 -670 573 -1620 1111
-2685 1519 -118 45 -218 85 -221 89 -3 3 5 107 17 231 138 1346 64 2499 -221
3434 -475 1560 -1535 2399 -2941 2326 -197 -11 -244 -15 -430 -45 -717 -116
-1584 -493 -2394 -1043 -275 -187 -661 -474 -790 -588 -13 -11 -31 -1 -130 77
-541 427 -1029 748 -1525 1005 -616 319 -1162 500 -1741 580 -133 18 -552 26
-689 13z m586 -1279 c753 -73 1637 -460 2511 -1100 l116 -85 -222 -226 c-659
-671 -1270 -1405 -1877 -2254 l-115 -160 -94 -13 c-52 -7 -180 -26 -285 -42
-104 -17 -196 -30 -202 -30 -10 0 -13 44 -13 185 l0 185 -1025 0 -1025 0 0
-418 0 -417 -67 -19 c-38 -11 -160 -48 -272 -83 -112 -35 -205 -62 -207 -60
-26 25 -43 900 -25 1212 47 800 195 1441 455 1972 140 286 305 522 506 724
369 371 806 578 1340 632 80 8 405 6 501 -3z m7513 -6 c417 -46 761 -179 1071
-413 817 -616 1236 -1856 1200 -3551 -7 -360 -16 -555 -26 -564 -3 -3 -113 28
-245 68 -131 41 -349 104 -484 140 -135 37 -251 70 -259 75 -9 4 -24 53 -39
122 -13 63 -47 185 -76 271 l-52 157 264 196 c165 122 262 201 259 209 -4 11
-826 1116 -847 1139 -4 5 -123 -78 -264 -183 -141 -105 -262 -193 -270 -196
-8 -3 -42 16 -75 41 -97 74 -255 170 -391 239 -69 34 -130 65 -137 67 -9 3 0
89 36 332 26 180 45 330 42 332 -17 10 -1414 205 -1421 198 -3 -4 -26 -143
-49 -308 -24 -165 -45 -309 -47 -321 -5 -17 -20 -22 -115 -37 -61 -10 -172
-33 -247 -52 -75 -19 -138 -35 -138 -35 -1 0 -87 93 -190 208 -104 114 -293
313 -421 443 -128 130 -233 239 -233 243 0 3 51 44 113 89 414 307 964 622
1401 802 586 242 1160 343 1640 289z m-3710 -2215 c-2 -4 -79 -63 -169 -130
-91 -66 -165 -126 -165 -131 0 -6 87 -127 194 -270 l194 -259 -70 -97 c-89
-123 -175 -267 -240 -402 -28 -58 -52 -106 -53 -108 -2 -2 -147 18 -324 43
-177 25 -326 43 -331 40 -6 -3 -10 -18 -10 -33 -1 -72 14 -68 -243 -76 -128
-3 -331 -13 -452 -21 -121 -8 -228 -15 -238 -15 -14 0 0 23 53 93 387 500 912
1082 1358 1504 l184 173 159 -152 c87 -83 156 -155 153 -159z m2538 -1134
c281 -63 549 -221 733 -432 42 -48 81 -96 87 -107 12 -22 45 -25 -307 29 -126
19 -242 35 -257 35 -23 0 -46 27 -177 208 -82 114 -164 226 -181 250 -20 26
-27 42 -18 42 7 0 61 -11 120 -25z m-3587 -727 c-30 -177 -124 -863 -118 -869
5 -4 141 -25 303 -48 162 -23 307 -44 321 -47 24 -5 27 -11 37 -85 23 -162 99
-450 157 -591 5 -13 -48 -57 -252 -208 -142 -106 -261 -195 -266 -199 -4 -4
20 -43 53 -87 33 -43 60 -82 60 -85 0 -4 -35 -15 -77 -24 -210 -45 -426 -117
-576 -191 -42 -21 -78 -36 -80 -34 -2 3 -31 57 -64 122 l-60 116 334 334 333
333 -702 702 -702 702 27 38 c63 88 44 81 237 97 262 23 745 50 968 55 l73 1
-6 -32z m2410 -30 c278 -22 280 -22 305 -49 44 -46 317 -432 515 -729 265
-396 685 -1074 673 -1086 -11 -10 -196 -82 -253 -97 -116 -32 -238 -47 -374
-47 -209 0 -375 33 -553 110 -695 302 -1026 1102 -748 1807 47 118 50 121 107
117 26 -2 174 -14 328 -26z m-5071 -180 c-40 -65 -147 -223 -153 -223 -3 0
-32 6 -63 14 l-58 14 0 78 c0 91 -18 79 160 108 63 11 116 20 118 20 2 1 0 -5
-4 -11z m7187 -90 l114 -23 13 -55 c23 -89 21 -402 -2 -524 -22 -117 -7 -126
-138 89 -76 124 -284 454 -351 556 l-18 26 135 -23 c73 -13 185 -34 247 -46z
m2276 -605 c130 -46 163 -62 163 -76 0 -30 -59 -439 -91 -632 -128 -771 -358
-1680 -617 -2445 l-39 -115 -15 35 c-9 19 -49 114 -91 210 -109 256 -254 582
-342 769 -42 90 -75 164 -73 165 111 83 143 109 143 116 0 5 -87 127 -194 270
l-193 261 27 37 c87 118 205 308 266 429 39 76 72 139 74 141 2 2 148 -18 324
-44 177 -25 324 -44 327 -42 4 5 144 943 144 968 0 17 21 12 187 -47z m898
-368 c72 -32 234 -111 360 -175 687 -348 1197 -698 1629 -1120 512 -501 805
-1020 892 -1580 25 -159 25 -466 1 -610 -72 -425 -255 -819 -567 -1217 -114
-146 -472 -502 -648 -645 -251 -204 -592 -437 -882 -603 -151 -87 -492 -265
-506 -265 -5 0 -22 30 -38 68 -16 37 -62 132 -103 211 l-75 144 331 331 331
331 -718 718 c-394 394 -721 717 -727 717 -5 0 -85 -75 -176 -166 l-166 -166
-22 63 c-12 35 -53 153 -92 261 l-72 197 78 213 c393 1084 696 2202 870 3213
14 83 28 160 30 172 l5 22 68 -28 c37 -16 126 -54 197 -86z m-15192 -822 l134
-132 -106 -213 c-108 -217 -184 -407 -243 -607 l-33 -111 -472 0 -473 0 0
-1020 0 -1020 443 -1 c243 -1 451 -1 462 0 11 1 25 -2 31 -6 6 -5 28 -64 48
-133 57 -188 149 -414 251 -617 l92 -181 -291 -291 -291 -290 -110 88 c-432
347 -797 776 -994 1169 -174 347 -251 663 -251 1031 0 527 195 1021 608 1541
120 151 465 487 645 630 175 138 398 301 409 297 4 -1 67 -61 141 -134z m3655
-110 c-2 -5 -48 -96 -102 -203 -249 -493 -700 -1479 -787 -1722 -14 -41 -24
-48 -32 -20 -2 9 -44 141 -91 292 -111 349 -189 624 -277 965 l-69 270 23 18
c120 95 340 218 507 283 110 42 290 89 410 108 99 15 424 22 418 9z m1118
-425 c629 -506 893 -1360 659 -2132 -133 -438 -418 -821 -805 -1081 -114 -76
-340 -186 -473 -230 -164 -53 -332 -85 -489 -92 l-136 -6 -29 64 c-16 35 -65
145 -108 243 l-79 179 43 126 c163 472 459 1198 721 1771 128 279 599 1220
610 1220 5 0 44 -28 86 -62z m-2782 -601 c75 -263 129 -439 233 -752 77 -234
234 -680 268 -762 13 -31 10 -44 -74 -275 -49 -134 -116 -328 -151 -433 -34
-104 -66 -194 -70 -198 -10 -11 -167 158 -250 268 -460 615 -530 1435 -181
2110 69 133 151 259 161 248 4 -4 33 -97 64 -206z m9991 -242 c108 -146 200
-265 204 -265 4 0 34 20 67 45 l59 44 34 -72 c19 -39 85 -184 146 -322 l112
-250 -883 -3 -884 -2 0 -470 0 -470 -26 -10 c-14 -6 -29 -10 -33 -10 -4 0 -2
37 5 82 56 349 30 776 -67 1100 -11 38 -19 72 -16 74 2 2 70 -5 151 -17 81
-12 149 -20 151 -17 3 2 25 146 50 319 25 173 47 318 49 324 1 5 42 15 90 22
126 18 321 67 466 117 69 24 126 44 126 45 1 0 90 -118 199 -264z m954 -1641
c27 -71 52 -137 56 -146 6 -15 2 -15 -52 1 l-58 17 -3 134 c-1 74 0 132 3 129
3 -3 27 -64 54 -135z m-752 -1944 c102 -18 261 -56 271 -65 8 -7 -304 -579
-506 -930 -92 -161 -358 -611 -367 -623 -9 -11 -659 -103 -995 -142 -145 -16
-685 -70 -706 -70 -11 0 7 157 31 275 58 279 187 563 359 790 74 98 237 268
332 346 294 240 680 399 1069 439 129 13 375 3 512 -20z m-4678 -207 c213 -63
484 -103 691 -103 l107 0 -57 -139 c-55 -131 -135 -356 -159 -448 l-12 -43
-472 -2 -472 -3 -3 -466 -2 -466 -48 3 c-26 2 -137 8 -247 14 -528 29 -1159
94 -1809 187 l-119 17 -32 50 c-18 28 -96 157 -173 287 l-142 235 0 90 0 89
141 43 c204 62 378 133 596 242 l191 97 329 -329 c180 -180 332 -328 338 -328
6 0 250 240 544 534 l534 534 81 -30 c45 -17 132 -46 195 -65z m5435 -89 c248
-163 474 -399 620 -647 68 -116 102 -185 94 -193 -17 -16 -769 -214 -1061
-279 -220 -48 -487 -103 -487 -99 0 2 60 106 134 231 159 270 368 645 492 882
49 94 93 171 98 171 4 0 54 -30 110 -66z m-11278 -284 c-3 -8 -12 -53 -21
-100 -9 -47 -18 -91 -20 -97 -3 -9 -24 -4 -72 16 -37 16 -86 36 -107 45 l-40
17 88 88 89 89 43 -21 c30 -14 43 -26 40 -37z m1012 -1674 c614 -172 1471
-352 2197 -461 132 -20 250 -38 262 -40 14 -3 75 -81 184 -232 421 -590 901
-1187 1377 -1713 218 -240 779 -804 1003 -1007 l167 -151 -122 -87 c-868 -623
-1714 -991 -2476 -1076 -140 -16 -471 -16 -590 0 -581 77 -1066 351 -1436 811
-358 444 -612 1107 -724 1885 -58 409 -74 698 -67 1238 6 498 31 877 58 877 5
0 80 -20 167 -44z m11136 -73 c-79 -436 -332 -869 -671 -1153 -308 -257 -640
-404 -1026 -455 -452 -59 -925 43 -1302 280 -49 31 -94 60 -98 64 -4 5 68 109
160 232 93 123 229 308 302 412 87 121 142 189 155 192 12 2 75 11 141 20 325
44 1022 170 1413 256 224 49 715 170 842 208 104 30 100 33 84 -56z m-7779
-528 c313 -30 932 -75 1027 -75 66 0 68 -1 68 -25 l0 -25 443 -1 c522 -1 498
0 508 -19 4 -8 30 -88 59 -178 63 -200 136 -378 243 -585 l81 -158 -332 -332
-332 -332 365 -365 365 -365 -141 -120 c-78 -66 -146 -121 -153 -123 -15 -3
-202 152 -423 350 -227 204 -758 737 -982 988 -370 412 -871 1028 -1092 1343
l-41 57 39 -5 c21 -3 155 -16 298 -30z m4725 29 c0 -14 -364 -484 -370 -477
-103 118 -191 241 -254 354 l-35 64 317 31 c174 17 323 32 330 33 6 0 12 -2
12 -5z m-707 -2609 c224 -117 496 -226 725 -290 l62 -18 0 -473 0 -474 923 0
c915 0 922 -1 897 -20 -53 -41 -216 -125 -337 -173 -309 -121 -631 -169 -996
-147 -707 42 -1462 329 -2287 867 -164 107 -429 295 -430 304 0 9 227 219 236
219 5 0 95 -87 201 -192 l193 -193 333 333 c182 182 333 332 335 332 1 0 66
-34 145 -75z m3531 -160 c-107 -237 -259 -481 -418 -671 -82 -97 -261 -274
-278 -274 -4 0 -8 178 -8 395 0 365 1 395 18 403 9 5 73 26 142 47 143 43 398
143 515 203 44 22 81 36 83 32 2 -5 -23 -65 -54 -135z"/>
<path d="M6403 32447 c-93 -76 -123 -116 -123 -168 0 -26 48 -148 161 -411
198 -459 184 -422 162 -414 -10 4 -173 105 -363 224 -189 119 -361 222 -381
228 -50 18 -92 4 -159 -51 -69 -57 -93 -97 -87 -150 3 -22 77 -217 166 -434
89 -217 159 -396 157 -398 -2 -3 -161 98 -353 223 -191 125 -365 234 -386 242
-57 23 -100 5 -201 -83 -97 -86 -112 -114 -75 -150 37 -36 1220 -768 1249
-773 20 -3 45 12 111 67 89 74 109 102 109 152 0 16 -74 214 -165 441 -90 226
-163 413 -162 415 2 1 172 -101 378 -228 206 -128 386 -236 402 -241 41 -15
77 2 172 83 81 68 90 80 85 122 -3 31 -539 1330 -557 1349 -28 31 -59 21 -140
-45z"/>
<path d="M31670 30907 c-85 -29 -145 -65 -227 -137 l-68 -59 -60 59 c-87 84
-94 85 -171 8 -60 -61 -64 -68 -64 -110 0 -36 8 -57 35 -99 20 -28 38 -56 40
-60 3 -4 -174 -181 -394 -393 -219 -212 -401 -393 -403 -403 -9 -32 7 -56 103
-156 66 -68 101 -97 117 -97 24 0 77 49 582 534 135 130 249 236 254 236 5 0
61 -54 125 -120 80 -83 123 -120 138 -120 12 0 48 22 80 49 142 119 142 121
-12 286 l-118 126 29 30 c42 45 103 85 152 100 64 19 106 1 197 -81 111 -101
126 -102 230 -14 49 42 65 62 65 81 0 41 -57 129 -129 201 -144 145 -333 197
-501 139z"/>
<path d="M3940 30823 c-23 -8 -110 -95 -126 -125 -17 -33 -18 -82 -3 -111 7
-12 63 -85 125 -163 63 -78 114 -145 114 -149 0 -4 -25 -41 -55 -82 -30 -42
-55 -86 -55 -98 0 -30 106 -130 147 -139 40 -9 65 3 125 62 l47 45 192 -184
c388 -371 426 -405 497 -440 60 -31 75 -34 152 -34 71 0 94 4 140 26 148 70
262 226 292 398 17 102 6 120 -87 143 -135 32 -184 16 -205 -65 -32 -124 -90
-167 -161 -119 -40 26 -559 525 -559 537 0 5 52 65 115 132 142 151 142 152
48 245 -76 74 -105 92 -133 83 -10 -3 -70 -60 -134 -125 -63 -66 -119 -120
-123 -120 -5 0 -72 60 -149 134 -123 116 -173 158 -186 155 -2 0 -10 -3 -18
-6z"/>
<path d="M3120 30136 c-194 -142 -284 -382 -220 -588 25 -81 99 -187 179 -256
33 -29 61 -58 61 -63 0 -5 -22 -37 -50 -70 -58 -69 -63 -98 -22 -136 111 -105
170 -109 273 -16 36 32 41 34 57 21 82 -71 813 -669 835 -683 40 -26 62 -12
153 97 90 110 101 129 87 161 -6 12 -200 177 -431 367 -232 190 -421 350 -421
355 -1 6 42 62 95 125 53 63 100 125 106 138 17 35 -2 64 -87 132 -112 88
-110 89 -245 -75 l-112 -135 -28 20 c-50 36 -116 117 -129 159 -17 58 -2 104
66 197 77 105 78 133 8 205 -50 50 -92 79 -117 79 -7 0 -33 -15 -58 -34z"/>
<path d="M32032 29583 c-601 -483 -619 -500 -683 -636 -80 -171 -53 -353 74
-512 85 -105 179 -170 308 -210 l57 -18 -19 -31 c-38 -62 -22 -117 63 -219 53
-62 71 -72 106 -54 15 7 267 206 560 442 498 401 532 430 532 459 0 24 -18 54
-80 131 -45 55 -86 103 -93 107 -38 24 -66 7 -308 -189 -134 -108 -308 -248
-387 -311 l-142 -115 -63 12 c-183 35 -325 181 -297 306 19 83 50 114 415 405
384 308 395 317 395 350 0 21 -21 56 -80 129 -78 98 -103 121 -134 121 -9 0
-110 -75 -224 -167z"/>
<path d="M2690 28405 c-136 -31 -277 -122 -377 -245 -66 -81 -137 -223 -159
-315 -22 -96 -15 -266 15 -353 53 -153 173 -298 338 -409 270 -180 551 -203
790 -62 133 79 276 262 330 424 24 71 27 95 27 210 0 115 -3 138 -26 202 -31
84 -99 193 -166 265 -105 114 -301 233 -447 273 -86 23 -245 28 -325 10z m191
-349 c117 -36 276 -138 353 -227 124 -144 131 -279 21 -428 -71 -98 -165 -138
-280 -121 -174 26 -412 196 -480 342 -32 69 -34 172 -5 237 44 96 125 179 196
201 45 13 145 11 195 -4z"/>
<path d="M32895 27829 c-297 -192 -559 -362 -582 -379 -62 -43 -59 -68 24
-198 75 -116 99 -138 136 -125 13 4 207 127 430 272 l407 263 46 -11 c202 -51
332 -231 268 -368 -28 -57 -102 -112 -484 -359 -201 -129 -371 -242 -377 -251
-7 -9 -13 -26 -13 -37 0 -19 117 -212 147 -241 35 -36 65 -21 441 222 202 130
392 256 423 279 84 64 148 140 188 224 32 68 36 85 39 175 3 83 0 111 -18 165
-56 165 -188 310 -341 372 -30 12 -56 23 -58 24 -2 2 6 16 18 33 46 65 33 123
-55 244 -29 40 -39 47 -67 46 -25 0 -152 -78 -572 -350z"/>
<path d="M1619 26878 c-123 -61 -227 -168 -296 -304 -62 -123 -76 -186 -71
-318 3 -88 8 -110 35 -168 77 -163 251 -260 424 -236 116 15 182 58 395 252
148 135 194 152 257 96 66 -58 73 -131 23 -235 -36 -72 -95 -131 -180 -180
-123 -71 -141 -123 -80 -242 46 -92 66 -104 132 -80 151 56 309 203 392 367
121 238 94 481 -73 637 -35 32 -90 72 -123 88 -52 26 -70 29 -154 30 -87 0
-101 -3 -163 -32 -81 -39 -112 -62 -272 -207 -66 -60 -139 -118 -163 -128 -39
-18 -44 -18 -76 -3 -43 21 -61 56 -60 119 3 97 63 188 184 275 108 79 121 119
69 217 -59 111 -74 115 -200 52z"/>
<path d="M34621 26560 c-421 -225 -445 -240 -624 -358 -95 -63 -129 -91 -134
-111 -8 -31 69 -185 105 -209 20 -13 28 -12 85 8 148 54 357 155 725 352 316
169 393 215 398 234 6 22 -36 116 -102 231 -16 28 -50 53 -72 53 -4 0 -176
-90 -381 -200z"/>
<path d="M33416 25975 c-47 -17 -101 -67 -128 -119 -31 -60 -23 -161 18 -218
58 -83 141 -118 234 -99 70 14 127 54 157 111 21 39 24 56 21 122 -3 67 -7 81
-34 120 -61 84 -171 118 -268 83z"/>
<path d="M14940 10230 l0 -970 125 0 125 0 0 494 0 494 56 52 c186 169 440
169 526 0 42 -81 47 -158 48 -622 l0 -418 121 0 120 0 -3 503 c-3 491 -4 503
-26 561 -32 85 -64 136 -117 185 -135 125 -374 145 -563 47 -17 -9 -60 -38
-96 -66 l-66 -51 0 381 0 380 -125 0 -125 0 0 -970z"/>
<path d="M22895 11155 c-253 -55 -416 -244 -417 -482 0 -183 76 -313 232 -398
36 -19 58 -35 50 -35 -9 0 -48 -16 -89 -35 -129 -62 -218 -173 -251 -314 -16
-68 -8 -218 16 -285 81 -233 306 -366 616 -366 371 1 618 198 635 506 9 155
-31 269 -128 367 -54 54 -179 127 -219 127 -8 0 14 16 50 35 156 84 233 217
233 400 0 236 -168 427 -423 481 -81 17 -225 17 -305 -1z m316 -203 c58 -28
112 -80 142 -135 19 -36 22 -57 22 -152 0 -96 -3 -116 -24 -159 -30 -59 -79
-108 -140 -138 -40 -20 -61 -23 -161 -23 -100 0 -121 3 -161 23 -108 53 -160
138 -167 272 -5 99 6 149 47 211 32 47 105 101 162 118 19 6 79 9 134 8 80 -2
109 -7 146 -25z m-36 -827 c122 -32 198 -94 235 -193 26 -69 33 -140 20 -213
-32 -183 -166 -284 -380 -284 -215 0 -349 101 -380 288 -26 152 34 291 155
362 89 53 236 69 350 40z"/>
<path d="M24836 11133 c-34 -14 -76 -66 -312 -382 -287 -385 -347 -475 -394
-588 -63 -157 -76 -335 -35 -488 58 -214 223 -372 441 -421 111 -24 281 -16
391 20 97 32 215 106 273 174 158 184 194 469 88 682 -44 88 -143 186 -228
227 -72 35 -193 63 -269 63 -73 0 -193 -25 -251 -53 -27 -13 -50 -23 -50 -21
0 2 138 178 306 391 169 213 311 394 317 401 16 20 -227 16 -277 -5z m16 -924
c109 -36 168 -92 220 -204 20 -43 23 -66 23 -165 0 -106 -2 -120 -29 -178 -37
-81 -122 -161 -203 -193 -80 -30 -210 -37 -289 -15 -161 46 -252 169 -262 353
-7 139 20 223 101 306 42 43 120 90 177 108 54 16 198 10 262 -12z"/>
<path d="M14052 11012 c-14 -14 -23 -60 -40 -197 -13 -99 -26 -194 -28 -211
l-6 -32 -106 -13 -107 -14 -3 -55 c-4 -85 7 -94 117 -98 l91 -4 0 -421 c0
-302 4 -439 13 -483 33 -158 145 -244 316 -244 112 0 230 39 300 97 l34 29
-39 62 c-22 34 -47 65 -56 68 -9 3 -41 -9 -71 -26 -69 -38 -149 -42 -192 -8
-54 42 -55 52 -55 507 l0 421 188 2 187 3 3 88 3 87 -191 0 -190 0 0 230 0
230 -75 0 c-59 0 -79 -4 -93 -18z"/>
<path d="M11481 10605 c-142 -32 -260 -115 -309 -216 -50 -103 -49 -237 2
-324 57 -96 152 -152 383 -224 202 -64 266 -115 265 -215 -2 -222 -300 -285
-547 -117 -57 40 -94 28 -141 -46 l-35 -55 23 -25 c35 -37 194 -111 273 -128
39 -8 111 -15 160 -15 268 0 455 134 496 356 29 155 -38 286 -184 360 -26 13
-120 49 -209 79 -233 79 -288 120 -288 215 0 129 147 211 321 180 35 -6 103
-29 150 -51 73 -33 91 -38 111 -29 27 13 82 96 74 115 -6 15 -105 81 -153 102
-111 47 -281 63 -392 38z"/>
<path d="M12786 10603 c-119 -25 -208 -68 -314 -152 -52 -41 -52 -42 -37 -70
54 -105 101 -116 209 -46 99 65 165 86 261 87 182 1 258 -85 272 -306 l6 -103
-116 -6 c-286 -17 -512 -92 -623 -209 -74 -76 -98 -155 -83 -268 17 -119 93
-216 208 -262 81 -33 267 -33 361 0 82 28 152 68 212 121 25 22 48 41 51 41 2
0 10 -28 16 -61 18 -91 40 -109 136 -109 l76 0 -4 488 c-3 408 -6 495 -19 539
-67 221 -225 334 -463 332 -44 0 -111 -7 -149 -16z m394 -876 c0 -156 0 -155
-103 -227 -112 -79 -251 -110 -360 -79 -88 24 -146 137 -117 231 35 120 231
193 548 207 l32 1 0 -133z"/>
<path d="M17125 10614 c-11 -2 -45 -9 -75 -15 -74 -15 -181 -72 -246 -132 -59
-54 -59 -54 -69 33 -3 30 -9 60 -13 66 -15 24 -54 34 -126 34 l-76 0 0 -670 0
-670 120 0 120 0 0 492 0 492 55 52 c106 98 236 144 353 125 101 -16 152 -55
196 -151 20 -43 21 -62 24 -527 l3 -483 125 0 125 0 -4 488 c-4 529 -5 539
-64 656 -31 61 -107 136 -166 165 -77 37 -212 59 -282 45z"/>
<path d="M18445 10609 c-118 -20 -256 -86 -340 -162 l-48 -43 28 -47 c44 -77
90 -87 169 -37 136 87 243 117 353 100 138 -22 194 -105 201 -297 l4 -113 -60
0 c-94 0 -280 -27 -378 -55 -182 -52 -309 -137 -356 -240 -34 -74 -32 -199 4
-275 62 -132 183 -200 358 -200 143 0 272 47 388 141 41 33 64 46 66 37 3 -7
10 -37 17 -67 17 -79 34 -91 124 -91 l75 0 0 478 c0 519 -2 537 -57 652 -86
176 -299 261 -548 219z m365 -888 l0 -139 -55 -50 c-100 -88 -212 -128 -334
-120 -123 9 -181 63 -188 176 -5 79 11 113 78 162 77 55 262 98 467 108 l32 2
0 -139z"/>
<path d="M19850 10604 c-145 -31 -266 -118 -322 -232 -32 -64 -33 -72 -33
-182 0 -106 2 -120 29 -178 21 -46 48 -80 99 -128 38 -35 64 -64 58 -64 -20 0
-112 -93 -133 -134 -16 -31 -19 -53 -16 -109 l4 -70 53 -49 c29 -27 52 -50 50
-52 -2 -2 -23 -13 -47 -25 -108 -55 -165 -137 -166 -241 -2 -156 111 -269 331
-332 67 -20 102 -23 243 -23 142 0 176 3 245 23 170 49 299 147 359 272 27 57
31 75 31 150 0 75 -3 91 -27 132 -48 81 -115 122 -244 151 -78 18 -135 23
-353 37 -223 14 -289 48 -266 137 3 15 22 41 40 59 32 30 37 31 77 22 61 -13
203 -13 273 2 148 31 261 113 321 235 30 62 37 86 41 157 4 76 -6 141 -31 199
-6 14 5 19 78 29 105 15 118 27 114 101 l-3 54 -190 5 c-152 4 -197 9 -228 23
-95 45 -263 58 -387 31z m295 -186 c178 -95 178 -378 1 -470 -56 -30 -194 -37
-263 -14 -110 37 -168 121 -167 246 0 120 56 209 155 247 49 18 235 12 274 -9z
m-115 -1068 c315 -19 388 -53 378 -177 -5 -61 -25 -92 -86 -140 -62 -47 -129
-64 -277 -70 -207 -8 -327 30 -380 121 -44 75 -29 151 41 217 53 50 93 70 129
64 17 -3 104 -9 195 -15z"/>
<path d="M21384 10609 c-116 -19 -254 -86 -341 -164 l-45 -40 27 -48 c45 -79
93 -88 180 -32 96 61 154 85 223 94 118 15 205 -9 256 -70 47 -55 58 -96 64
-221 l4 -118 -60 0 c-94 0 -280 -27 -378 -55 -182 -52 -309 -137 -356 -240
-29 -63 -31 -197 -4 -259 59 -140 188 -216 366 -216 142 0 273 48 389 141 33
26 62 45 65 41 2 -4 9 -33 16 -65 17 -84 33 -97 125 -97 l75 0 0 475 c0 511
-2 538 -52 644 -88 187 -297 273 -554 230z m366 -888 l0 -138 -44 -41 c-60
-55 -113 -88 -185 -112 -103 -35 -238 -23 -293 27 -51 45 -72 149 -44 217 42
102 248 173 534 185 l32 1 0 -139z"/>
</g>
</svg>
